M48
; DRILL file {KiCad 9.0.7} date 2026-02-01T23:58:05+0000
; FORMAT={-:-/ absolute / metric / decimal}
; #@! TF.CreationDate,2026-02-01T23:58:05+00:00
; #@! TF.GenerationSoftware,Kicad,Pcbnew,9.0.7
; #@! TF.FileFunction,Plated,1,2,PTH
FMAT,2
METRIC
; #@! TA.AperFunction,Plated,PTH,ComponentDrill
T1C0.200
; #@! TA.AperFunction,Plated,PTH,ViaDrill
T2C0.300
; #@! TA.AperFunction,Plated,PTH,ComponentDrill
T3C0.950
; #@! TA.AperFunction,Plated,PTH,ComponentDrill
T4C1.000
; #@! TA.AperFunction,Plated,PTH,ComponentDrill
T5C1.200
; #@! TA.AperFunction,Plated,PTH,ComponentDrill
T6C1.300
; #@! TA.AperFunction,Plated,PTH,ComponentDrill
T7C1.500
%
G90
G05
T1
X146.6Y-82.864
X146.6Y-84.264
X147.3Y-82.164
X147.3Y-83.564
X147.3Y-84.964
X148.0Y-82.864
X148.0Y-84.264
X148.7Y-82.164
X148.7Y-83.564
X148.7Y-84.964
X149.4Y-82.864
X149.4Y-84.264
T2
X115.75Y-95.744
X117.25Y-96.344
X123.25Y-87.844
X123.65Y-104.899
X125.05Y-89.844
X128.25Y-97.344
X128.45Y-77.444
X128.75Y-119.344
X134.25Y-110.444
X137.35Y-75.144
X137.95Y-116.844
X139.15Y-78.944
X140.15Y-106.244
X141.45Y-106.244
X142.88Y-105.614
X143.715Y-99.344
X143.75Y-104.744
X144.25Y-114.644
X145.35Y-107.744
X145.742Y-104.136
X146.45Y-110.744
X146.742Y-103.136
X146.899Y-105.244
X147.65Y-101.544
X148.25Y-98.244
X148.299Y-104.693
X148.35Y-131.844
X148.65Y-106.544
X149.465Y-98.244
X149.574Y-105.52
X151.05Y-113.644
X156.426Y-97.62
X157.726Y-96.32
X157.85Y-116.144
X159.75Y-75.844
X159.85Y-92.244
X160.974Y-91.32
X161.95Y-75.844
X162.85Y-131.344
X167.75Y-110.844
X168.141Y-103.344
X168.35Y-80.844
X168.85Y-106.644
X170.05Y-89.344
X170.25Y-127.944
X171.15Y-110.844
X171.25Y-107.344
X176.85Y-112.744
X180.75Y-89.544
T3
X132.85Y-77.944
X132.85Y-80.444
X132.85Y-82.944
X132.85Y-85.444
X132.85Y-87.944
X159.85Y-106.144
X159.85Y-108.644
X159.85Y-111.144
X159.85Y-113.644
X159.85Y-116.144
X159.85Y-118.644
T5
X138.75Y-131.844
X143.75Y-131.844
X153.25Y-131.344
X158.25Y-131.344
T6
X180.75Y-93.344
X180.75Y-98.344
T4
X176.25Y-103.844G85X177.25Y-103.844
G05
X176.25Y-110.844G85X177.25Y-110.844
G05
T7
X174.25Y-107.944G85X174.25Y-106.744
G05
M30
