%TF.GenerationSoftware,KiCad,Pcbnew,9.0.7*%
%TF.CreationDate,2026-02-01T23:57:56+00:00*%
%TF.ProjectId,ASCEO,41534345-4f2e-46b6-9963-61645f706362,rev?*%
%TF.SameCoordinates,Original*%
%TF.FileFunction,Legend,Top*%
%TF.FilePolarity,Positive*%
%FSLAX46Y46*%
G04 Gerber Fmt 4.6, Leading zero omitted, Abs format (unit mm)*
G04 Created by KiCad (PCBNEW 9.0.7) date 2026-02-01 23:57:56*
%MOMM*%
%LPD*%
G01*
G04 APERTURE LIST*
%ADD10C,0.200000*%
%ADD11C,0.500000*%
%ADD12C,0.150000*%
%ADD13C,0.120000*%
%ADD14C,0.127000*%
%ADD15C,0.152400*%
%ADD16C,0.000000*%
G04 APERTURE END LIST*
D10*
G36*
X126791659Y-129834035D02*
G01*
X127093544Y-129368295D01*
X126992226Y-129362427D01*
X126950173Y-129350160D01*
X126910212Y-129320711D01*
X126888645Y-129291962D01*
X126881785Y-129262782D01*
X126892764Y-129219714D01*
X126924772Y-129186486D01*
X126977089Y-129165702D01*
X127068997Y-129157269D01*
X127452825Y-129157269D01*
X127544713Y-129165706D01*
X127596928Y-129186486D01*
X127629031Y-129219722D01*
X127640037Y-129262782D01*
X127629036Y-129305858D01*
X127596928Y-129339169D01*
X127544726Y-129359881D01*
X127452825Y-129368295D01*
X127406419Y-129368295D01*
X126937839Y-130089300D01*
X126645358Y-130089300D01*
X126176778Y-129368295D01*
X126137211Y-129368295D01*
X126045290Y-129359885D01*
X125992985Y-129339169D01*
X125960973Y-129305865D01*
X125949999Y-129262782D01*
X125960977Y-129219714D01*
X125992985Y-129186486D01*
X126045303Y-129165702D01*
X126137211Y-129157269D01*
X126512856Y-129157269D01*
X126603559Y-129165677D01*
X126655616Y-129186486D01*
X126687720Y-129219722D01*
X126698725Y-129262782D01*
X126683561Y-129306240D01*
X126633146Y-129348877D01*
X126589515Y-129362067D01*
X126486966Y-129368295D01*
X126791659Y-129834035D01*
G37*
G36*
X128610780Y-128729355D02*
G01*
X128610780Y-129878274D01*
X128893613Y-129878274D01*
X128985502Y-129886711D01*
X129037717Y-129907491D01*
X129069725Y-129940719D01*
X129080703Y-129983787D01*
X129069729Y-130026870D01*
X129037717Y-130060174D01*
X128985515Y-130080886D01*
X128893613Y-130089300D01*
X128047922Y-130089300D01*
X127956001Y-130080889D01*
X127903697Y-130060174D01*
X127871685Y-130026870D01*
X127860710Y-129983787D01*
X127871689Y-129940719D01*
X127903697Y-129907491D01*
X127956015Y-129886707D01*
X128047922Y-129878274D01*
X128330634Y-129878274D01*
X128330634Y-129006968D01*
X128080651Y-129056885D01*
X127990525Y-129069341D01*
X127941369Y-129061461D01*
X127898324Y-129037101D01*
X127869289Y-129001589D01*
X127859367Y-128958058D01*
X127867050Y-128918839D01*
X127888065Y-128891014D01*
X127926364Y-128870265D01*
X128008233Y-128847874D01*
X128610780Y-128729355D01*
G37*
G36*
X130360292Y-129983787D02*
G01*
X130346174Y-130039065D01*
X130304238Y-130084170D01*
X130263892Y-130105914D01*
X130213398Y-130119563D01*
X130149876Y-130124470D01*
X130086353Y-130119565D01*
X130035813Y-130105917D01*
X129995393Y-130084170D01*
X129953552Y-130039072D01*
X129939461Y-129983787D01*
X129953556Y-129928517D01*
X129995393Y-129883494D01*
X130035823Y-129861695D01*
X130086362Y-129848018D01*
X130149876Y-129843103D01*
X130213388Y-129848020D01*
X130263883Y-129861698D01*
X130304238Y-129883494D01*
X130346170Y-129928525D01*
X130360292Y-129983787D01*
G37*
G36*
X131932763Y-128735953D02*
G01*
X132026751Y-128754687D01*
X132107605Y-128784676D01*
X132177909Y-128827211D01*
X132251961Y-128893424D01*
X132330354Y-128989932D01*
X132389307Y-129092295D01*
X132424435Y-129198152D01*
X132436234Y-129308852D01*
X132436234Y-129539112D01*
X132426565Y-129639440D01*
X132397559Y-129737633D01*
X132348635Y-129834645D01*
X132278453Y-129931305D01*
X132208252Y-130000066D01*
X132129419Y-130051740D01*
X132041020Y-130088378D01*
X131941124Y-130110817D01*
X131826970Y-130118609D01*
X131716152Y-130111945D01*
X131621705Y-130093047D01*
X131540717Y-130062830D01*
X131470527Y-130019964D01*
X131396940Y-129953567D01*
X131319433Y-129857116D01*
X131261203Y-129754757D01*
X131226532Y-129649192D01*
X131214897Y-129539112D01*
X131214897Y-129309127D01*
X131494922Y-129309127D01*
X131494922Y-129538837D01*
X131509673Y-129649994D01*
X131552523Y-129748534D01*
X131623393Y-129837149D01*
X131676826Y-129875879D01*
X131743300Y-129899296D01*
X131826970Y-129907583D01*
X131905763Y-129898957D01*
X131973513Y-129873631D01*
X132033233Y-129830005D01*
X132099605Y-129747430D01*
X132140522Y-129651486D01*
X132154866Y-129538837D01*
X132154866Y-129309127D01*
X132140307Y-129198559D01*
X132097930Y-129099980D01*
X132027738Y-129010815D01*
X131973535Y-128971994D01*
X131906985Y-128948615D01*
X131824161Y-128940381D01*
X131744482Y-128949039D01*
X131676309Y-128974397D01*
X131616555Y-129017959D01*
X131550182Y-129100534D01*
X131509266Y-129196478D01*
X131494922Y-129309127D01*
X131214897Y-129309127D01*
X131214897Y-129308852D01*
X131224501Y-129209037D01*
X131253340Y-129111100D01*
X131302034Y-129014098D01*
X131371945Y-128917209D01*
X131441948Y-128848224D01*
X131520621Y-128796402D01*
X131608891Y-128759667D01*
X131708697Y-128737169D01*
X131822818Y-128729355D01*
X131932763Y-128735953D01*
G37*
D11*
G36*
X124781907Y-127112248D02*
G01*
X124915528Y-127124183D01*
X124976447Y-127150350D01*
X125048829Y-127235916D01*
X125070785Y-127323274D01*
X125054525Y-127409518D01*
X125007221Y-127476048D01*
X124929843Y-127517429D01*
X124792165Y-127534300D01*
X124226499Y-127534300D01*
X124088617Y-127517479D01*
X124010161Y-127476048D01*
X123962143Y-127409441D01*
X123945681Y-127323274D01*
X123962149Y-127237139D01*
X124010161Y-127170683D01*
X124088637Y-127129115D01*
X124226499Y-127112248D01*
X124328898Y-127112248D01*
X124228514Y-126842604D01*
X123208006Y-126842604D01*
X123105424Y-127112248D01*
X123208006Y-127112248D01*
X123345839Y-127129122D01*
X123424161Y-127170683D01*
X123472316Y-127237154D01*
X123488825Y-127323274D01*
X123472323Y-127409426D01*
X123424161Y-127476048D01*
X123345859Y-127517472D01*
X123208006Y-127534300D01*
X122642340Y-127534300D01*
X122504487Y-127517472D01*
X122426185Y-127476048D01*
X122378024Y-127409426D01*
X122361522Y-127323274D01*
X122378708Y-127237415D01*
X122429299Y-127170683D01*
X122510716Y-127129117D01*
X122652598Y-127112248D01*
X122930666Y-126420552D01*
X123375984Y-126420552D01*
X124054308Y-126420552D01*
X123716154Y-125603743D01*
X123375984Y-126420552D01*
X122930666Y-126420552D01*
X123312420Y-125470936D01*
X123037830Y-125470936D01*
X122899978Y-125454109D01*
X122821675Y-125412684D01*
X122773657Y-125346078D01*
X122757195Y-125259910D01*
X122773663Y-125173775D01*
X122821675Y-125107319D01*
X122899997Y-125065759D01*
X123037830Y-125048884D01*
X123945681Y-125048884D01*
X124781907Y-127112248D01*
G37*
G36*
X125619050Y-127428787D02*
G01*
X125529840Y-127515432D01*
X125446858Y-127534300D01*
X125359129Y-127517715D01*
X125292253Y-127469636D01*
X125250637Y-127391354D01*
X125233818Y-127254947D01*
X125233818Y-126971564D01*
X125250695Y-126833379D01*
X125292253Y-126754860D01*
X125359154Y-126706789D01*
X125447042Y-126690196D01*
X125515945Y-126700404D01*
X125570873Y-126729580D01*
X125613072Y-126778516D01*
X125647626Y-126860922D01*
X125677722Y-126944433D01*
X125703130Y-126986035D01*
X125776797Y-127045183D01*
X125914156Y-127116461D01*
X126071260Y-127165705D01*
X126246265Y-127182590D01*
X126429250Y-127166721D01*
X126580924Y-127122140D01*
X126707335Y-127051248D01*
X126773095Y-126991361D01*
X126809840Y-126926637D01*
X126822007Y-126854327D01*
X126808611Y-126779927D01*
X126766686Y-126707782D01*
X126698743Y-126647929D01*
X126586434Y-126593842D01*
X126479010Y-126563343D01*
X126219521Y-126509762D01*
X125898146Y-126433737D01*
X125699100Y-126355889D01*
X125589171Y-126286982D01*
X125496783Y-126202494D01*
X125420297Y-126101266D01*
X125363182Y-125988174D01*
X125329290Y-125870369D01*
X125317898Y-125745892D01*
X125333293Y-125601268D01*
X125379012Y-125466807D01*
X125456506Y-125339465D01*
X125569957Y-125217229D01*
X125701853Y-125120066D01*
X125852594Y-125049582D01*
X126025702Y-125005667D01*
X126225749Y-124990266D01*
X126384157Y-124999246D01*
X126525984Y-125025071D01*
X126658899Y-125069284D01*
X126776944Y-125130950D01*
X126862623Y-125067566D01*
X126940892Y-125048884D01*
X127025137Y-125065326D01*
X127091468Y-125113731D01*
X127133080Y-125192210D01*
X127149903Y-125328970D01*
X127149903Y-125646058D01*
X127133021Y-125784596D01*
X127091468Y-125863312D01*
X127025137Y-125911717D01*
X126940892Y-125928159D01*
X126867700Y-125916334D01*
X126805520Y-125881447D01*
X126768975Y-125835426D01*
X126737926Y-125743511D01*
X126709914Y-125648490D01*
X126680590Y-125595133D01*
X126609664Y-125526539D01*
X126502354Y-125465257D01*
X126377347Y-125426155D01*
X126227764Y-125412318D01*
X126079472Y-125425400D01*
X125961670Y-125461512D01*
X125867994Y-125518014D01*
X125790171Y-125594996D01*
X125748844Y-125667439D01*
X125735920Y-125738382D01*
X125748958Y-125813680D01*
X125790142Y-125889324D01*
X125854931Y-125952596D01*
X125948961Y-126003080D01*
X126049662Y-126032778D01*
X126341337Y-126095404D01*
X126644317Y-126167073D01*
X126837394Y-126234989D01*
X126945738Y-126294869D01*
X127041260Y-126373730D01*
X127125173Y-126473309D01*
X127188138Y-126586242D01*
X127226661Y-126713723D01*
X127240028Y-126859273D01*
X127225558Y-127011381D01*
X127184049Y-127142719D01*
X127116378Y-127257421D01*
X127020759Y-127358261D01*
X126869236Y-127463809D01*
X126697682Y-127540378D01*
X126502446Y-127587994D01*
X126278872Y-127604641D01*
X126106554Y-127593598D01*
X125939618Y-127560678D01*
X125777950Y-127506095D01*
X125619050Y-127428787D01*
G37*
G36*
X129409454Y-125166121D02*
G01*
X129451607Y-125113397D01*
X129494451Y-125078193D01*
X129542556Y-125056165D01*
X129593919Y-125048884D01*
X129678285Y-125065005D01*
X129744494Y-125112265D01*
X129786018Y-125189642D01*
X129802930Y-125327138D01*
X129802930Y-125683061D01*
X129786066Y-125820570D01*
X129744494Y-125898849D01*
X129678194Y-125946968D01*
X129593919Y-125963330D01*
X129516329Y-125951150D01*
X129458547Y-125916984D01*
X129417175Y-125857458D01*
X129382710Y-125743328D01*
X129360081Y-125665541D01*
X129325374Y-125612169D01*
X129228483Y-125532833D01*
X129090534Y-125466906D01*
X128938686Y-125425785D01*
X128788284Y-125412318D01*
X128606215Y-125433125D01*
X128441886Y-125494383D01*
X128344130Y-125557872D01*
X128251422Y-125645507D01*
X128163266Y-125761096D01*
X128097209Y-125889087D01*
X128056528Y-126034115D01*
X128042366Y-126200001D01*
X128042366Y-126472759D01*
X128056509Y-126620186D01*
X128097648Y-126751770D01*
X128165647Y-126870828D01*
X128262734Y-126979624D01*
X128377965Y-127065120D01*
X128515254Y-127128246D01*
X128678943Y-127168311D01*
X128874563Y-127182590D01*
X129097725Y-127165316D01*
X129270053Y-127118476D01*
X129361983Y-127067083D01*
X129470820Y-126971564D01*
X129573219Y-126885835D01*
X129657483Y-126866051D01*
X129735611Y-126881738D01*
X129804945Y-126929982D01*
X129852780Y-126999976D01*
X129868509Y-127080557D01*
X129849290Y-127165213D01*
X129782413Y-127266304D01*
X129641738Y-127393656D01*
X129460745Y-127493267D01*
X129281327Y-127554337D01*
X129087387Y-127591789D01*
X128876578Y-127604641D01*
X128631732Y-127586871D01*
X128408838Y-127535156D01*
X128204299Y-127450585D01*
X128054333Y-127355119D01*
X127917325Y-127226893D01*
X127792322Y-127061506D01*
X127697609Y-126878132D01*
X127641302Y-126685817D01*
X127622329Y-126481185D01*
X127622329Y-126195788D01*
X127639460Y-125980545D01*
X127690203Y-125777156D01*
X127774920Y-125582860D01*
X127890992Y-125406275D01*
X128031457Y-125261101D01*
X128198254Y-125144322D01*
X128383524Y-125058279D01*
X128573934Y-125007320D01*
X128772164Y-124990266D01*
X128950701Y-125001393D01*
X129113249Y-125033680D01*
X129266811Y-125088543D01*
X129409454Y-125166121D01*
G37*
G36*
X130836810Y-126502618D02*
G01*
X130836810Y-127112248D01*
X131908608Y-127112248D01*
X131908608Y-126889498D01*
X131925498Y-126751181D01*
X131967043Y-126672794D01*
X132033640Y-126624624D01*
X132119634Y-126608131D01*
X132204020Y-126624547D01*
X132270210Y-126672794D01*
X132311755Y-126751181D01*
X132328645Y-126889498D01*
X132328645Y-127534300D01*
X130351011Y-127534300D01*
X130213158Y-127517472D01*
X130134856Y-127476048D01*
X130086837Y-127409441D01*
X130070376Y-127323274D01*
X130087084Y-127237231D01*
X130135955Y-127170683D01*
X130214943Y-127129016D01*
X130351011Y-127112248D01*
X130416590Y-127112248D01*
X130416590Y-125470936D01*
X130351011Y-125470936D01*
X130213158Y-125454109D01*
X130134856Y-125412684D01*
X130086837Y-125346078D01*
X130070376Y-125259910D01*
X130086843Y-125173775D01*
X130134856Y-125107319D01*
X130213178Y-125065759D01*
X130351011Y-125048884D01*
X132236504Y-125050899D01*
X132236504Y-125693685D01*
X132219857Y-125832131D01*
X132178985Y-125910573D01*
X132113308Y-125958563D01*
X132027493Y-125975053D01*
X131941326Y-125958591D01*
X131874720Y-125910573D01*
X131833167Y-125832032D01*
X131816284Y-125693685D01*
X131816284Y-125470936D01*
X130836810Y-125470936D01*
X130836810Y-126080566D01*
X131205738Y-126080566D01*
X131215787Y-125942845D01*
X131236513Y-125887126D01*
X131284449Y-125838466D01*
X131343346Y-125809402D01*
X131416764Y-125799198D01*
X131501025Y-125815600D01*
X131567340Y-125863862D01*
X131608885Y-125942248D01*
X131625775Y-126080566D01*
X131625775Y-126502618D01*
X131615159Y-126640325D01*
X131592985Y-126697340D01*
X131543994Y-126745666D01*
X131486238Y-126774139D01*
X131416764Y-126783985D01*
X131343346Y-126773782D01*
X131284449Y-126744718D01*
X131236513Y-126696058D01*
X131215787Y-126640338D01*
X131205738Y-126502618D01*
X130836810Y-126502618D01*
G37*
G36*
X133968004Y-125004973D02*
G01*
X134138720Y-125048503D01*
X134301373Y-125121174D01*
X134457903Y-125224890D01*
X134609629Y-125363042D01*
X134736902Y-125518702D01*
X134835352Y-125687817D01*
X134906398Y-125872323D01*
X134950107Y-126074840D01*
X134965185Y-126298553D01*
X134950131Y-126521285D01*
X134906468Y-126723123D01*
X134835456Y-126907218D01*
X134736993Y-127076162D01*
X134609629Y-127231866D01*
X134457903Y-127370017D01*
X134301373Y-127473733D01*
X134138720Y-127546404D01*
X133968004Y-127589934D01*
X133786775Y-127604641D01*
X133583524Y-127585577D01*
X133391503Y-127528855D01*
X133207354Y-127433148D01*
X133028584Y-127294514D01*
X132878324Y-127132104D01*
X132762718Y-126954014D01*
X132679501Y-126758018D01*
X132628280Y-126540884D01*
X132610562Y-126298553D01*
X133030599Y-126298553D01*
X133045943Y-126486292D01*
X133090128Y-126651876D01*
X133161913Y-126799219D01*
X133262141Y-126931264D01*
X133386893Y-127045053D01*
X133514473Y-127122274D01*
X133646816Y-127167480D01*
X133786775Y-127182590D01*
X133927941Y-127167487D01*
X134061017Y-127122371D01*
X134188864Y-127045462D01*
X134313423Y-126932363D01*
X134413605Y-126800863D01*
X134485454Y-126653577D01*
X134529745Y-126487480D01*
X134545149Y-126298553D01*
X134529761Y-126109643D01*
X134485491Y-125943345D01*
X134413641Y-125795677D01*
X134313423Y-125663644D01*
X134188797Y-125549998D01*
X134060932Y-125472761D01*
X133927883Y-125427475D01*
X133786775Y-125412318D01*
X133646874Y-125427480D01*
X133514557Y-125472858D01*
X133386960Y-125550406D01*
X133262141Y-125664743D01*
X133161891Y-125797230D01*
X133090105Y-125944918D01*
X133045933Y-126110730D01*
X133030599Y-126298553D01*
X132610562Y-126298553D01*
X132628258Y-126056276D01*
X132679441Y-125838909D01*
X132762639Y-125642441D01*
X132878264Y-125463671D01*
X133028584Y-125300393D01*
X133207354Y-125161760D01*
X133391503Y-125066052D01*
X133583524Y-125009330D01*
X133786775Y-124990266D01*
X133968004Y-125004973D01*
G37*
D12*
X138204818Y-95006204D02*
X139014341Y-95006204D01*
X139014341Y-95006204D02*
X139109579Y-94958585D01*
X139109579Y-94958585D02*
X139157199Y-94910966D01*
X139157199Y-94910966D02*
X139204818Y-94815728D01*
X139204818Y-94815728D02*
X139204818Y-94625252D01*
X139204818Y-94625252D02*
X139157199Y-94530014D01*
X139157199Y-94530014D02*
X139109579Y-94482395D01*
X139109579Y-94482395D02*
X139014341Y-94434776D01*
X139014341Y-94434776D02*
X138204818Y-94434776D01*
X139204818Y-93434776D02*
X139204818Y-94006204D01*
X139204818Y-93720490D02*
X138204818Y-93720490D01*
X138204818Y-93720490D02*
X138347675Y-93815728D01*
X138347675Y-93815728D02*
X138442913Y-93910966D01*
X138442913Y-93910966D02*
X138490532Y-94006204D01*
X140338094Y-115799119D02*
X140338094Y-116608642D01*
X140338094Y-116608642D02*
X140385713Y-116703880D01*
X140385713Y-116703880D02*
X140433332Y-116751500D01*
X140433332Y-116751500D02*
X140528570Y-116799119D01*
X140528570Y-116799119D02*
X140719046Y-116799119D01*
X140719046Y-116799119D02*
X140814284Y-116751500D01*
X140814284Y-116751500D02*
X140861903Y-116703880D01*
X140861903Y-116703880D02*
X140909522Y-116608642D01*
X140909522Y-116608642D02*
X140909522Y-115799119D01*
X141338094Y-115894357D02*
X141385713Y-115846738D01*
X141385713Y-115846738D02*
X141480951Y-115799119D01*
X141480951Y-115799119D02*
X141719046Y-115799119D01*
X141719046Y-115799119D02*
X141814284Y-115846738D01*
X141814284Y-115846738D02*
X141861903Y-115894357D01*
X141861903Y-115894357D02*
X141909522Y-115989595D01*
X141909522Y-115989595D02*
X141909522Y-116084833D01*
X141909522Y-116084833D02*
X141861903Y-116227690D01*
X141861903Y-116227690D02*
X141290475Y-116799119D01*
X141290475Y-116799119D02*
X141909522Y-116799119D01*
X125911904Y-118099119D02*
X125911904Y-117099119D01*
X125911904Y-117099119D02*
X126149999Y-117099119D01*
X126149999Y-117099119D02*
X126292856Y-117146738D01*
X126292856Y-117146738D02*
X126388094Y-117241976D01*
X126388094Y-117241976D02*
X126435713Y-117337214D01*
X126435713Y-117337214D02*
X126483332Y-117527690D01*
X126483332Y-117527690D02*
X126483332Y-117670547D01*
X126483332Y-117670547D02*
X126435713Y-117861023D01*
X126435713Y-117861023D02*
X126388094Y-117956261D01*
X126388094Y-117956261D02*
X126292856Y-118051500D01*
X126292856Y-118051500D02*
X126149999Y-118099119D01*
X126149999Y-118099119D02*
X125911904Y-118099119D01*
X126816666Y-117099119D02*
X127483332Y-117099119D01*
X127483332Y-117099119D02*
X127054761Y-118099119D01*
X162883332Y-128903880D02*
X162835713Y-128951500D01*
X162835713Y-128951500D02*
X162692856Y-128999119D01*
X162692856Y-128999119D02*
X162597618Y-128999119D01*
X162597618Y-128999119D02*
X162454761Y-128951500D01*
X162454761Y-128951500D02*
X162359523Y-128856261D01*
X162359523Y-128856261D02*
X162311904Y-128761023D01*
X162311904Y-128761023D02*
X162264285Y-128570547D01*
X162264285Y-128570547D02*
X162264285Y-128427690D01*
X162264285Y-128427690D02*
X162311904Y-128237214D01*
X162311904Y-128237214D02*
X162359523Y-128141976D01*
X162359523Y-128141976D02*
X162454761Y-128046738D01*
X162454761Y-128046738D02*
X162597618Y-127999119D01*
X162597618Y-127999119D02*
X162692856Y-127999119D01*
X162692856Y-127999119D02*
X162835713Y-128046738D01*
X162835713Y-128046738D02*
X162883332Y-128094357D01*
X163740475Y-127999119D02*
X163549999Y-127999119D01*
X163549999Y-127999119D02*
X163454761Y-128046738D01*
X163454761Y-128046738D02*
X163407142Y-128094357D01*
X163407142Y-128094357D02*
X163311904Y-128237214D01*
X163311904Y-128237214D02*
X163264285Y-128427690D01*
X163264285Y-128427690D02*
X163264285Y-128808642D01*
X163264285Y-128808642D02*
X163311904Y-128903880D01*
X163311904Y-128903880D02*
X163359523Y-128951500D01*
X163359523Y-128951500D02*
X163454761Y-128999119D01*
X163454761Y-128999119D02*
X163645237Y-128999119D01*
X163645237Y-128999119D02*
X163740475Y-128951500D01*
X163740475Y-128951500D02*
X163788094Y-128903880D01*
X163788094Y-128903880D02*
X163835713Y-128808642D01*
X163835713Y-128808642D02*
X163835713Y-128570547D01*
X163835713Y-128570547D02*
X163788094Y-128475309D01*
X163788094Y-128475309D02*
X163740475Y-128427690D01*
X163740475Y-128427690D02*
X163645237Y-128380071D01*
X163645237Y-128380071D02*
X163454761Y-128380071D01*
X163454761Y-128380071D02*
X163359523Y-128427690D01*
X163359523Y-128427690D02*
X163311904Y-128475309D01*
X163311904Y-128475309D02*
X163264285Y-128570547D01*
X152783332Y-122103880D02*
X152735713Y-122151500D01*
X152735713Y-122151500D02*
X152592856Y-122199119D01*
X152592856Y-122199119D02*
X152497618Y-122199119D01*
X152497618Y-122199119D02*
X152354761Y-122151500D01*
X152354761Y-122151500D02*
X152259523Y-122056261D01*
X152259523Y-122056261D02*
X152211904Y-121961023D01*
X152211904Y-121961023D02*
X152164285Y-121770547D01*
X152164285Y-121770547D02*
X152164285Y-121627690D01*
X152164285Y-121627690D02*
X152211904Y-121437214D01*
X152211904Y-121437214D02*
X152259523Y-121341976D01*
X152259523Y-121341976D02*
X152354761Y-121246738D01*
X152354761Y-121246738D02*
X152497618Y-121199119D01*
X152497618Y-121199119D02*
X152592856Y-121199119D01*
X152592856Y-121199119D02*
X152735713Y-121246738D01*
X152735713Y-121246738D02*
X152783332Y-121294357D01*
X153640475Y-121532452D02*
X153640475Y-122199119D01*
X153402380Y-121151500D02*
X153164285Y-121865785D01*
X153164285Y-121865785D02*
X153783332Y-121865785D01*
X172859523Y-78306595D02*
X172859523Y-77506595D01*
X172859523Y-77506595D02*
X173049999Y-77506595D01*
X173049999Y-77506595D02*
X173164285Y-77544690D01*
X173164285Y-77544690D02*
X173240475Y-77620880D01*
X173240475Y-77620880D02*
X173278570Y-77697071D01*
X173278570Y-77697071D02*
X173316666Y-77849452D01*
X173316666Y-77849452D02*
X173316666Y-77963738D01*
X173316666Y-77963738D02*
X173278570Y-78116119D01*
X173278570Y-78116119D02*
X173240475Y-78192309D01*
X173240475Y-78192309D02*
X173164285Y-78268500D01*
X173164285Y-78268500D02*
X173049999Y-78306595D01*
X173049999Y-78306595D02*
X172859523Y-78306595D01*
X174040475Y-77506595D02*
X173659523Y-77506595D01*
X173659523Y-77506595D02*
X173621427Y-77887547D01*
X173621427Y-77887547D02*
X173659523Y-77849452D01*
X173659523Y-77849452D02*
X173735713Y-77811357D01*
X173735713Y-77811357D02*
X173926189Y-77811357D01*
X173926189Y-77811357D02*
X174002380Y-77849452D01*
X174002380Y-77849452D02*
X174040475Y-77887547D01*
X174040475Y-77887547D02*
X174078570Y-77963738D01*
X174078570Y-77963738D02*
X174078570Y-78154214D01*
X174078570Y-78154214D02*
X174040475Y-78230404D01*
X174040475Y-78230404D02*
X174002380Y-78268500D01*
X174002380Y-78268500D02*
X173926189Y-78306595D01*
X173926189Y-78306595D02*
X173735713Y-78306595D01*
X173735713Y-78306595D02*
X173659523Y-78268500D01*
X173659523Y-78268500D02*
X173621427Y-78230404D01*
X172559523Y-124506595D02*
X172559523Y-123706595D01*
X172559523Y-123706595D02*
X172749999Y-123706595D01*
X172749999Y-123706595D02*
X172864285Y-123744690D01*
X172864285Y-123744690D02*
X172940475Y-123820880D01*
X172940475Y-123820880D02*
X172978570Y-123897071D01*
X172978570Y-123897071D02*
X173016666Y-124049452D01*
X173016666Y-124049452D02*
X173016666Y-124163738D01*
X173016666Y-124163738D02*
X172978570Y-124316119D01*
X172978570Y-124316119D02*
X172940475Y-124392309D01*
X172940475Y-124392309D02*
X172864285Y-124468500D01*
X172864285Y-124468500D02*
X172749999Y-124506595D01*
X172749999Y-124506595D02*
X172559523Y-124506595D01*
X173702380Y-123973261D02*
X173702380Y-124506595D01*
X173511904Y-123668500D02*
X173321427Y-124239928D01*
X173321427Y-124239928D02*
X173816666Y-124239928D01*
X138270832Y-114829119D02*
X137937499Y-114352928D01*
X137699404Y-114829119D02*
X137699404Y-113829119D01*
X137699404Y-113829119D02*
X138080356Y-113829119D01*
X138080356Y-113829119D02*
X138175594Y-113876738D01*
X138175594Y-113876738D02*
X138223213Y-113924357D01*
X138223213Y-113924357D02*
X138270832Y-114019595D01*
X138270832Y-114019595D02*
X138270832Y-114162452D01*
X138270832Y-114162452D02*
X138223213Y-114257690D01*
X138223213Y-114257690D02*
X138175594Y-114305309D01*
X138175594Y-114305309D02*
X138080356Y-114352928D01*
X138080356Y-114352928D02*
X137699404Y-114352928D01*
X138651785Y-113924357D02*
X138699404Y-113876738D01*
X138699404Y-113876738D02*
X138794642Y-113829119D01*
X138794642Y-113829119D02*
X139032737Y-113829119D01*
X139032737Y-113829119D02*
X139127975Y-113876738D01*
X139127975Y-113876738D02*
X139175594Y-113924357D01*
X139175594Y-113924357D02*
X139223213Y-114019595D01*
X139223213Y-114019595D02*
X139223213Y-114114833D01*
X139223213Y-114114833D02*
X139175594Y-114257690D01*
X139175594Y-114257690D02*
X138604166Y-114829119D01*
X138604166Y-114829119D02*
X139223213Y-114829119D01*
X130483332Y-120603880D02*
X130435713Y-120651500D01*
X130435713Y-120651500D02*
X130292856Y-120699119D01*
X130292856Y-120699119D02*
X130197618Y-120699119D01*
X130197618Y-120699119D02*
X130054761Y-120651500D01*
X130054761Y-120651500D02*
X129959523Y-120556261D01*
X129959523Y-120556261D02*
X129911904Y-120461023D01*
X129911904Y-120461023D02*
X129864285Y-120270547D01*
X129864285Y-120270547D02*
X129864285Y-120127690D01*
X129864285Y-120127690D02*
X129911904Y-119937214D01*
X129911904Y-119937214D02*
X129959523Y-119841976D01*
X129959523Y-119841976D02*
X130054761Y-119746738D01*
X130054761Y-119746738D02*
X130197618Y-119699119D01*
X130197618Y-119699119D02*
X130292856Y-119699119D01*
X130292856Y-119699119D02*
X130435713Y-119746738D01*
X130435713Y-119746738D02*
X130483332Y-119794357D01*
X130816666Y-119699119D02*
X131483332Y-119699119D01*
X131483332Y-119699119D02*
X131054761Y-120699119D01*
X128483332Y-79199119D02*
X128149999Y-78722928D01*
X127911904Y-79199119D02*
X127911904Y-78199119D01*
X127911904Y-78199119D02*
X128292856Y-78199119D01*
X128292856Y-78199119D02*
X128388094Y-78246738D01*
X128388094Y-78246738D02*
X128435713Y-78294357D01*
X128435713Y-78294357D02*
X128483332Y-78389595D01*
X128483332Y-78389595D02*
X128483332Y-78532452D01*
X128483332Y-78532452D02*
X128435713Y-78627690D01*
X128435713Y-78627690D02*
X128388094Y-78675309D01*
X128388094Y-78675309D02*
X128292856Y-78722928D01*
X128292856Y-78722928D02*
X127911904Y-78722928D01*
X129435713Y-79199119D02*
X128864285Y-79199119D01*
X129149999Y-79199119D02*
X129149999Y-78199119D01*
X129149999Y-78199119D02*
X129054761Y-78341976D01*
X129054761Y-78341976D02*
X128959523Y-78437214D01*
X128959523Y-78437214D02*
X128864285Y-78484833D01*
X137586904Y-109249119D02*
X137586904Y-108249119D01*
X137586904Y-108249119D02*
X137824999Y-108249119D01*
X137824999Y-108249119D02*
X137967856Y-108296738D01*
X137967856Y-108296738D02*
X138063094Y-108391976D01*
X138063094Y-108391976D02*
X138110713Y-108487214D01*
X138110713Y-108487214D02*
X138158332Y-108677690D01*
X138158332Y-108677690D02*
X138158332Y-108820547D01*
X138158332Y-108820547D02*
X138110713Y-109011023D01*
X138110713Y-109011023D02*
X138063094Y-109106261D01*
X138063094Y-109106261D02*
X137967856Y-109201500D01*
X137967856Y-109201500D02*
X137824999Y-109249119D01*
X137824999Y-109249119D02*
X137586904Y-109249119D01*
X139015475Y-108249119D02*
X138824999Y-108249119D01*
X138824999Y-108249119D02*
X138729761Y-108296738D01*
X138729761Y-108296738D02*
X138682142Y-108344357D01*
X138682142Y-108344357D02*
X138586904Y-108487214D01*
X138586904Y-108487214D02*
X138539285Y-108677690D01*
X138539285Y-108677690D02*
X138539285Y-109058642D01*
X138539285Y-109058642D02*
X138586904Y-109153880D01*
X138586904Y-109153880D02*
X138634523Y-109201500D01*
X138634523Y-109201500D02*
X138729761Y-109249119D01*
X138729761Y-109249119D02*
X138920237Y-109249119D01*
X138920237Y-109249119D02*
X139015475Y-109201500D01*
X139015475Y-109201500D02*
X139063094Y-109153880D01*
X139063094Y-109153880D02*
X139110713Y-109058642D01*
X139110713Y-109058642D02*
X139110713Y-108820547D01*
X139110713Y-108820547D02*
X139063094Y-108725309D01*
X139063094Y-108725309D02*
X139015475Y-108677690D01*
X139015475Y-108677690D02*
X138920237Y-108630071D01*
X138920237Y-108630071D02*
X138729761Y-108630071D01*
X138729761Y-108630071D02*
X138634523Y-108677690D01*
X138634523Y-108677690D02*
X138586904Y-108725309D01*
X138586904Y-108725309D02*
X138539285Y-108820547D01*
X166411904Y-76299119D02*
X166411904Y-75299119D01*
X166411904Y-75299119D02*
X166649999Y-75299119D01*
X166649999Y-75299119D02*
X166792856Y-75346738D01*
X166792856Y-75346738D02*
X166888094Y-75441976D01*
X166888094Y-75441976D02*
X166935713Y-75537214D01*
X166935713Y-75537214D02*
X166983332Y-75727690D01*
X166983332Y-75727690D02*
X166983332Y-75870547D01*
X166983332Y-75870547D02*
X166935713Y-76061023D01*
X166935713Y-76061023D02*
X166888094Y-76156261D01*
X166888094Y-76156261D02*
X166792856Y-76251500D01*
X166792856Y-76251500D02*
X166649999Y-76299119D01*
X166649999Y-76299119D02*
X166411904Y-76299119D01*
X167554761Y-75727690D02*
X167459523Y-75680071D01*
X167459523Y-75680071D02*
X167411904Y-75632452D01*
X167411904Y-75632452D02*
X167364285Y-75537214D01*
X167364285Y-75537214D02*
X167364285Y-75489595D01*
X167364285Y-75489595D02*
X167411904Y-75394357D01*
X167411904Y-75394357D02*
X167459523Y-75346738D01*
X167459523Y-75346738D02*
X167554761Y-75299119D01*
X167554761Y-75299119D02*
X167745237Y-75299119D01*
X167745237Y-75299119D02*
X167840475Y-75346738D01*
X167840475Y-75346738D02*
X167888094Y-75394357D01*
X167888094Y-75394357D02*
X167935713Y-75489595D01*
X167935713Y-75489595D02*
X167935713Y-75537214D01*
X167935713Y-75537214D02*
X167888094Y-75632452D01*
X167888094Y-75632452D02*
X167840475Y-75680071D01*
X167840475Y-75680071D02*
X167745237Y-75727690D01*
X167745237Y-75727690D02*
X167554761Y-75727690D01*
X167554761Y-75727690D02*
X167459523Y-75775309D01*
X167459523Y-75775309D02*
X167411904Y-75822928D01*
X167411904Y-75822928D02*
X167364285Y-75918166D01*
X167364285Y-75918166D02*
X167364285Y-76108642D01*
X167364285Y-76108642D02*
X167411904Y-76203880D01*
X167411904Y-76203880D02*
X167459523Y-76251500D01*
X167459523Y-76251500D02*
X167554761Y-76299119D01*
X167554761Y-76299119D02*
X167745237Y-76299119D01*
X167745237Y-76299119D02*
X167840475Y-76251500D01*
X167840475Y-76251500D02*
X167888094Y-76203880D01*
X167888094Y-76203880D02*
X167935713Y-76108642D01*
X167935713Y-76108642D02*
X167935713Y-75918166D01*
X167935713Y-75918166D02*
X167888094Y-75822928D01*
X167888094Y-75822928D02*
X167840475Y-75775309D01*
X167840475Y-75775309D02*
X167745237Y-75727690D01*
X121804818Y-84496681D02*
X121328627Y-84830014D01*
X121804818Y-85068109D02*
X120804818Y-85068109D01*
X120804818Y-85068109D02*
X120804818Y-84687157D01*
X120804818Y-84687157D02*
X120852437Y-84591919D01*
X120852437Y-84591919D02*
X120900056Y-84544300D01*
X120900056Y-84544300D02*
X120995294Y-84496681D01*
X120995294Y-84496681D02*
X121138151Y-84496681D01*
X121138151Y-84496681D02*
X121233389Y-84544300D01*
X121233389Y-84544300D02*
X121281008Y-84591919D01*
X121281008Y-84591919D02*
X121328627Y-84687157D01*
X121328627Y-84687157D02*
X121328627Y-85068109D01*
X121281008Y-84068109D02*
X121281008Y-83734776D01*
X121804818Y-83591919D02*
X121804818Y-84068109D01*
X121804818Y-84068109D02*
X120804818Y-84068109D01*
X120804818Y-84068109D02*
X120804818Y-83591919D01*
X121757199Y-83210966D02*
X121804818Y-83068109D01*
X121804818Y-83068109D02*
X121804818Y-82830014D01*
X121804818Y-82830014D02*
X121757199Y-82734776D01*
X121757199Y-82734776D02*
X121709579Y-82687157D01*
X121709579Y-82687157D02*
X121614341Y-82639538D01*
X121614341Y-82639538D02*
X121519103Y-82639538D01*
X121519103Y-82639538D02*
X121423865Y-82687157D01*
X121423865Y-82687157D02*
X121376246Y-82734776D01*
X121376246Y-82734776D02*
X121328627Y-82830014D01*
X121328627Y-82830014D02*
X121281008Y-83020490D01*
X121281008Y-83020490D02*
X121233389Y-83115728D01*
X121233389Y-83115728D02*
X121185770Y-83163347D01*
X121185770Y-83163347D02*
X121090532Y-83210966D01*
X121090532Y-83210966D02*
X120995294Y-83210966D01*
X120995294Y-83210966D02*
X120900056Y-83163347D01*
X120900056Y-83163347D02*
X120852437Y-83115728D01*
X120852437Y-83115728D02*
X120804818Y-83020490D01*
X120804818Y-83020490D02*
X120804818Y-82782395D01*
X120804818Y-82782395D02*
X120852437Y-82639538D01*
X121281008Y-82210966D02*
X121281008Y-81877633D01*
X121804818Y-81734776D02*
X121804818Y-82210966D01*
X121804818Y-82210966D02*
X120804818Y-82210966D01*
X120804818Y-82210966D02*
X120804818Y-81734776D01*
X120804818Y-81449061D02*
X120804818Y-80877633D01*
X121804818Y-81163347D02*
X120804818Y-81163347D01*
X132007141Y-132403880D02*
X131959522Y-132451500D01*
X131959522Y-132451500D02*
X131816665Y-132499119D01*
X131816665Y-132499119D02*
X131721427Y-132499119D01*
X131721427Y-132499119D02*
X131578570Y-132451500D01*
X131578570Y-132451500D02*
X131483332Y-132356261D01*
X131483332Y-132356261D02*
X131435713Y-132261023D01*
X131435713Y-132261023D02*
X131388094Y-132070547D01*
X131388094Y-132070547D02*
X131388094Y-131927690D01*
X131388094Y-131927690D02*
X131435713Y-131737214D01*
X131435713Y-131737214D02*
X131483332Y-131641976D01*
X131483332Y-131641976D02*
X131578570Y-131546738D01*
X131578570Y-131546738D02*
X131721427Y-131499119D01*
X131721427Y-131499119D02*
X131816665Y-131499119D01*
X131816665Y-131499119D02*
X131959522Y-131546738D01*
X131959522Y-131546738D02*
X132007141Y-131594357D01*
X132959522Y-132499119D02*
X132388094Y-132499119D01*
X132673808Y-132499119D02*
X132673808Y-131499119D01*
X132673808Y-131499119D02*
X132578570Y-131641976D01*
X132578570Y-131641976D02*
X132483332Y-131737214D01*
X132483332Y-131737214D02*
X132388094Y-131784833D01*
X133340475Y-131594357D02*
X133388094Y-131546738D01*
X133388094Y-131546738D02*
X133483332Y-131499119D01*
X133483332Y-131499119D02*
X133721427Y-131499119D01*
X133721427Y-131499119D02*
X133816665Y-131546738D01*
X133816665Y-131546738D02*
X133864284Y-131594357D01*
X133864284Y-131594357D02*
X133911903Y-131689595D01*
X133911903Y-131689595D02*
X133911903Y-131784833D01*
X133911903Y-131784833D02*
X133864284Y-131927690D01*
X133864284Y-131927690D02*
X133292856Y-132499119D01*
X133292856Y-132499119D02*
X133911903Y-132499119D01*
X152707141Y-117503880D02*
X152659522Y-117551500D01*
X152659522Y-117551500D02*
X152516665Y-117599119D01*
X152516665Y-117599119D02*
X152421427Y-117599119D01*
X152421427Y-117599119D02*
X152278570Y-117551500D01*
X152278570Y-117551500D02*
X152183332Y-117456261D01*
X152183332Y-117456261D02*
X152135713Y-117361023D01*
X152135713Y-117361023D02*
X152088094Y-117170547D01*
X152088094Y-117170547D02*
X152088094Y-117027690D01*
X152088094Y-117027690D02*
X152135713Y-116837214D01*
X152135713Y-116837214D02*
X152183332Y-116741976D01*
X152183332Y-116741976D02*
X152278570Y-116646738D01*
X152278570Y-116646738D02*
X152421427Y-116599119D01*
X152421427Y-116599119D02*
X152516665Y-116599119D01*
X152516665Y-116599119D02*
X152659522Y-116646738D01*
X152659522Y-116646738D02*
X152707141Y-116694357D01*
X153659522Y-117599119D02*
X153088094Y-117599119D01*
X153373808Y-117599119D02*
X153373808Y-116599119D01*
X153373808Y-116599119D02*
X153278570Y-116741976D01*
X153278570Y-116741976D02*
X153183332Y-116837214D01*
X153183332Y-116837214D02*
X153088094Y-116884833D01*
X154278570Y-116599119D02*
X154373808Y-116599119D01*
X154373808Y-116599119D02*
X154469046Y-116646738D01*
X154469046Y-116646738D02*
X154516665Y-116694357D01*
X154516665Y-116694357D02*
X154564284Y-116789595D01*
X154564284Y-116789595D02*
X154611903Y-116980071D01*
X154611903Y-116980071D02*
X154611903Y-117218166D01*
X154611903Y-117218166D02*
X154564284Y-117408642D01*
X154564284Y-117408642D02*
X154516665Y-117503880D01*
X154516665Y-117503880D02*
X154469046Y-117551500D01*
X154469046Y-117551500D02*
X154373808Y-117599119D01*
X154373808Y-117599119D02*
X154278570Y-117599119D01*
X154278570Y-117599119D02*
X154183332Y-117551500D01*
X154183332Y-117551500D02*
X154135713Y-117503880D01*
X154135713Y-117503880D02*
X154088094Y-117408642D01*
X154088094Y-117408642D02*
X154040475Y-117218166D01*
X154040475Y-117218166D02*
X154040475Y-116980071D01*
X154040475Y-116980071D02*
X154088094Y-116789595D01*
X154088094Y-116789595D02*
X154135713Y-116694357D01*
X154135713Y-116694357D02*
X154183332Y-116646738D01*
X154183332Y-116646738D02*
X154278570Y-116599119D01*
X127170832Y-123729119D02*
X126837499Y-123252928D01*
X126599404Y-123729119D02*
X126599404Y-122729119D01*
X126599404Y-122729119D02*
X126980356Y-122729119D01*
X126980356Y-122729119D02*
X127075594Y-122776738D01*
X127075594Y-122776738D02*
X127123213Y-122824357D01*
X127123213Y-122824357D02*
X127170832Y-122919595D01*
X127170832Y-122919595D02*
X127170832Y-123062452D01*
X127170832Y-123062452D02*
X127123213Y-123157690D01*
X127123213Y-123157690D02*
X127075594Y-123205309D01*
X127075594Y-123205309D02*
X126980356Y-123252928D01*
X126980356Y-123252928D02*
X126599404Y-123252928D01*
X127504166Y-122729119D02*
X128123213Y-122729119D01*
X128123213Y-122729119D02*
X127789880Y-123110071D01*
X127789880Y-123110071D02*
X127932737Y-123110071D01*
X127932737Y-123110071D02*
X128027975Y-123157690D01*
X128027975Y-123157690D02*
X128075594Y-123205309D01*
X128075594Y-123205309D02*
X128123213Y-123300547D01*
X128123213Y-123300547D02*
X128123213Y-123538642D01*
X128123213Y-123538642D02*
X128075594Y-123633880D01*
X128075594Y-123633880D02*
X128027975Y-123681500D01*
X128027975Y-123681500D02*
X127932737Y-123729119D01*
X127932737Y-123729119D02*
X127647023Y-123729119D01*
X127647023Y-123729119D02*
X127551785Y-123681500D01*
X127551785Y-123681500D02*
X127504166Y-123633880D01*
X147095179Y-98082395D02*
X146285656Y-98082395D01*
X146285656Y-98082395D02*
X146190418Y-98130014D01*
X146190418Y-98130014D02*
X146142799Y-98177633D01*
X146142799Y-98177633D02*
X146095179Y-98272871D01*
X146095179Y-98272871D02*
X146095179Y-98463347D01*
X146095179Y-98463347D02*
X146142799Y-98558585D01*
X146142799Y-98558585D02*
X146190418Y-98606204D01*
X146190418Y-98606204D02*
X146285656Y-98653823D01*
X146285656Y-98653823D02*
X147095179Y-98653823D01*
X146761846Y-99558585D02*
X146095179Y-99558585D01*
X147142799Y-99320490D02*
X146428513Y-99082395D01*
X146428513Y-99082395D02*
X146428513Y-99701442D01*
X145610179Y-99556800D02*
X145372084Y-99556800D01*
X145467322Y-99318705D02*
X145372084Y-99556800D01*
X145372084Y-99556800D02*
X145467322Y-99794895D01*
X145181608Y-99413943D02*
X145372084Y-99556800D01*
X145372084Y-99556800D02*
X145181608Y-99699657D01*
X144519818Y-99556799D02*
X144757913Y-99556799D01*
X144662675Y-99794894D02*
X144757913Y-99556799D01*
X144757913Y-99556799D02*
X144662675Y-99318704D01*
X144948389Y-99699656D02*
X144757913Y-99556799D01*
X144757913Y-99556799D02*
X144948389Y-99413942D01*
X128704818Y-85877633D02*
X129419103Y-85877633D01*
X129419103Y-85877633D02*
X129561960Y-85925252D01*
X129561960Y-85925252D02*
X129657199Y-86020490D01*
X129657199Y-86020490D02*
X129704818Y-86163347D01*
X129704818Y-86163347D02*
X129704818Y-86258585D01*
X128704818Y-85496680D02*
X128704818Y-84877633D01*
X128704818Y-84877633D02*
X129085770Y-85210966D01*
X129085770Y-85210966D02*
X129085770Y-85068109D01*
X129085770Y-85068109D02*
X129133389Y-84972871D01*
X129133389Y-84972871D02*
X129181008Y-84925252D01*
X129181008Y-84925252D02*
X129276246Y-84877633D01*
X129276246Y-84877633D02*
X129514341Y-84877633D01*
X129514341Y-84877633D02*
X129609579Y-84925252D01*
X129609579Y-84925252D02*
X129657199Y-84972871D01*
X129657199Y-84972871D02*
X129704818Y-85068109D01*
X129704818Y-85068109D02*
X129704818Y-85353823D01*
X129704818Y-85353823D02*
X129657199Y-85449061D01*
X129657199Y-85449061D02*
X129609579Y-85496680D01*
X152683332Y-115103880D02*
X152635713Y-115151500D01*
X152635713Y-115151500D02*
X152492856Y-115199119D01*
X152492856Y-115199119D02*
X152397618Y-115199119D01*
X152397618Y-115199119D02*
X152254761Y-115151500D01*
X152254761Y-115151500D02*
X152159523Y-115056261D01*
X152159523Y-115056261D02*
X152111904Y-114961023D01*
X152111904Y-114961023D02*
X152064285Y-114770547D01*
X152064285Y-114770547D02*
X152064285Y-114627690D01*
X152064285Y-114627690D02*
X152111904Y-114437214D01*
X152111904Y-114437214D02*
X152159523Y-114341976D01*
X152159523Y-114341976D02*
X152254761Y-114246738D01*
X152254761Y-114246738D02*
X152397618Y-114199119D01*
X152397618Y-114199119D02*
X152492856Y-114199119D01*
X152492856Y-114199119D02*
X152635713Y-114246738D01*
X152635713Y-114246738D02*
X152683332Y-114294357D01*
X153159523Y-115199119D02*
X153349999Y-115199119D01*
X153349999Y-115199119D02*
X153445237Y-115151500D01*
X153445237Y-115151500D02*
X153492856Y-115103880D01*
X153492856Y-115103880D02*
X153588094Y-114961023D01*
X153588094Y-114961023D02*
X153635713Y-114770547D01*
X153635713Y-114770547D02*
X153635713Y-114389595D01*
X153635713Y-114389595D02*
X153588094Y-114294357D01*
X153588094Y-114294357D02*
X153540475Y-114246738D01*
X153540475Y-114246738D02*
X153445237Y-114199119D01*
X153445237Y-114199119D02*
X153254761Y-114199119D01*
X153254761Y-114199119D02*
X153159523Y-114246738D01*
X153159523Y-114246738D02*
X153111904Y-114294357D01*
X153111904Y-114294357D02*
X153064285Y-114389595D01*
X153064285Y-114389595D02*
X153064285Y-114627690D01*
X153064285Y-114627690D02*
X153111904Y-114722928D01*
X153111904Y-114722928D02*
X153159523Y-114770547D01*
X153159523Y-114770547D02*
X153254761Y-114818166D01*
X153254761Y-114818166D02*
X153445237Y-114818166D01*
X153445237Y-114818166D02*
X153540475Y-114770547D01*
X153540475Y-114770547D02*
X153588094Y-114722928D01*
X153588094Y-114722928D02*
X153635713Y-114627690D01*
X124904818Y-111782394D02*
X123904818Y-111782394D01*
X123904818Y-111782394D02*
X123904818Y-111544299D01*
X123904818Y-111544299D02*
X123952437Y-111401442D01*
X123952437Y-111401442D02*
X124047675Y-111306204D01*
X124047675Y-111306204D02*
X124142913Y-111258585D01*
X124142913Y-111258585D02*
X124333389Y-111210966D01*
X124333389Y-111210966D02*
X124476246Y-111210966D01*
X124476246Y-111210966D02*
X124666722Y-111258585D01*
X124666722Y-111258585D02*
X124761960Y-111306204D01*
X124761960Y-111306204D02*
X124857199Y-111401442D01*
X124857199Y-111401442D02*
X124904818Y-111544299D01*
X124904818Y-111544299D02*
X124904818Y-111782394D01*
X124904818Y-110258585D02*
X124904818Y-110830013D01*
X124904818Y-110544299D02*
X123904818Y-110544299D01*
X123904818Y-110544299D02*
X124047675Y-110639537D01*
X124047675Y-110639537D02*
X124142913Y-110734775D01*
X124142913Y-110734775D02*
X124190532Y-110830013D01*
X179104818Y-113177633D02*
X179819103Y-113177633D01*
X179819103Y-113177633D02*
X179961960Y-113225252D01*
X179961960Y-113225252D02*
X180057199Y-113320490D01*
X180057199Y-113320490D02*
X180104818Y-113463347D01*
X180104818Y-113463347D02*
X180104818Y-113558585D01*
X179438151Y-112272871D02*
X180104818Y-112272871D01*
X179057199Y-112510966D02*
X179771484Y-112749061D01*
X179771484Y-112749061D02*
X179771484Y-112130014D01*
X163311904Y-99999119D02*
X163311904Y-98999119D01*
X163311904Y-98999119D02*
X163549999Y-98999119D01*
X163549999Y-98999119D02*
X163692856Y-99046738D01*
X163692856Y-99046738D02*
X163788094Y-99141976D01*
X163788094Y-99141976D02*
X163835713Y-99237214D01*
X163835713Y-99237214D02*
X163883332Y-99427690D01*
X163883332Y-99427690D02*
X163883332Y-99570547D01*
X163883332Y-99570547D02*
X163835713Y-99761023D01*
X163835713Y-99761023D02*
X163788094Y-99856261D01*
X163788094Y-99856261D02*
X163692856Y-99951500D01*
X163692856Y-99951500D02*
X163549999Y-99999119D01*
X163549999Y-99999119D02*
X163311904Y-99999119D01*
X164264285Y-99094357D02*
X164311904Y-99046738D01*
X164311904Y-99046738D02*
X164407142Y-98999119D01*
X164407142Y-98999119D02*
X164645237Y-98999119D01*
X164645237Y-98999119D02*
X164740475Y-99046738D01*
X164740475Y-99046738D02*
X164788094Y-99094357D01*
X164788094Y-99094357D02*
X164835713Y-99189595D01*
X164835713Y-99189595D02*
X164835713Y-99284833D01*
X164835713Y-99284833D02*
X164788094Y-99427690D01*
X164788094Y-99427690D02*
X164216666Y-99999119D01*
X164216666Y-99999119D02*
X164835713Y-99999119D01*
X126945832Y-91633880D02*
X126898213Y-91681500D01*
X126898213Y-91681500D02*
X126755356Y-91729119D01*
X126755356Y-91729119D02*
X126660118Y-91729119D01*
X126660118Y-91729119D02*
X126517261Y-91681500D01*
X126517261Y-91681500D02*
X126422023Y-91586261D01*
X126422023Y-91586261D02*
X126374404Y-91491023D01*
X126374404Y-91491023D02*
X126326785Y-91300547D01*
X126326785Y-91300547D02*
X126326785Y-91157690D01*
X126326785Y-91157690D02*
X126374404Y-90967214D01*
X126374404Y-90967214D02*
X126422023Y-90871976D01*
X126422023Y-90871976D02*
X126517261Y-90776738D01*
X126517261Y-90776738D02*
X126660118Y-90729119D01*
X126660118Y-90729119D02*
X126755356Y-90729119D01*
X126755356Y-90729119D02*
X126898213Y-90776738D01*
X126898213Y-90776738D02*
X126945832Y-90824357D01*
X127279166Y-90729119D02*
X127898213Y-90729119D01*
X127898213Y-90729119D02*
X127564880Y-91110071D01*
X127564880Y-91110071D02*
X127707737Y-91110071D01*
X127707737Y-91110071D02*
X127802975Y-91157690D01*
X127802975Y-91157690D02*
X127850594Y-91205309D01*
X127850594Y-91205309D02*
X127898213Y-91300547D01*
X127898213Y-91300547D02*
X127898213Y-91538642D01*
X127898213Y-91538642D02*
X127850594Y-91633880D01*
X127850594Y-91633880D02*
X127802975Y-91681500D01*
X127802975Y-91681500D02*
X127707737Y-91729119D01*
X127707737Y-91729119D02*
X127422023Y-91729119D01*
X127422023Y-91729119D02*
X127326785Y-91681500D01*
X127326785Y-91681500D02*
X127279166Y-91633880D01*
X118995179Y-110510966D02*
X118280894Y-110510966D01*
X118280894Y-110510966D02*
X118138037Y-110463347D01*
X118138037Y-110463347D02*
X118042799Y-110368109D01*
X118042799Y-110368109D02*
X117995179Y-110225252D01*
X117995179Y-110225252D02*
X117995179Y-110130014D01*
X117995179Y-111510966D02*
X117995179Y-110939538D01*
X117995179Y-111225252D02*
X118995179Y-111225252D01*
X118995179Y-111225252D02*
X118852322Y-111130014D01*
X118852322Y-111130014D02*
X118757084Y-111034776D01*
X118757084Y-111034776D02*
X118709465Y-110939538D01*
X167988094Y-105099119D02*
X167988094Y-105908642D01*
X167988094Y-105908642D02*
X168035713Y-106003880D01*
X168035713Y-106003880D02*
X168083332Y-106051500D01*
X168083332Y-106051500D02*
X168178570Y-106099119D01*
X168178570Y-106099119D02*
X168369046Y-106099119D01*
X168369046Y-106099119D02*
X168464284Y-106051500D01*
X168464284Y-106051500D02*
X168511903Y-106003880D01*
X168511903Y-106003880D02*
X168559522Y-105908642D01*
X168559522Y-105908642D02*
X168559522Y-105099119D01*
X169511903Y-105099119D02*
X169035713Y-105099119D01*
X169035713Y-105099119D02*
X168988094Y-105575309D01*
X168988094Y-105575309D02*
X169035713Y-105527690D01*
X169035713Y-105527690D02*
X169130951Y-105480071D01*
X169130951Y-105480071D02*
X169369046Y-105480071D01*
X169369046Y-105480071D02*
X169464284Y-105527690D01*
X169464284Y-105527690D02*
X169511903Y-105575309D01*
X169511903Y-105575309D02*
X169559522Y-105670547D01*
X169559522Y-105670547D02*
X169559522Y-105908642D01*
X169559522Y-105908642D02*
X169511903Y-106003880D01*
X169511903Y-106003880D02*
X169464284Y-106051500D01*
X169464284Y-106051500D02*
X169369046Y-106099119D01*
X169369046Y-106099119D02*
X169130951Y-106099119D01*
X169130951Y-106099119D02*
X169035713Y-106051500D01*
X169035713Y-106051500D02*
X168988094Y-106003880D01*
X147788094Y-108599119D02*
X147788094Y-109408642D01*
X147788094Y-109408642D02*
X147835713Y-109503880D01*
X147835713Y-109503880D02*
X147883332Y-109551500D01*
X147883332Y-109551500D02*
X147978570Y-109599119D01*
X147978570Y-109599119D02*
X148169046Y-109599119D01*
X148169046Y-109599119D02*
X148264284Y-109551500D01*
X148264284Y-109551500D02*
X148311903Y-109503880D01*
X148311903Y-109503880D02*
X148359522Y-109408642D01*
X148359522Y-109408642D02*
X148359522Y-108599119D01*
X148740475Y-108599119D02*
X149359522Y-108599119D01*
X149359522Y-108599119D02*
X149026189Y-108980071D01*
X149026189Y-108980071D02*
X149169046Y-108980071D01*
X149169046Y-108980071D02*
X149264284Y-109027690D01*
X149264284Y-109027690D02*
X149311903Y-109075309D01*
X149311903Y-109075309D02*
X149359522Y-109170547D01*
X149359522Y-109170547D02*
X149359522Y-109408642D01*
X149359522Y-109408642D02*
X149311903Y-109503880D01*
X149311903Y-109503880D02*
X149264284Y-109551500D01*
X149264284Y-109551500D02*
X149169046Y-109599119D01*
X149169046Y-109599119D02*
X148883332Y-109599119D01*
X148883332Y-109599119D02*
X148788094Y-109551500D01*
X148788094Y-109551500D02*
X148740475Y-109503880D01*
X143262299Y-106049118D02*
X143262299Y-106287213D01*
X143024204Y-106191975D02*
X143262299Y-106287213D01*
X143262299Y-106287213D02*
X143500394Y-106191975D01*
X143119442Y-106477689D02*
X143262299Y-106287213D01*
X143262299Y-106287213D02*
X143405156Y-106477689D01*
X162611904Y-92899119D02*
X162611904Y-91899119D01*
X162611904Y-91899119D02*
X162849999Y-91899119D01*
X162849999Y-91899119D02*
X162992856Y-91946738D01*
X162992856Y-91946738D02*
X163088094Y-92041976D01*
X163088094Y-92041976D02*
X163135713Y-92137214D01*
X163135713Y-92137214D02*
X163183332Y-92327690D01*
X163183332Y-92327690D02*
X163183332Y-92470547D01*
X163183332Y-92470547D02*
X163135713Y-92661023D01*
X163135713Y-92661023D02*
X163088094Y-92756261D01*
X163088094Y-92756261D02*
X162992856Y-92851500D01*
X162992856Y-92851500D02*
X162849999Y-92899119D01*
X162849999Y-92899119D02*
X162611904Y-92899119D01*
X163516666Y-91899119D02*
X164135713Y-91899119D01*
X164135713Y-91899119D02*
X163802380Y-92280071D01*
X163802380Y-92280071D02*
X163945237Y-92280071D01*
X163945237Y-92280071D02*
X164040475Y-92327690D01*
X164040475Y-92327690D02*
X164088094Y-92375309D01*
X164088094Y-92375309D02*
X164135713Y-92470547D01*
X164135713Y-92470547D02*
X164135713Y-92708642D01*
X164135713Y-92708642D02*
X164088094Y-92803880D01*
X164088094Y-92803880D02*
X164040475Y-92851500D01*
X164040475Y-92851500D02*
X163945237Y-92899119D01*
X163945237Y-92899119D02*
X163659523Y-92899119D01*
X163659523Y-92899119D02*
X163564285Y-92851500D01*
X163564285Y-92851500D02*
X163516666Y-92803880D01*
X130483332Y-116703880D02*
X130435713Y-116751500D01*
X130435713Y-116751500D02*
X130292856Y-116799119D01*
X130292856Y-116799119D02*
X130197618Y-116799119D01*
X130197618Y-116799119D02*
X130054761Y-116751500D01*
X130054761Y-116751500D02*
X129959523Y-116656261D01*
X129959523Y-116656261D02*
X129911904Y-116561023D01*
X129911904Y-116561023D02*
X129864285Y-116370547D01*
X129864285Y-116370547D02*
X129864285Y-116227690D01*
X129864285Y-116227690D02*
X129911904Y-116037214D01*
X129911904Y-116037214D02*
X129959523Y-115941976D01*
X129959523Y-115941976D02*
X130054761Y-115846738D01*
X130054761Y-115846738D02*
X130197618Y-115799119D01*
X130197618Y-115799119D02*
X130292856Y-115799119D01*
X130292856Y-115799119D02*
X130435713Y-115846738D01*
X130435713Y-115846738D02*
X130483332Y-115894357D01*
X130864285Y-115894357D02*
X130911904Y-115846738D01*
X130911904Y-115846738D02*
X131007142Y-115799119D01*
X131007142Y-115799119D02*
X131245237Y-115799119D01*
X131245237Y-115799119D02*
X131340475Y-115846738D01*
X131340475Y-115846738D02*
X131388094Y-115894357D01*
X131388094Y-115894357D02*
X131435713Y-115989595D01*
X131435713Y-115989595D02*
X131435713Y-116084833D01*
X131435713Y-116084833D02*
X131388094Y-116227690D01*
X131388094Y-116227690D02*
X130816666Y-116799119D01*
X130816666Y-116799119D02*
X131435713Y-116799119D01*
X162854818Y-112727633D02*
X163569103Y-112727633D01*
X163569103Y-112727633D02*
X163711960Y-112775252D01*
X163711960Y-112775252D02*
X163807199Y-112870490D01*
X163807199Y-112870490D02*
X163854818Y-113013347D01*
X163854818Y-113013347D02*
X163854818Y-113108585D01*
X162950056Y-112299061D02*
X162902437Y-112251442D01*
X162902437Y-112251442D02*
X162854818Y-112156204D01*
X162854818Y-112156204D02*
X162854818Y-111918109D01*
X162854818Y-111918109D02*
X162902437Y-111822871D01*
X162902437Y-111822871D02*
X162950056Y-111775252D01*
X162950056Y-111775252D02*
X163045294Y-111727633D01*
X163045294Y-111727633D02*
X163140532Y-111727633D01*
X163140532Y-111727633D02*
X163283389Y-111775252D01*
X163283389Y-111775252D02*
X163854818Y-112346680D01*
X163854818Y-112346680D02*
X163854818Y-111727633D01*
X129607141Y-118703880D02*
X129559522Y-118751500D01*
X129559522Y-118751500D02*
X129416665Y-118799119D01*
X129416665Y-118799119D02*
X129321427Y-118799119D01*
X129321427Y-118799119D02*
X129178570Y-118751500D01*
X129178570Y-118751500D02*
X129083332Y-118656261D01*
X129083332Y-118656261D02*
X129035713Y-118561023D01*
X129035713Y-118561023D02*
X128988094Y-118370547D01*
X128988094Y-118370547D02*
X128988094Y-118227690D01*
X128988094Y-118227690D02*
X129035713Y-118037214D01*
X129035713Y-118037214D02*
X129083332Y-117941976D01*
X129083332Y-117941976D02*
X129178570Y-117846738D01*
X129178570Y-117846738D02*
X129321427Y-117799119D01*
X129321427Y-117799119D02*
X129416665Y-117799119D01*
X129416665Y-117799119D02*
X129559522Y-117846738D01*
X129559522Y-117846738D02*
X129607141Y-117894357D01*
X130559522Y-118799119D02*
X129988094Y-118799119D01*
X130273808Y-118799119D02*
X130273808Y-117799119D01*
X130273808Y-117799119D02*
X130178570Y-117941976D01*
X130178570Y-117941976D02*
X130083332Y-118037214D01*
X130083332Y-118037214D02*
X129988094Y-118084833D01*
X131511903Y-118799119D02*
X130940475Y-118799119D01*
X131226189Y-118799119D02*
X131226189Y-117799119D01*
X131226189Y-117799119D02*
X131130951Y-117941976D01*
X131130951Y-117941976D02*
X131035713Y-118037214D01*
X131035713Y-118037214D02*
X130940475Y-118084833D01*
X166983332Y-79399119D02*
X166649999Y-78922928D01*
X166411904Y-79399119D02*
X166411904Y-78399119D01*
X166411904Y-78399119D02*
X166792856Y-78399119D01*
X166792856Y-78399119D02*
X166888094Y-78446738D01*
X166888094Y-78446738D02*
X166935713Y-78494357D01*
X166935713Y-78494357D02*
X166983332Y-78589595D01*
X166983332Y-78589595D02*
X166983332Y-78732452D01*
X166983332Y-78732452D02*
X166935713Y-78827690D01*
X166935713Y-78827690D02*
X166888094Y-78875309D01*
X166888094Y-78875309D02*
X166792856Y-78922928D01*
X166792856Y-78922928D02*
X166411904Y-78922928D01*
X167840475Y-78732452D02*
X167840475Y-79399119D01*
X167602380Y-78351500D02*
X167364285Y-79065785D01*
X167364285Y-79065785D02*
X167983332Y-79065785D01*
X126483332Y-103103880D02*
X126435713Y-103151500D01*
X126435713Y-103151500D02*
X126292856Y-103199119D01*
X126292856Y-103199119D02*
X126197618Y-103199119D01*
X126197618Y-103199119D02*
X126054761Y-103151500D01*
X126054761Y-103151500D02*
X125959523Y-103056261D01*
X125959523Y-103056261D02*
X125911904Y-102961023D01*
X125911904Y-102961023D02*
X125864285Y-102770547D01*
X125864285Y-102770547D02*
X125864285Y-102627690D01*
X125864285Y-102627690D02*
X125911904Y-102437214D01*
X125911904Y-102437214D02*
X125959523Y-102341976D01*
X125959523Y-102341976D02*
X126054761Y-102246738D01*
X126054761Y-102246738D02*
X126197618Y-102199119D01*
X126197618Y-102199119D02*
X126292856Y-102199119D01*
X126292856Y-102199119D02*
X126435713Y-102246738D01*
X126435713Y-102246738D02*
X126483332Y-102294357D01*
X127483332Y-103199119D02*
X127149999Y-102722928D01*
X126911904Y-103199119D02*
X126911904Y-102199119D01*
X126911904Y-102199119D02*
X127292856Y-102199119D01*
X127292856Y-102199119D02*
X127388094Y-102246738D01*
X127388094Y-102246738D02*
X127435713Y-102294357D01*
X127435713Y-102294357D02*
X127483332Y-102389595D01*
X127483332Y-102389595D02*
X127483332Y-102532452D01*
X127483332Y-102532452D02*
X127435713Y-102627690D01*
X127435713Y-102627690D02*
X127388094Y-102675309D01*
X127388094Y-102675309D02*
X127292856Y-102722928D01*
X127292856Y-102722928D02*
X126911904Y-102722928D01*
X128435713Y-103199119D02*
X127864285Y-103199119D01*
X128149999Y-103199119D02*
X128149999Y-102199119D01*
X128149999Y-102199119D02*
X128054761Y-102341976D01*
X128054761Y-102341976D02*
X127959523Y-102437214D01*
X127959523Y-102437214D02*
X127864285Y-102484833D01*
X125480749Y-96647319D02*
X125480749Y-96885414D01*
X125242654Y-96790176D02*
X125480749Y-96885414D01*
X125480749Y-96885414D02*
X125718844Y-96790176D01*
X125337892Y-97075890D02*
X125480749Y-96885414D01*
X125480749Y-96885414D02*
X125623606Y-97075890D01*
X126383332Y-78103880D02*
X126335713Y-78151500D01*
X126335713Y-78151500D02*
X126192856Y-78199119D01*
X126192856Y-78199119D02*
X126097618Y-78199119D01*
X126097618Y-78199119D02*
X125954761Y-78151500D01*
X125954761Y-78151500D02*
X125859523Y-78056261D01*
X125859523Y-78056261D02*
X125811904Y-77961023D01*
X125811904Y-77961023D02*
X125764285Y-77770547D01*
X125764285Y-77770547D02*
X125764285Y-77627690D01*
X125764285Y-77627690D02*
X125811904Y-77437214D01*
X125811904Y-77437214D02*
X125859523Y-77341976D01*
X125859523Y-77341976D02*
X125954761Y-77246738D01*
X125954761Y-77246738D02*
X126097618Y-77199119D01*
X126097618Y-77199119D02*
X126192856Y-77199119D01*
X126192856Y-77199119D02*
X126335713Y-77246738D01*
X126335713Y-77246738D02*
X126383332Y-77294357D01*
X127335713Y-78199119D02*
X126764285Y-78199119D01*
X127049999Y-78199119D02*
X127049999Y-77199119D01*
X127049999Y-77199119D02*
X126954761Y-77341976D01*
X126954761Y-77341976D02*
X126859523Y-77437214D01*
X126859523Y-77437214D02*
X126764285Y-77484833D01*
X152707141Y-119603880D02*
X152659522Y-119651500D01*
X152659522Y-119651500D02*
X152516665Y-119699119D01*
X152516665Y-119699119D02*
X152421427Y-119699119D01*
X152421427Y-119699119D02*
X152278570Y-119651500D01*
X152278570Y-119651500D02*
X152183332Y-119556261D01*
X152183332Y-119556261D02*
X152135713Y-119461023D01*
X152135713Y-119461023D02*
X152088094Y-119270547D01*
X152088094Y-119270547D02*
X152088094Y-119127690D01*
X152088094Y-119127690D02*
X152135713Y-118937214D01*
X152135713Y-118937214D02*
X152183332Y-118841976D01*
X152183332Y-118841976D02*
X152278570Y-118746738D01*
X152278570Y-118746738D02*
X152421427Y-118699119D01*
X152421427Y-118699119D02*
X152516665Y-118699119D01*
X152516665Y-118699119D02*
X152659522Y-118746738D01*
X152659522Y-118746738D02*
X152707141Y-118794357D01*
X153659522Y-119699119D02*
X153088094Y-119699119D01*
X153373808Y-119699119D02*
X153373808Y-118699119D01*
X153373808Y-118699119D02*
X153278570Y-118841976D01*
X153278570Y-118841976D02*
X153183332Y-118937214D01*
X153183332Y-118937214D02*
X153088094Y-118984833D01*
X153992856Y-118699119D02*
X154611903Y-118699119D01*
X154611903Y-118699119D02*
X154278570Y-119080071D01*
X154278570Y-119080071D02*
X154421427Y-119080071D01*
X154421427Y-119080071D02*
X154516665Y-119127690D01*
X154516665Y-119127690D02*
X154564284Y-119175309D01*
X154564284Y-119175309D02*
X154611903Y-119270547D01*
X154611903Y-119270547D02*
X154611903Y-119508642D01*
X154611903Y-119508642D02*
X154564284Y-119603880D01*
X154564284Y-119603880D02*
X154516665Y-119651500D01*
X154516665Y-119651500D02*
X154421427Y-119699119D01*
X154421427Y-119699119D02*
X154135713Y-119699119D01*
X154135713Y-119699119D02*
X154040475Y-119651500D01*
X154040475Y-119651500D02*
X153992856Y-119603880D01*
X174689865Y-95010966D02*
X175689865Y-95010966D01*
X175689865Y-95010966D02*
X175889865Y-95077633D01*
X175889865Y-95077633D02*
X176023199Y-95210966D01*
X176023199Y-95210966D02*
X176089865Y-95410966D01*
X176089865Y-95410966D02*
X176089865Y-95544300D01*
X174689865Y-93677633D02*
X174689865Y-94344299D01*
X174689865Y-94344299D02*
X175356532Y-94410966D01*
X175356532Y-94410966D02*
X175289865Y-94344299D01*
X175289865Y-94344299D02*
X175223199Y-94210966D01*
X175223199Y-94210966D02*
X175223199Y-93877633D01*
X175223199Y-93877633D02*
X175289865Y-93744299D01*
X175289865Y-93744299D02*
X175356532Y-93677633D01*
X175356532Y-93677633D02*
X175489865Y-93610966D01*
X175489865Y-93610966D02*
X175823199Y-93610966D01*
X175823199Y-93610966D02*
X175956532Y-93677633D01*
X175956532Y-93677633D02*
X176023199Y-93744299D01*
X176023199Y-93744299D02*
X176089865Y-93877633D01*
X176089865Y-93877633D02*
X176089865Y-94210966D01*
X176089865Y-94210966D02*
X176023199Y-94344299D01*
X176023199Y-94344299D02*
X175956532Y-94410966D01*
X132983332Y-110403880D02*
X132935713Y-110451500D01*
X132935713Y-110451500D02*
X132792856Y-110499119D01*
X132792856Y-110499119D02*
X132697618Y-110499119D01*
X132697618Y-110499119D02*
X132554761Y-110451500D01*
X132554761Y-110451500D02*
X132459523Y-110356261D01*
X132459523Y-110356261D02*
X132411904Y-110261023D01*
X132411904Y-110261023D02*
X132364285Y-110070547D01*
X132364285Y-110070547D02*
X132364285Y-109927690D01*
X132364285Y-109927690D02*
X132411904Y-109737214D01*
X132411904Y-109737214D02*
X132459523Y-109641976D01*
X132459523Y-109641976D02*
X132554761Y-109546738D01*
X132554761Y-109546738D02*
X132697618Y-109499119D01*
X132697618Y-109499119D02*
X132792856Y-109499119D01*
X132792856Y-109499119D02*
X132935713Y-109546738D01*
X132935713Y-109546738D02*
X132983332Y-109594357D01*
X133888094Y-109499119D02*
X133411904Y-109499119D01*
X133411904Y-109499119D02*
X133364285Y-109975309D01*
X133364285Y-109975309D02*
X133411904Y-109927690D01*
X133411904Y-109927690D02*
X133507142Y-109880071D01*
X133507142Y-109880071D02*
X133745237Y-109880071D01*
X133745237Y-109880071D02*
X133840475Y-109927690D01*
X133840475Y-109927690D02*
X133888094Y-109975309D01*
X133888094Y-109975309D02*
X133935713Y-110070547D01*
X133935713Y-110070547D02*
X133935713Y-110308642D01*
X133935713Y-110308642D02*
X133888094Y-110403880D01*
X133888094Y-110403880D02*
X133840475Y-110451500D01*
X133840475Y-110451500D02*
X133745237Y-110499119D01*
X133745237Y-110499119D02*
X133507142Y-110499119D01*
X133507142Y-110499119D02*
X133411904Y-110451500D01*
X133411904Y-110451500D02*
X133364285Y-110403880D01*
X165192856Y-89775309D02*
X165335713Y-89822928D01*
X165335713Y-89822928D02*
X165383332Y-89870547D01*
X165383332Y-89870547D02*
X165430951Y-89965785D01*
X165430951Y-89965785D02*
X165430951Y-90108642D01*
X165430951Y-90108642D02*
X165383332Y-90203880D01*
X165383332Y-90203880D02*
X165335713Y-90251500D01*
X165335713Y-90251500D02*
X165240475Y-90299119D01*
X165240475Y-90299119D02*
X164859523Y-90299119D01*
X164859523Y-90299119D02*
X164859523Y-89299119D01*
X164859523Y-89299119D02*
X165192856Y-89299119D01*
X165192856Y-89299119D02*
X165288094Y-89346738D01*
X165288094Y-89346738D02*
X165335713Y-89394357D01*
X165335713Y-89394357D02*
X165383332Y-89489595D01*
X165383332Y-89489595D02*
X165383332Y-89584833D01*
X165383332Y-89584833D02*
X165335713Y-89680071D01*
X165335713Y-89680071D02*
X165288094Y-89727690D01*
X165288094Y-89727690D02*
X165192856Y-89775309D01*
X165192856Y-89775309D02*
X164859523Y-89775309D01*
X166049999Y-89299119D02*
X166240475Y-89299119D01*
X166240475Y-89299119D02*
X166335713Y-89346738D01*
X166335713Y-89346738D02*
X166430951Y-89441976D01*
X166430951Y-89441976D02*
X166478570Y-89632452D01*
X166478570Y-89632452D02*
X166478570Y-89965785D01*
X166478570Y-89965785D02*
X166430951Y-90156261D01*
X166430951Y-90156261D02*
X166335713Y-90251500D01*
X166335713Y-90251500D02*
X166240475Y-90299119D01*
X166240475Y-90299119D02*
X166049999Y-90299119D01*
X166049999Y-90299119D02*
X165954761Y-90251500D01*
X165954761Y-90251500D02*
X165859523Y-90156261D01*
X165859523Y-90156261D02*
X165811904Y-89965785D01*
X165811904Y-89965785D02*
X165811904Y-89632452D01*
X165811904Y-89632452D02*
X165859523Y-89441976D01*
X165859523Y-89441976D02*
X165954761Y-89346738D01*
X165954761Y-89346738D02*
X166049999Y-89299119D01*
X167097618Y-89299119D02*
X167288094Y-89299119D01*
X167288094Y-89299119D02*
X167383332Y-89346738D01*
X167383332Y-89346738D02*
X167478570Y-89441976D01*
X167478570Y-89441976D02*
X167526189Y-89632452D01*
X167526189Y-89632452D02*
X167526189Y-89965785D01*
X167526189Y-89965785D02*
X167478570Y-90156261D01*
X167478570Y-90156261D02*
X167383332Y-90251500D01*
X167383332Y-90251500D02*
X167288094Y-90299119D01*
X167288094Y-90299119D02*
X167097618Y-90299119D01*
X167097618Y-90299119D02*
X167002380Y-90251500D01*
X167002380Y-90251500D02*
X166907142Y-90156261D01*
X166907142Y-90156261D02*
X166859523Y-89965785D01*
X166859523Y-89965785D02*
X166859523Y-89632452D01*
X166859523Y-89632452D02*
X166907142Y-89441976D01*
X166907142Y-89441976D02*
X167002380Y-89346738D01*
X167002380Y-89346738D02*
X167097618Y-89299119D01*
X167811904Y-89299119D02*
X168383332Y-89299119D01*
X168097618Y-90299119D02*
X168097618Y-89299119D01*
X130483332Y-114803880D02*
X130435713Y-114851500D01*
X130435713Y-114851500D02*
X130292856Y-114899119D01*
X130292856Y-114899119D02*
X130197618Y-114899119D01*
X130197618Y-114899119D02*
X130054761Y-114851500D01*
X130054761Y-114851500D02*
X129959523Y-114756261D01*
X129959523Y-114756261D02*
X129911904Y-114661023D01*
X129911904Y-114661023D02*
X129864285Y-114470547D01*
X129864285Y-114470547D02*
X129864285Y-114327690D01*
X129864285Y-114327690D02*
X129911904Y-114137214D01*
X129911904Y-114137214D02*
X129959523Y-114041976D01*
X129959523Y-114041976D02*
X130054761Y-113946738D01*
X130054761Y-113946738D02*
X130197618Y-113899119D01*
X130197618Y-113899119D02*
X130292856Y-113899119D01*
X130292856Y-113899119D02*
X130435713Y-113946738D01*
X130435713Y-113946738D02*
X130483332Y-113994357D01*
X131054761Y-114327690D02*
X130959523Y-114280071D01*
X130959523Y-114280071D02*
X130911904Y-114232452D01*
X130911904Y-114232452D02*
X130864285Y-114137214D01*
X130864285Y-114137214D02*
X130864285Y-114089595D01*
X130864285Y-114089595D02*
X130911904Y-113994357D01*
X130911904Y-113994357D02*
X130959523Y-113946738D01*
X130959523Y-113946738D02*
X131054761Y-113899119D01*
X131054761Y-113899119D02*
X131245237Y-113899119D01*
X131245237Y-113899119D02*
X131340475Y-113946738D01*
X131340475Y-113946738D02*
X131388094Y-113994357D01*
X131388094Y-113994357D02*
X131435713Y-114089595D01*
X131435713Y-114089595D02*
X131435713Y-114137214D01*
X131435713Y-114137214D02*
X131388094Y-114232452D01*
X131388094Y-114232452D02*
X131340475Y-114280071D01*
X131340475Y-114280071D02*
X131245237Y-114327690D01*
X131245237Y-114327690D02*
X131054761Y-114327690D01*
X131054761Y-114327690D02*
X130959523Y-114375309D01*
X130959523Y-114375309D02*
X130911904Y-114422928D01*
X130911904Y-114422928D02*
X130864285Y-114518166D01*
X130864285Y-114518166D02*
X130864285Y-114708642D01*
X130864285Y-114708642D02*
X130911904Y-114803880D01*
X130911904Y-114803880D02*
X130959523Y-114851500D01*
X130959523Y-114851500D02*
X131054761Y-114899119D01*
X131054761Y-114899119D02*
X131245237Y-114899119D01*
X131245237Y-114899119D02*
X131340475Y-114851500D01*
X131340475Y-114851500D02*
X131388094Y-114803880D01*
X131388094Y-114803880D02*
X131435713Y-114708642D01*
X131435713Y-114708642D02*
X131435713Y-114518166D01*
X131435713Y-114518166D02*
X131388094Y-114422928D01*
X131388094Y-114422928D02*
X131340475Y-114375309D01*
X131340475Y-114375309D02*
X131245237Y-114327690D01*
D13*
%TO.C,U1*%
X140299999Y-68204300D02*
X140299999Y-74404300D01*
X140299999Y-68204300D02*
X158699999Y-68204300D01*
X140299999Y-93054300D02*
X140299999Y-94054300D01*
X140299999Y-94054300D02*
X141799999Y-94054300D01*
X158699999Y-68204300D02*
X158699999Y-74404300D01*
X158699999Y-94054300D02*
X157199999Y-94054300D01*
X158699999Y-94054300D02*
X158699999Y-93054300D01*
X140299999Y-75079300D02*
X139799999Y-75079300D01*
X140299999Y-74579300D01*
X140299999Y-75079300D01*
G36*
X140299999Y-75079300D02*
G01*
X139799999Y-75079300D01*
X140299999Y-74579300D01*
X140299999Y-75079300D01*
G37*
%TO.C,U2*%
X139249999Y-117434300D02*
X143009999Y-117434300D01*
X139249999Y-124254300D02*
X143009999Y-124254300D01*
X143009999Y-117434300D02*
X143009999Y-118694300D01*
X143009999Y-124254300D02*
X143009999Y-122994300D01*
X137969999Y-117534300D02*
X137729999Y-117204300D01*
X138209999Y-117204300D01*
X137969999Y-117534300D01*
G36*
X137969999Y-117534300D02*
G01*
X137729999Y-117204300D01*
X138209999Y-117204300D01*
X137969999Y-117534300D01*
G37*
%TO.C,D7*%
X125424999Y-120304300D02*
X128284999Y-120304300D01*
X128284999Y-118384300D02*
X125424999Y-118384300D01*
X128284999Y-120304300D02*
X128284999Y-118384300D01*
%TO.C,C6*%
X148932917Y-127769300D02*
X150182917Y-127769300D01*
X149557917Y-127144300D02*
X149557917Y-128394300D01*
X155749999Y-125014300D02*
X155749999Y-137674300D01*
X155789999Y-125014300D02*
X155789999Y-137674300D01*
X155829999Y-125015300D02*
X155829999Y-137673300D01*
X155869999Y-125015300D02*
X155869999Y-137673300D01*
X155909999Y-125016300D02*
X155909999Y-137672300D01*
X155949999Y-125017300D02*
X155949999Y-137671300D01*
X155989999Y-125019300D02*
X155989999Y-137669300D01*
X156029999Y-125020300D02*
X156029999Y-137668300D01*
X156069999Y-125022300D02*
X156069999Y-137666300D01*
X156109999Y-125024300D02*
X156109999Y-137664300D01*
X156149999Y-125027300D02*
X156149999Y-137661300D01*
X156189999Y-125029300D02*
X156189999Y-137659300D01*
X156229999Y-125032300D02*
X156229999Y-137656300D01*
X156269999Y-125035300D02*
X156269999Y-137653300D01*
X156309999Y-125039300D02*
X156309999Y-137649300D01*
X156349999Y-125042300D02*
X156349999Y-137646300D01*
X156389999Y-125046300D02*
X156389999Y-137642300D01*
X156429999Y-125050300D02*
X156429999Y-137638300D01*
X156469999Y-125055300D02*
X156469999Y-137633300D01*
X156509999Y-125060300D02*
X156509999Y-137628300D01*
X156549999Y-125064300D02*
X156549999Y-137624300D01*
X156589999Y-125070300D02*
X156589999Y-137618300D01*
X156629999Y-125075300D02*
X156629999Y-137613300D01*
X156669999Y-125081300D02*
X156669999Y-137607300D01*
X156709999Y-125087300D02*
X156709999Y-137601300D01*
X156749999Y-125093300D02*
X156749999Y-137595300D01*
X156789999Y-125099300D02*
X156789999Y-137589300D01*
X156829999Y-125106300D02*
X156829999Y-129904300D01*
X156829999Y-132784300D02*
X156829999Y-137582300D01*
X156869999Y-125113300D02*
X156869999Y-129904300D01*
X156869999Y-132784300D02*
X156869999Y-137575300D01*
X156909999Y-125121300D02*
X156909999Y-129904300D01*
X156909999Y-132784300D02*
X156909999Y-137567300D01*
X156949999Y-125128300D02*
X156949999Y-129904300D01*
X156949999Y-132784300D02*
X156949999Y-137560300D01*
X156989999Y-125136300D02*
X156989999Y-129904300D01*
X156989999Y-132784300D02*
X156989999Y-137552300D01*
X157029999Y-125144300D02*
X157029999Y-129904300D01*
X157029999Y-132784300D02*
X157029999Y-137544300D01*
X157069999Y-125152300D02*
X157069999Y-129904300D01*
X157069999Y-132784300D02*
X157069999Y-137536300D01*
X157109999Y-125161300D02*
X157109999Y-129904300D01*
X157109999Y-132784300D02*
X157109999Y-137527300D01*
X157149999Y-125170300D02*
X157149999Y-129904300D01*
X157149999Y-132784300D02*
X157149999Y-137518300D01*
X157189999Y-125179300D02*
X157189999Y-129904300D01*
X157189999Y-132784300D02*
X157189999Y-137509300D01*
X157229999Y-125188300D02*
X157229999Y-129904300D01*
X157229999Y-132784300D02*
X157229999Y-137500300D01*
X157269999Y-125198300D02*
X157269999Y-129904300D01*
X157269999Y-132784300D02*
X157269999Y-137490300D01*
X157309999Y-125208300D02*
X157309999Y-129904300D01*
X157309999Y-132784300D02*
X157309999Y-137480300D01*
X157349999Y-125218300D02*
X157349999Y-129904300D01*
X157349999Y-132784300D02*
X157349999Y-137470300D01*
X157389999Y-125229300D02*
X157389999Y-129904300D01*
X157389999Y-132784300D02*
X157389999Y-137459300D01*
X157429999Y-125240300D02*
X157429999Y-129904300D01*
X157429999Y-132784300D02*
X157429999Y-137448300D01*
X157469999Y-125251300D02*
X157469999Y-129904300D01*
X157469999Y-132784300D02*
X157469999Y-137437300D01*
X157509999Y-125262300D02*
X157509999Y-129904300D01*
X157509999Y-132784300D02*
X157509999Y-137426300D01*
X157549999Y-125274300D02*
X157549999Y-129904300D01*
X157549999Y-132784300D02*
X157549999Y-137414300D01*
X157589999Y-125286300D02*
X157589999Y-129904300D01*
X157589999Y-132784300D02*
X157589999Y-137402300D01*
X157629999Y-125298300D02*
X157629999Y-129904300D01*
X157629999Y-132784300D02*
X157629999Y-137390300D01*
X157669999Y-125310300D02*
X157669999Y-129904300D01*
X157669999Y-132784300D02*
X157669999Y-137378300D01*
X157709999Y-125323300D02*
X157709999Y-129904300D01*
X157709999Y-132784300D02*
X157709999Y-137365300D01*
X157749999Y-125336300D02*
X157749999Y-129904300D01*
X157749999Y-132784300D02*
X157749999Y-137352300D01*
X157789999Y-125349300D02*
X157789999Y-129904300D01*
X157789999Y-132784300D02*
X157789999Y-137339300D01*
X157829999Y-125363300D02*
X157829999Y-129904300D01*
X157829999Y-132784300D02*
X157829999Y-137325300D01*
X157869999Y-125377300D02*
X157869999Y-129904300D01*
X157869999Y-132784300D02*
X157869999Y-137311300D01*
X157909999Y-125391300D02*
X157909999Y-129904300D01*
X157909999Y-132784300D02*
X157909999Y-137297300D01*
X157949999Y-125406300D02*
X157949999Y-129904300D01*
X157949999Y-132784300D02*
X157949999Y-137282300D01*
X157989999Y-125421300D02*
X157989999Y-129904300D01*
X157989999Y-132784300D02*
X157989999Y-137267300D01*
X158029999Y-125436300D02*
X158029999Y-129904300D01*
X158029999Y-132784300D02*
X158029999Y-137252300D01*
X158069999Y-125452300D02*
X158069999Y-129904300D01*
X158069999Y-132784300D02*
X158069999Y-137236300D01*
X158109999Y-125467300D02*
X158109999Y-129904300D01*
X158109999Y-132784300D02*
X158109999Y-137221300D01*
X158149999Y-125483300D02*
X158149999Y-129904300D01*
X158149999Y-132784300D02*
X158149999Y-137205300D01*
X158189999Y-125500300D02*
X158189999Y-129904300D01*
X158189999Y-132784300D02*
X158189999Y-137188300D01*
X158229999Y-125517300D02*
X158229999Y-129904300D01*
X158229999Y-132784300D02*
X158229999Y-137171300D01*
X158269999Y-125534300D02*
X158269999Y-129904300D01*
X158269999Y-132784300D02*
X158269999Y-137154300D01*
X158309999Y-125551300D02*
X158309999Y-129904300D01*
X158309999Y-132784300D02*
X158309999Y-137137300D01*
X158349999Y-125569300D02*
X158349999Y-129904300D01*
X158349999Y-132784300D02*
X158349999Y-137119300D01*
X158389999Y-125587300D02*
X158389999Y-129904300D01*
X158389999Y-132784300D02*
X158389999Y-137101300D01*
X158429999Y-125605300D02*
X158429999Y-129904300D01*
X158429999Y-132784300D02*
X158429999Y-137083300D01*
X158469999Y-125624300D02*
X158469999Y-129904300D01*
X158469999Y-132784300D02*
X158469999Y-137064300D01*
X158509999Y-125643300D02*
X158509999Y-129904300D01*
X158509999Y-132784300D02*
X158509999Y-137045300D01*
X158549999Y-125662300D02*
X158549999Y-129904300D01*
X158549999Y-132784300D02*
X158549999Y-137026300D01*
X158589999Y-125682300D02*
X158589999Y-129904300D01*
X158589999Y-132784300D02*
X158589999Y-137006300D01*
X158629999Y-125702300D02*
X158629999Y-129904300D01*
X158629999Y-132784300D02*
X158629999Y-136986300D01*
X158669999Y-125723300D02*
X158669999Y-129904300D01*
X158669999Y-132784300D02*
X158669999Y-136965300D01*
X158709999Y-125743300D02*
X158709999Y-129904300D01*
X158709999Y-132784300D02*
X158709999Y-136945300D01*
X158749999Y-125765300D02*
X158749999Y-129904300D01*
X158749999Y-132784300D02*
X158749999Y-136923300D01*
X158789999Y-125786300D02*
X158789999Y-129904300D01*
X158789999Y-132784300D02*
X158789999Y-136902300D01*
X158829999Y-125808300D02*
X158829999Y-129904300D01*
X158829999Y-132784300D02*
X158829999Y-136880300D01*
X158869999Y-125830300D02*
X158869999Y-129904300D01*
X158869999Y-132784300D02*
X158869999Y-136858300D01*
X158909999Y-125853300D02*
X158909999Y-129904300D01*
X158909999Y-132784300D02*
X158909999Y-136835300D01*
X158949999Y-125876300D02*
X158949999Y-129904300D01*
X158949999Y-132784300D02*
X158949999Y-136812300D01*
X158989999Y-125900300D02*
X158989999Y-129904300D01*
X158989999Y-132784300D02*
X158989999Y-136788300D01*
X159029999Y-125923300D02*
X159029999Y-129904300D01*
X159029999Y-132784300D02*
X159029999Y-136765300D01*
X159069999Y-125948300D02*
X159069999Y-129904300D01*
X159069999Y-132784300D02*
X159069999Y-136740300D01*
X159109999Y-125972300D02*
X159109999Y-129904300D01*
X159109999Y-132784300D02*
X159109999Y-136716300D01*
X159149999Y-125997300D02*
X159149999Y-129904300D01*
X159149999Y-132784300D02*
X159149999Y-136691300D01*
X159189999Y-126023300D02*
X159189999Y-129904300D01*
X159189999Y-132784300D02*
X159189999Y-136665300D01*
X159229999Y-126049300D02*
X159229999Y-129904300D01*
X159229999Y-132784300D02*
X159229999Y-136639300D01*
X159269999Y-126075300D02*
X159269999Y-129904300D01*
X159269999Y-132784300D02*
X159269999Y-136613300D01*
X159309999Y-126102300D02*
X159309999Y-129904300D01*
X159309999Y-132784300D02*
X159309999Y-136586300D01*
X159349999Y-126129300D02*
X159349999Y-129904300D01*
X159349999Y-132784300D02*
X159349999Y-136559300D01*
X159389999Y-126156300D02*
X159389999Y-129904300D01*
X159389999Y-132784300D02*
X159389999Y-136532300D01*
X159429999Y-126185300D02*
X159429999Y-129904300D01*
X159429999Y-132784300D02*
X159429999Y-136503300D01*
X159469999Y-126213300D02*
X159469999Y-129904300D01*
X159469999Y-132784300D02*
X159469999Y-136475300D01*
X159509999Y-126242300D02*
X159509999Y-129904300D01*
X159509999Y-132784300D02*
X159509999Y-136446300D01*
X159549999Y-126272300D02*
X159549999Y-129904300D01*
X159549999Y-132784300D02*
X159549999Y-136416300D01*
X159589999Y-126302300D02*
X159589999Y-129904300D01*
X159589999Y-132784300D02*
X159589999Y-136386300D01*
X159629999Y-126332300D02*
X159629999Y-129904300D01*
X159629999Y-132784300D02*
X159629999Y-136356300D01*
X159669999Y-126363300D02*
X159669999Y-129904300D01*
X159669999Y-132784300D02*
X159669999Y-136325300D01*
X159709999Y-126394300D02*
X159709999Y-136294300D01*
X159749999Y-126426300D02*
X159749999Y-136262300D01*
X159789999Y-126459300D02*
X159789999Y-136229300D01*
X159829999Y-126492300D02*
X159829999Y-136196300D01*
X159869999Y-126526300D02*
X159869999Y-136162300D01*
X159909999Y-126560300D02*
X159909999Y-136128300D01*
X159949999Y-126595300D02*
X159949999Y-136093300D01*
X159989999Y-126630300D02*
X159989999Y-136058300D01*
X160029999Y-126666300D02*
X160029999Y-136022300D01*
X160069999Y-126703300D02*
X160069999Y-135985300D01*
X160109999Y-126740300D02*
X160109999Y-135948300D01*
X160149999Y-126778300D02*
X160149999Y-135910300D01*
X160189999Y-126816300D02*
X160189999Y-135872300D01*
X160229999Y-126856300D02*
X160229999Y-135832300D01*
X160269999Y-126896300D02*
X160269999Y-135792300D01*
X160309999Y-126936300D02*
X160309999Y-135752300D01*
X160349999Y-126978300D02*
X160349999Y-135710300D01*
X160389999Y-127020300D02*
X160389999Y-135668300D01*
X160429999Y-127063300D02*
X160429999Y-135625300D01*
X160469999Y-127106300D02*
X160469999Y-135582300D01*
X160509999Y-127151300D02*
X160509999Y-135537300D01*
X160549999Y-127196300D02*
X160549999Y-135492300D01*
X160589999Y-127243300D02*
X160589999Y-135445300D01*
X160629999Y-127290300D02*
X160629999Y-135398300D01*
X160669999Y-127338300D02*
X160669999Y-135350300D01*
X160709999Y-127387300D02*
X160709999Y-135301300D01*
X160749999Y-127437300D02*
X160749999Y-135251300D01*
X160789999Y-127488300D02*
X160789999Y-135200300D01*
X160829999Y-127541300D02*
X160829999Y-135147300D01*
X160869999Y-127594300D02*
X160869999Y-135094300D01*
X160909999Y-127649300D02*
X160909999Y-135039300D01*
X160949999Y-127705300D02*
X160949999Y-134983300D01*
X160989999Y-127762300D02*
X160989999Y-134926300D01*
X161029999Y-127821300D02*
X161029999Y-134867300D01*
X161069999Y-127881300D02*
X161069999Y-134807300D01*
X161109999Y-127942300D02*
X161109999Y-134746300D01*
X161149999Y-128005300D02*
X161149999Y-134683300D01*
X161189999Y-128070300D02*
X161189999Y-134618300D01*
X161229999Y-128136300D02*
X161229999Y-134552300D01*
X161269999Y-128205300D02*
X161269999Y-134483300D01*
X161309999Y-128275300D02*
X161309999Y-134413300D01*
X161349999Y-128348300D02*
X161349999Y-134340300D01*
X161389999Y-128423300D02*
X161389999Y-134265300D01*
X161429999Y-128501300D02*
X161429999Y-134187300D01*
X161469999Y-128581300D02*
X161469999Y-134107300D01*
X161509999Y-128664300D02*
X161509999Y-134024300D01*
X161549999Y-128750300D02*
X161549999Y-133938300D01*
X161589999Y-128840300D02*
X161589999Y-133848300D01*
X161629999Y-128934300D02*
X161629999Y-133754300D01*
X161669999Y-129032300D02*
X161669999Y-133656300D01*
X161709999Y-129136300D02*
X161709999Y-133552300D01*
X161749999Y-129245300D02*
X161749999Y-133443300D01*
X161789999Y-129360300D02*
X161789999Y-133328300D01*
X161829999Y-129484300D02*
X161829999Y-133204300D01*
X161869999Y-129617300D02*
X161869999Y-133071300D01*
X161909999Y-129762300D02*
X161909999Y-132926300D01*
X161949999Y-129922300D02*
X161949999Y-132766300D01*
X161989999Y-130104300D02*
X161989999Y-132584300D01*
X162029999Y-130317300D02*
X162029999Y-132371300D01*
X162069999Y-130587300D02*
X162069999Y-132101300D01*
X162109999Y-131027300D02*
X162109999Y-131661300D01*
X162119999Y-131344300D02*
G75*
G02*
X149379999Y-131344300I-6370000J0D01*
G01*
X149379999Y-131344300D02*
G75*
G02*
X162119999Y-131344300I6370000J0D01*
G01*
%TO.C,C4*%
X149751247Y-120909300D02*
X150273751Y-120909300D01*
X149751247Y-122379300D02*
X150273751Y-122379300D01*
D14*
%TO.C,D5*%
X170087499Y-79031800D02*
X170087499Y-79464300D01*
X170087499Y-82224300D02*
X170087499Y-82656800D01*
X170087499Y-82656800D02*
X174412499Y-82656800D01*
X174412499Y-79031800D02*
X170087499Y-79031800D01*
X174412499Y-79031800D02*
X174412499Y-79464300D01*
X174412499Y-82656800D02*
X174412499Y-82224300D01*
D10*
X176349999Y-80844300D02*
G75*
G02*
X176149999Y-80844300I-100000J0D01*
G01*
X176149999Y-80844300D02*
G75*
G02*
X176349999Y-80844300I100000J0D01*
G01*
D14*
%TO.C,D4*%
X168437499Y-121791800D02*
X168437499Y-126116800D01*
X168437499Y-121791800D02*
X168869999Y-121791800D01*
X168437499Y-126116800D02*
X168869999Y-126116800D01*
X171629999Y-126116800D02*
X172062499Y-126116800D01*
X172062499Y-121791800D02*
X171629999Y-121791800D01*
X172062499Y-126116800D02*
X172062499Y-121791800D01*
D10*
X170349999Y-119954300D02*
G75*
G02*
X170149999Y-119954300I-100000J0D01*
G01*
X170149999Y-119954300D02*
G75*
G02*
X170349999Y-119954300I100000J0D01*
G01*
D13*
%TO.C,R2*%
X138692223Y-112421800D02*
X138182775Y-112421800D01*
X138692223Y-113466800D02*
X138182775Y-113466800D01*
%TO.C,C7*%
X133241232Y-119834300D02*
X133533766Y-119834300D01*
X133241232Y-120854300D02*
X133533766Y-120854300D01*
%TO.C,R1*%
X128014999Y-81117236D02*
X128014999Y-81571364D01*
X129484999Y-81117236D02*
X129484999Y-81571364D01*
%TO.C,D6*%
X136464999Y-109484300D02*
X136464999Y-111404300D01*
X136464999Y-111404300D02*
X139324999Y-111404300D01*
X139324999Y-109484300D02*
X136464999Y-109484300D01*
%TO.C,D8*%
X162414999Y-74884300D02*
X162414999Y-76804300D01*
X162414999Y-76804300D02*
X165274999Y-76804300D01*
X165274999Y-74884300D02*
X162414999Y-74884300D01*
D10*
%TO.C,RESET*%
X122499999Y-80594300D02*
X126999999Y-80594300D01*
X122499999Y-85094300D02*
X122499999Y-80594300D01*
X126999999Y-80594300D02*
X126999999Y-85094300D01*
X126999999Y-85094300D02*
X122499999Y-85094300D01*
X123349999Y-87344300D02*
G75*
G02*
X123149999Y-87344300I-100000J0D01*
G01*
X123149999Y-87344300D02*
G75*
G02*
X123349999Y-87344300I100000J0D01*
G01*
D13*
%TO.C,C12*%
X134432917Y-128269300D02*
X135682917Y-128269300D01*
X135057917Y-127644300D02*
X135057917Y-128894300D01*
X141249999Y-125514300D02*
X141249999Y-138174300D01*
X141289999Y-125514300D02*
X141289999Y-138174300D01*
X141329999Y-125515300D02*
X141329999Y-138173300D01*
X141369999Y-125515300D02*
X141369999Y-138173300D01*
X141409999Y-125516300D02*
X141409999Y-138172300D01*
X141449999Y-125517300D02*
X141449999Y-138171300D01*
X141489999Y-125519300D02*
X141489999Y-138169300D01*
X141529999Y-125520300D02*
X141529999Y-138168300D01*
X141569999Y-125522300D02*
X141569999Y-138166300D01*
X141609999Y-125524300D02*
X141609999Y-138164300D01*
X141649999Y-125527300D02*
X141649999Y-138161300D01*
X141689999Y-125529300D02*
X141689999Y-138159300D01*
X141729999Y-125532300D02*
X141729999Y-138156300D01*
X141769999Y-125535300D02*
X141769999Y-138153300D01*
X141809999Y-125539300D02*
X141809999Y-138149300D01*
X141849999Y-125542300D02*
X141849999Y-138146300D01*
X141889999Y-125546300D02*
X141889999Y-138142300D01*
X141929999Y-125550300D02*
X141929999Y-138138300D01*
X141969999Y-125555300D02*
X141969999Y-138133300D01*
X142009999Y-125560300D02*
X142009999Y-138128300D01*
X142049999Y-125564300D02*
X142049999Y-138124300D01*
X142089999Y-125570300D02*
X142089999Y-138118300D01*
X142129999Y-125575300D02*
X142129999Y-138113300D01*
X142169999Y-125581300D02*
X142169999Y-138107300D01*
X142209999Y-125587300D02*
X142209999Y-138101300D01*
X142249999Y-125593300D02*
X142249999Y-138095300D01*
X142289999Y-125599300D02*
X142289999Y-138089300D01*
X142329999Y-125606300D02*
X142329999Y-130404300D01*
X142329999Y-133284300D02*
X142329999Y-138082300D01*
X142369999Y-125613300D02*
X142369999Y-130404300D01*
X142369999Y-133284300D02*
X142369999Y-138075300D01*
X142409999Y-125621300D02*
X142409999Y-130404300D01*
X142409999Y-133284300D02*
X142409999Y-138067300D01*
X142449999Y-125628300D02*
X142449999Y-130404300D01*
X142449999Y-133284300D02*
X142449999Y-138060300D01*
X142489999Y-125636300D02*
X142489999Y-130404300D01*
X142489999Y-133284300D02*
X142489999Y-138052300D01*
X142529999Y-125644300D02*
X142529999Y-130404300D01*
X142529999Y-133284300D02*
X142529999Y-138044300D01*
X142569999Y-125652300D02*
X142569999Y-130404300D01*
X142569999Y-133284300D02*
X142569999Y-138036300D01*
X142609999Y-125661300D02*
X142609999Y-130404300D01*
X142609999Y-133284300D02*
X142609999Y-138027300D01*
X142649999Y-125670300D02*
X142649999Y-130404300D01*
X142649999Y-133284300D02*
X142649999Y-138018300D01*
X142689999Y-125679300D02*
X142689999Y-130404300D01*
X142689999Y-133284300D02*
X142689999Y-138009300D01*
X142729999Y-125688300D02*
X142729999Y-130404300D01*
X142729999Y-133284300D02*
X142729999Y-138000300D01*
X142769999Y-125698300D02*
X142769999Y-130404300D01*
X142769999Y-133284300D02*
X142769999Y-137990300D01*
X142809999Y-125708300D02*
X142809999Y-130404300D01*
X142809999Y-133284300D02*
X142809999Y-137980300D01*
X142849999Y-125718300D02*
X142849999Y-130404300D01*
X142849999Y-133284300D02*
X142849999Y-137970300D01*
X142889999Y-125729300D02*
X142889999Y-130404300D01*
X142889999Y-133284300D02*
X142889999Y-137959300D01*
X142929999Y-125740300D02*
X142929999Y-130404300D01*
X142929999Y-133284300D02*
X142929999Y-137948300D01*
X142969999Y-125751300D02*
X142969999Y-130404300D01*
X142969999Y-133284300D02*
X142969999Y-137937300D01*
X143009999Y-125762300D02*
X143009999Y-130404300D01*
X143009999Y-133284300D02*
X143009999Y-137926300D01*
X143049999Y-125774300D02*
X143049999Y-130404300D01*
X143049999Y-133284300D02*
X143049999Y-137914300D01*
X143089999Y-125786300D02*
X143089999Y-130404300D01*
X143089999Y-133284300D02*
X143089999Y-137902300D01*
X143129999Y-125798300D02*
X143129999Y-130404300D01*
X143129999Y-133284300D02*
X143129999Y-137890300D01*
X143169999Y-125810300D02*
X143169999Y-130404300D01*
X143169999Y-133284300D02*
X143169999Y-137878300D01*
X143209999Y-125823300D02*
X143209999Y-130404300D01*
X143209999Y-133284300D02*
X143209999Y-137865300D01*
X143249999Y-125836300D02*
X143249999Y-130404300D01*
X143249999Y-133284300D02*
X143249999Y-137852300D01*
X143289999Y-125849300D02*
X143289999Y-130404300D01*
X143289999Y-133284300D02*
X143289999Y-137839300D01*
X143329999Y-125863300D02*
X143329999Y-130404300D01*
X143329999Y-133284300D02*
X143329999Y-137825300D01*
X143369999Y-125877300D02*
X143369999Y-130404300D01*
X143369999Y-133284300D02*
X143369999Y-137811300D01*
X143409999Y-125891300D02*
X143409999Y-130404300D01*
X143409999Y-133284300D02*
X143409999Y-137797300D01*
X143449999Y-125906300D02*
X143449999Y-130404300D01*
X143449999Y-133284300D02*
X143449999Y-137782300D01*
X143489999Y-125921300D02*
X143489999Y-130404300D01*
X143489999Y-133284300D02*
X143489999Y-137767300D01*
X143529999Y-125936300D02*
X143529999Y-130404300D01*
X143529999Y-133284300D02*
X143529999Y-137752300D01*
X143569999Y-125952300D02*
X143569999Y-130404300D01*
X143569999Y-133284300D02*
X143569999Y-137736300D01*
X143609999Y-125967300D02*
X143609999Y-130404300D01*
X143609999Y-133284300D02*
X143609999Y-137721300D01*
X143649999Y-125983300D02*
X143649999Y-130404300D01*
X143649999Y-133284300D02*
X143649999Y-137705300D01*
X143689999Y-126000300D02*
X143689999Y-130404300D01*
X143689999Y-133284300D02*
X143689999Y-137688300D01*
X143729999Y-126017300D02*
X143729999Y-130404300D01*
X143729999Y-133284300D02*
X143729999Y-137671300D01*
X143769999Y-126034300D02*
X143769999Y-130404300D01*
X143769999Y-133284300D02*
X143769999Y-137654300D01*
X143809999Y-126051300D02*
X143809999Y-130404300D01*
X143809999Y-133284300D02*
X143809999Y-137637300D01*
X143849999Y-126069300D02*
X143849999Y-130404300D01*
X143849999Y-133284300D02*
X143849999Y-137619300D01*
X143889999Y-126087300D02*
X143889999Y-130404300D01*
X143889999Y-133284300D02*
X143889999Y-137601300D01*
X143929999Y-126105300D02*
X143929999Y-130404300D01*
X143929999Y-133284300D02*
X143929999Y-137583300D01*
X143969999Y-126124300D02*
X143969999Y-130404300D01*
X143969999Y-133284300D02*
X143969999Y-137564300D01*
X144009999Y-126143300D02*
X144009999Y-130404300D01*
X144009999Y-133284300D02*
X144009999Y-137545300D01*
X144049999Y-126162300D02*
X144049999Y-130404300D01*
X144049999Y-133284300D02*
X144049999Y-137526300D01*
X144089999Y-126182300D02*
X144089999Y-130404300D01*
X144089999Y-133284300D02*
X144089999Y-137506300D01*
X144129999Y-126202300D02*
X144129999Y-130404300D01*
X144129999Y-133284300D02*
X144129999Y-137486300D01*
X144169999Y-126223300D02*
X144169999Y-130404300D01*
X144169999Y-133284300D02*
X144169999Y-137465300D01*
X144209999Y-126243300D02*
X144209999Y-130404300D01*
X144209999Y-133284300D02*
X144209999Y-137445300D01*
X144249999Y-126265300D02*
X144249999Y-130404300D01*
X144249999Y-133284300D02*
X144249999Y-137423300D01*
X144289999Y-126286300D02*
X144289999Y-130404300D01*
X144289999Y-133284300D02*
X144289999Y-137402300D01*
X144329999Y-126308300D02*
X144329999Y-130404300D01*
X144329999Y-133284300D02*
X144329999Y-137380300D01*
X144369999Y-126330300D02*
X144369999Y-130404300D01*
X144369999Y-133284300D02*
X144369999Y-137358300D01*
X144409999Y-126353300D02*
X144409999Y-130404300D01*
X144409999Y-133284300D02*
X144409999Y-137335300D01*
X144449999Y-126376300D02*
X144449999Y-130404300D01*
X144449999Y-133284300D02*
X144449999Y-137312300D01*
X144489999Y-126400300D02*
X144489999Y-130404300D01*
X144489999Y-133284300D02*
X144489999Y-137288300D01*
X144529999Y-126423300D02*
X144529999Y-130404300D01*
X144529999Y-133284300D02*
X144529999Y-137265300D01*
X144569999Y-126448300D02*
X144569999Y-130404300D01*
X144569999Y-133284300D02*
X144569999Y-137240300D01*
X144609999Y-126472300D02*
X144609999Y-130404300D01*
X144609999Y-133284300D02*
X144609999Y-137216300D01*
X144649999Y-126497300D02*
X144649999Y-130404300D01*
X144649999Y-133284300D02*
X144649999Y-137191300D01*
X144689999Y-126523300D02*
X144689999Y-130404300D01*
X144689999Y-133284300D02*
X144689999Y-137165300D01*
X144729999Y-126549300D02*
X144729999Y-130404300D01*
X144729999Y-133284300D02*
X144729999Y-137139300D01*
X144769999Y-126575300D02*
X144769999Y-130404300D01*
X144769999Y-133284300D02*
X144769999Y-137113300D01*
X144809999Y-126602300D02*
X144809999Y-130404300D01*
X144809999Y-133284300D02*
X144809999Y-137086300D01*
X144849999Y-126629300D02*
X144849999Y-130404300D01*
X144849999Y-133284300D02*
X144849999Y-137059300D01*
X144889999Y-126656300D02*
X144889999Y-130404300D01*
X144889999Y-133284300D02*
X144889999Y-137032300D01*
X144929999Y-126685300D02*
X144929999Y-130404300D01*
X144929999Y-133284300D02*
X144929999Y-137003300D01*
X144969999Y-126713300D02*
X144969999Y-130404300D01*
X144969999Y-133284300D02*
X144969999Y-136975300D01*
X145009999Y-126742300D02*
X145009999Y-130404300D01*
X145009999Y-133284300D02*
X145009999Y-136946300D01*
X145049999Y-126772300D02*
X145049999Y-130404300D01*
X145049999Y-133284300D02*
X145049999Y-136916300D01*
X145089999Y-126802300D02*
X145089999Y-130404300D01*
X145089999Y-133284300D02*
X145089999Y-136886300D01*
X145129999Y-126832300D02*
X145129999Y-130404300D01*
X145129999Y-133284300D02*
X145129999Y-136856300D01*
X145169999Y-126863300D02*
X145169999Y-130404300D01*
X145169999Y-133284300D02*
X145169999Y-136825300D01*
X145209999Y-126894300D02*
X145209999Y-136794300D01*
X145249999Y-126926300D02*
X145249999Y-136762300D01*
X145289999Y-126959300D02*
X145289999Y-136729300D01*
X145329999Y-126992300D02*
X145329999Y-136696300D01*
X145369999Y-127026300D02*
X145369999Y-136662300D01*
X145409999Y-127060300D02*
X145409999Y-136628300D01*
X145449999Y-127095300D02*
X145449999Y-136593300D01*
X145489999Y-127130300D02*
X145489999Y-136558300D01*
X145529999Y-127166300D02*
X145529999Y-136522300D01*
X145569999Y-127203300D02*
X145569999Y-136485300D01*
X145609999Y-127240300D02*
X145609999Y-136448300D01*
X145649999Y-127278300D02*
X145649999Y-136410300D01*
X145689999Y-127316300D02*
X145689999Y-136372300D01*
X145729999Y-127356300D02*
X145729999Y-136332300D01*
X145769999Y-127396300D02*
X145769999Y-136292300D01*
X145809999Y-127436300D02*
X145809999Y-136252300D01*
X145849999Y-127478300D02*
X145849999Y-136210300D01*
X145889999Y-127520300D02*
X145889999Y-136168300D01*
X145929999Y-127563300D02*
X145929999Y-136125300D01*
X145969999Y-127606300D02*
X145969999Y-136082300D01*
X146009999Y-127651300D02*
X146009999Y-136037300D01*
X146049999Y-127696300D02*
X146049999Y-135992300D01*
X146089999Y-127743300D02*
X146089999Y-135945300D01*
X146129999Y-127790300D02*
X146129999Y-135898300D01*
X146169999Y-127838300D02*
X146169999Y-135850300D01*
X146209999Y-127887300D02*
X146209999Y-135801300D01*
X146249999Y-127937300D02*
X146249999Y-135751300D01*
X146289999Y-127988300D02*
X146289999Y-135700300D01*
X146329999Y-128041300D02*
X146329999Y-135647300D01*
X146369999Y-128094300D02*
X146369999Y-135594300D01*
X146409999Y-128149300D02*
X146409999Y-135539300D01*
X146449999Y-128205300D02*
X146449999Y-135483300D01*
X146489999Y-128262300D02*
X146489999Y-135426300D01*
X146529999Y-128321300D02*
X146529999Y-135367300D01*
X146569999Y-128381300D02*
X146569999Y-135307300D01*
X146609999Y-128442300D02*
X146609999Y-135246300D01*
X146649999Y-128505300D02*
X146649999Y-135183300D01*
X146689999Y-128570300D02*
X146689999Y-135118300D01*
X146729999Y-128636300D02*
X146729999Y-135052300D01*
X146769999Y-128705300D02*
X146769999Y-134983300D01*
X146809999Y-128775300D02*
X146809999Y-134913300D01*
X146849999Y-128848300D02*
X146849999Y-134840300D01*
X146889999Y-128923300D02*
X146889999Y-134765300D01*
X146929999Y-129001300D02*
X146929999Y-134687300D01*
X146969999Y-129081300D02*
X146969999Y-134607300D01*
X147009999Y-129164300D02*
X147009999Y-134524300D01*
X147049999Y-129250300D02*
X147049999Y-134438300D01*
X147089999Y-129340300D02*
X147089999Y-134348300D01*
X147129999Y-129434300D02*
X147129999Y-134254300D01*
X147169999Y-129532300D02*
X147169999Y-134156300D01*
X147209999Y-129636300D02*
X147209999Y-134052300D01*
X147249999Y-129745300D02*
X147249999Y-133943300D01*
X147289999Y-129860300D02*
X147289999Y-133828300D01*
X147329999Y-129984300D02*
X147329999Y-133704300D01*
X147369999Y-130117300D02*
X147369999Y-133571300D01*
X147409999Y-130262300D02*
X147409999Y-133426300D01*
X147449999Y-130422300D02*
X147449999Y-133266300D01*
X147489999Y-130604300D02*
X147489999Y-133084300D01*
X147529999Y-130817300D02*
X147529999Y-132871300D01*
X147569999Y-131087300D02*
X147569999Y-132601300D01*
X147609999Y-131527300D02*
X147609999Y-132161300D01*
X147619999Y-131844300D02*
G75*
G02*
X134879999Y-131844300I-6370000J0D01*
G01*
X134879999Y-131844300D02*
G75*
G02*
X147619999Y-131844300I6370000J0D01*
G01*
%TO.C,C10*%
X150041232Y-116634300D02*
X150333766Y-116634300D01*
X150041232Y-117654300D02*
X150333766Y-117654300D01*
%TO.C,R3*%
X127592223Y-121321800D02*
X127082775Y-121321800D01*
X127592223Y-122366800D02*
X127082775Y-122366800D01*
D15*
%TO.C,U4*%
X143383899Y-99963200D02*
X143383899Y-100187255D01*
X143383899Y-102101345D02*
X143383899Y-102325400D01*
X143383899Y-102325400D02*
X143857953Y-102325400D01*
X143857953Y-99963200D02*
X143383899Y-99963200D01*
X145272045Y-102325400D02*
X145746099Y-102325400D01*
X145746099Y-99963200D02*
X145272045Y-99963200D01*
X145746099Y-100187255D02*
X145746099Y-99963200D01*
X145746099Y-102325400D02*
X145746099Y-102101345D01*
D16*
G36*
X146025499Y-100834801D02*
G01*
X145771499Y-100834801D01*
X145771499Y-100453801D01*
X146025499Y-100453801D01*
X146025499Y-100834801D01*
G37*
D13*
%TO.C,J3*%
X130099999Y-89544300D02*
X130099999Y-90794300D01*
X130099999Y-90794300D02*
X131349999Y-90794300D01*
X132649999Y-75394300D02*
X132649999Y-76144300D01*
X132649999Y-76144300D02*
X135599999Y-76144300D01*
X132649999Y-89744300D02*
X135599999Y-89744300D01*
X132649999Y-90494300D02*
X132649999Y-89744300D01*
X135599999Y-76144300D02*
X135599999Y-82944300D01*
X135599999Y-89744300D02*
X135599999Y-82944300D01*
X130389999Y-90504300D02*
X136359999Y-90504300D01*
X136359999Y-75384300D01*
X130389999Y-75384300D01*
X130389999Y-90504300D01*
X130399999Y-77194300D02*
X131149999Y-77194300D01*
X131149999Y-75394300D01*
X130399999Y-75394300D01*
X130399999Y-77194300D01*
X130399999Y-87194300D02*
X131149999Y-87194300D01*
X131149999Y-78694300D01*
X130399999Y-78694300D01*
X130399999Y-87194300D01*
X130399999Y-90494300D02*
X131149999Y-90494300D01*
X131149999Y-88694300D01*
X130399999Y-88694300D01*
X130399999Y-90494300D01*
%TO.C,C9*%
X150041232Y-114134300D02*
X150333766Y-114134300D01*
X150041232Y-115154300D02*
X150333766Y-115154300D01*
%TO.C,D1*%
X125599999Y-115354300D02*
X125599999Y-108344300D01*
X125599999Y-115354300D02*
X128899999Y-115354300D01*
X128899999Y-115354300D02*
X128899999Y-108344300D01*
D14*
%TO.C,J4*%
X172749999Y-103344300D02*
X174921999Y-103344300D01*
X172749999Y-111344300D02*
X172749999Y-103344300D01*
X174921999Y-111344300D02*
X172749999Y-111344300D01*
X185749999Y-103344300D02*
X178577999Y-103344300D01*
X185749999Y-103344300D02*
X185749999Y-111344300D01*
X185749999Y-111344300D02*
X178577999Y-111344300D01*
D10*
X172349999Y-107344300D02*
G75*
G02*
X172149999Y-107344300I-100000J0D01*
G01*
X172149999Y-107344300D02*
G75*
G02*
X172349999Y-107344300I100000J0D01*
G01*
D13*
%TO.C,D2*%
X165239999Y-96694300D02*
X165239999Y-99994300D01*
X165239999Y-96694300D02*
X172249999Y-96694300D01*
X165239999Y-99994300D02*
X172249999Y-99994300D01*
%TO.C,C3*%
X127258766Y-89334300D02*
X126966232Y-89334300D01*
X127258766Y-90354300D02*
X126966232Y-90354300D01*
D15*
%TO.C,J1*%
X112721398Y-98264300D02*
X112721398Y-108424300D01*
X112721398Y-108424300D02*
X114510659Y-108424300D01*
X114510659Y-98264300D02*
X112721398Y-98264300D01*
X121966998Y-101157360D02*
X121966998Y-99780740D01*
X121966998Y-106907860D02*
X121966998Y-105531240D01*
%TO.C,U5*%
X167041899Y-107094300D02*
G75*
G02*
X166838699Y-107094300I-101600J0D01*
G01*
X166838699Y-107094300D02*
G75*
G02*
X167041899Y-107094300I101600J0D01*
G01*
%TO.C,U3*%
X143668699Y-106273499D02*
X143668699Y-106475517D01*
X143668699Y-108713081D02*
X143668699Y-108915099D01*
X143668699Y-108915099D02*
X144378409Y-108915099D01*
X144378409Y-106273499D02*
X143668699Y-106273499D01*
X146210189Y-108915099D02*
X146919899Y-108915099D01*
X146919899Y-106273499D02*
X146210189Y-106273499D01*
X146919899Y-106475517D02*
X146919899Y-106273499D01*
X146919899Y-108915099D02*
X146919899Y-108713081D01*
D16*
G36*
X147199299Y-107534800D02*
G01*
X146945299Y-107534800D01*
X146945299Y-107153799D01*
X147199299Y-107153799D01*
X147199299Y-107534800D01*
G37*
D13*
%TO.C,D3*%
X165239999Y-90694300D02*
X165239999Y-93994300D01*
X165239999Y-90694300D02*
X172249999Y-90694300D01*
X165239999Y-93994300D02*
X172249999Y-93994300D01*
%TO.C,C2*%
X133241232Y-115834300D02*
X133533766Y-115834300D01*
X133241232Y-116854300D02*
X133533766Y-116854300D01*
%TO.C,J2*%
X157099999Y-104344300D02*
X157099999Y-112394300D01*
X157099999Y-120444300D02*
X157099999Y-112394300D01*
X160049999Y-103594300D02*
X160049999Y-104344300D01*
X160049999Y-104344300D02*
X157099999Y-104344300D01*
X160049999Y-120444300D02*
X157099999Y-120444300D01*
X160049999Y-121194300D02*
X160049999Y-120444300D01*
X162599999Y-103294300D02*
X161349999Y-103294300D01*
X162599999Y-104544300D02*
X162599999Y-103294300D01*
X162299999Y-103594300D02*
X161549999Y-103594300D01*
X161549999Y-105394300D01*
X162299999Y-105394300D01*
X162299999Y-103594300D01*
X162299999Y-106894300D02*
X161549999Y-106894300D01*
X161549999Y-117894300D01*
X162299999Y-117894300D01*
X162299999Y-106894300D01*
X162299999Y-119394300D02*
X161549999Y-119394300D01*
X161549999Y-121194300D01*
X162299999Y-121194300D01*
X162299999Y-119394300D01*
X162309999Y-103584300D02*
X156339999Y-103584300D01*
X156339999Y-121204300D01*
X162309999Y-121204300D01*
X162309999Y-103584300D01*
%TO.C,C11*%
X133241232Y-117794300D02*
X133533766Y-117794300D01*
X133241232Y-118814300D02*
X133533766Y-118814300D01*
%TO.C,R4*%
X164082775Y-78321800D02*
X164592223Y-78321800D01*
X164082775Y-79366800D02*
X164592223Y-79366800D01*
D15*
%TO.C,CR1*%
X126096699Y-101495300D02*
X128103299Y-101495300D01*
X128103299Y-98193300D02*
X126096699Y-98193300D01*
D13*
%TO.C,C1*%
X127466232Y-75834300D02*
X127758766Y-75834300D01*
X127466232Y-76854300D02*
X127758766Y-76854300D01*
%TO.C,C13*%
X150041232Y-118634300D02*
X150333766Y-118634300D01*
X150041232Y-119654300D02*
X150333766Y-119654300D01*
D14*
%TO.C,J5*%
X176649999Y-90844300D02*
X184249999Y-90844300D01*
X176649999Y-100844300D02*
X176649999Y-90844300D01*
X184249999Y-90844300D02*
X184249999Y-100844300D01*
X184249999Y-100844300D02*
X176649999Y-100844300D01*
D10*
X185349999Y-98344300D02*
G75*
G02*
X185149999Y-98344300I-100000J0D01*
G01*
X185149999Y-98344300D02*
G75*
G02*
X185349999Y-98344300I100000J0D01*
G01*
D13*
%TO.C,C5*%
X132951247Y-111109300D02*
X133473751Y-111109300D01*
X132951247Y-112579300D02*
X133473751Y-112579300D01*
D10*
%TO.C,BOOT*%
X164499999Y-84094300D02*
X168999999Y-84094300D01*
X164499999Y-88594300D02*
X164499999Y-84094300D01*
X168999999Y-84094300D02*
X168999999Y-88594300D01*
X168999999Y-88594300D02*
X164499999Y-88594300D01*
X171349999Y-87844300D02*
G75*
G02*
X171149999Y-87844300I-100000J0D01*
G01*
X171149999Y-87844300D02*
G75*
G02*
X171349999Y-87844300I100000J0D01*
G01*
D13*
%TO.C,C8*%
X133241232Y-113834300D02*
X133533766Y-113834300D01*
X133241232Y-114854300D02*
X133533766Y-114854300D01*
%TD*%
M02*
