%TF.GenerationSoftware,KiCad,Pcbnew,9.0.7*%
%TF.CreationDate,2026-02-01T23:57:56+00:00*%
%TF.ProjectId,ASCEO,41534345-4f2e-46b6-9963-61645f706362,rev?*%
%TF.SameCoordinates,Original*%
%TF.FileFunction,Legend,Bot*%
%TF.FilePolarity,Positive*%
%FSLAX46Y46*%
G04 Gerber Fmt 4.6, Leading zero omitted, Abs format (unit mm)*
G04 Created by KiCad (PCBNEW 9.0.7) date 2026-02-01 23:57:56*
%MOMM*%
%LPD*%
G01*
G04 APERTURE LIST*
%ADD10C,0.100000*%
%ADD11C,0.500000*%
%ADD12C,0.508000*%
G04 APERTURE END LIST*
D10*
X154846114Y-91416719D02*
X154846114Y-90416719D01*
X154846114Y-90416719D02*
X154608019Y-90416719D01*
X154608019Y-90416719D02*
X154465162Y-90464338D01*
X154465162Y-90464338D02*
X154369924Y-90559576D01*
X154369924Y-90559576D02*
X154322305Y-90654814D01*
X154322305Y-90654814D02*
X154274686Y-90845290D01*
X154274686Y-90845290D02*
X154274686Y-90988147D01*
X154274686Y-90988147D02*
X154322305Y-91178623D01*
X154322305Y-91178623D02*
X154369924Y-91273861D01*
X154369924Y-91273861D02*
X154465162Y-91369100D01*
X154465162Y-91369100D02*
X154608019Y-91416719D01*
X154608019Y-91416719D02*
X154846114Y-91416719D01*
X153274686Y-91416719D02*
X153608019Y-90940528D01*
X153846114Y-91416719D02*
X153846114Y-90416719D01*
X153846114Y-90416719D02*
X153465162Y-90416719D01*
X153465162Y-90416719D02*
X153369924Y-90464338D01*
X153369924Y-90464338D02*
X153322305Y-90511957D01*
X153322305Y-90511957D02*
X153274686Y-90607195D01*
X153274686Y-90607195D02*
X153274686Y-90750052D01*
X153274686Y-90750052D02*
X153322305Y-90845290D01*
X153322305Y-90845290D02*
X153369924Y-90892909D01*
X153369924Y-90892909D02*
X153465162Y-90940528D01*
X153465162Y-90940528D02*
X153846114Y-90940528D01*
X152846114Y-91416719D02*
X152846114Y-90416719D01*
X152512781Y-90416719D02*
X152179448Y-91416719D01*
X152179448Y-91416719D02*
X151846115Y-90416719D01*
X151512781Y-90892909D02*
X151179448Y-90892909D01*
X151036591Y-91416719D02*
X151512781Y-91416719D01*
X151512781Y-91416719D02*
X151512781Y-90416719D01*
X151512781Y-90416719D02*
X151036591Y-90416719D01*
X150036591Y-91416719D02*
X150369924Y-90940528D01*
X150608019Y-91416719D02*
X150608019Y-90416719D01*
X150608019Y-90416719D02*
X150227067Y-90416719D01*
X150227067Y-90416719D02*
X150131829Y-90464338D01*
X150131829Y-90464338D02*
X150084210Y-90511957D01*
X150084210Y-90511957D02*
X150036591Y-90607195D01*
X150036591Y-90607195D02*
X150036591Y-90750052D01*
X150036591Y-90750052D02*
X150084210Y-90845290D01*
X150084210Y-90845290D02*
X150131829Y-90892909D01*
X150131829Y-90892909D02*
X150227067Y-90940528D01*
X150227067Y-90940528D02*
X150608019Y-90940528D01*
X148846114Y-91416719D02*
X148846114Y-90416719D01*
X148846114Y-90416719D02*
X148465162Y-90416719D01*
X148465162Y-90416719D02*
X148369924Y-90464338D01*
X148369924Y-90464338D02*
X148322305Y-90511957D01*
X148322305Y-90511957D02*
X148274686Y-90607195D01*
X148274686Y-90607195D02*
X148274686Y-90750052D01*
X148274686Y-90750052D02*
X148322305Y-90845290D01*
X148322305Y-90845290D02*
X148369924Y-90892909D01*
X148369924Y-90892909D02*
X148465162Y-90940528D01*
X148465162Y-90940528D02*
X148846114Y-90940528D01*
X147369924Y-91416719D02*
X147846114Y-91416719D01*
X147846114Y-91416719D02*
X147846114Y-90416719D01*
X147084209Y-91131004D02*
X146608019Y-91131004D01*
X147179447Y-91416719D02*
X146846114Y-90416719D01*
X146846114Y-90416719D02*
X146512781Y-91416719D01*
X146322304Y-90416719D02*
X145750876Y-90416719D01*
X146036590Y-91416719D02*
X146036590Y-90416719D01*
X145084209Y-90892909D02*
X145417542Y-90892909D01*
X145417542Y-91416719D02*
X145417542Y-90416719D01*
X145417542Y-90416719D02*
X144941352Y-90416719D01*
X144369923Y-90416719D02*
X144179447Y-90416719D01*
X144179447Y-90416719D02*
X144084209Y-90464338D01*
X144084209Y-90464338D02*
X143988971Y-90559576D01*
X143988971Y-90559576D02*
X143941352Y-90750052D01*
X143941352Y-90750052D02*
X143941352Y-91083385D01*
X143941352Y-91083385D02*
X143988971Y-91273861D01*
X143988971Y-91273861D02*
X144084209Y-91369100D01*
X144084209Y-91369100D02*
X144179447Y-91416719D01*
X144179447Y-91416719D02*
X144369923Y-91416719D01*
X144369923Y-91416719D02*
X144465161Y-91369100D01*
X144465161Y-91369100D02*
X144560399Y-91273861D01*
X144560399Y-91273861D02*
X144608018Y-91083385D01*
X144608018Y-91083385D02*
X144608018Y-90750052D01*
X144608018Y-90750052D02*
X144560399Y-90559576D01*
X144560399Y-90559576D02*
X144465161Y-90464338D01*
X144465161Y-90464338D02*
X144369923Y-90416719D01*
X142941352Y-91416719D02*
X143274685Y-90940528D01*
X143512780Y-91416719D02*
X143512780Y-90416719D01*
X143512780Y-90416719D02*
X143131828Y-90416719D01*
X143131828Y-90416719D02*
X143036590Y-90464338D01*
X143036590Y-90464338D02*
X142988971Y-90511957D01*
X142988971Y-90511957D02*
X142941352Y-90607195D01*
X142941352Y-90607195D02*
X142941352Y-90750052D01*
X142941352Y-90750052D02*
X142988971Y-90845290D01*
X142988971Y-90845290D02*
X143036590Y-90892909D01*
X143036590Y-90892909D02*
X143131828Y-90940528D01*
X143131828Y-90940528D02*
X143512780Y-90940528D01*
X142512780Y-91416719D02*
X142512780Y-90416719D01*
X142512780Y-90416719D02*
X142179447Y-91131004D01*
X142179447Y-91131004D02*
X141846114Y-90416719D01*
X141846114Y-90416719D02*
X141846114Y-91416719D01*
X168093733Y-94431004D02*
X167617543Y-94431004D01*
X168188971Y-94716719D02*
X167855638Y-93716719D01*
X167855638Y-93716719D02*
X167522305Y-94716719D01*
X166808019Y-94669100D02*
X166903257Y-94716719D01*
X166903257Y-94716719D02*
X167093733Y-94716719D01*
X167093733Y-94716719D02*
X167188971Y-94669100D01*
X167188971Y-94669100D02*
X167236590Y-94573861D01*
X167236590Y-94573861D02*
X167236590Y-94192909D01*
X167236590Y-94192909D02*
X167188971Y-94097671D01*
X167188971Y-94097671D02*
X167093733Y-94050052D01*
X167093733Y-94050052D02*
X166903257Y-94050052D01*
X166903257Y-94050052D02*
X166808019Y-94097671D01*
X166808019Y-94097671D02*
X166760400Y-94192909D01*
X166760400Y-94192909D02*
X166760400Y-94288147D01*
X166760400Y-94288147D02*
X167236590Y-94383385D01*
X166331828Y-94716719D02*
X166331828Y-94050052D01*
X166331828Y-94240528D02*
X166284209Y-94145290D01*
X166284209Y-94145290D02*
X166236590Y-94097671D01*
X166236590Y-94097671D02*
X166141352Y-94050052D01*
X166141352Y-94050052D02*
X166046114Y-94050052D01*
X165712780Y-94716719D02*
X165712780Y-94050052D01*
X165712780Y-93716719D02*
X165760399Y-93764338D01*
X165760399Y-93764338D02*
X165712780Y-93811957D01*
X165712780Y-93811957D02*
X165665161Y-93764338D01*
X165665161Y-93764338D02*
X165712780Y-93716719D01*
X165712780Y-93716719D02*
X165712780Y-93811957D01*
X164808019Y-94716719D02*
X164808019Y-94192909D01*
X164808019Y-94192909D02*
X164855638Y-94097671D01*
X164855638Y-94097671D02*
X164950876Y-94050052D01*
X164950876Y-94050052D02*
X165141352Y-94050052D01*
X165141352Y-94050052D02*
X165236590Y-94097671D01*
X164808019Y-94669100D02*
X164903257Y-94716719D01*
X164903257Y-94716719D02*
X165141352Y-94716719D01*
X165141352Y-94716719D02*
X165236590Y-94669100D01*
X165236590Y-94669100D02*
X165284209Y-94573861D01*
X165284209Y-94573861D02*
X165284209Y-94478623D01*
X165284209Y-94478623D02*
X165236590Y-94383385D01*
X165236590Y-94383385D02*
X165141352Y-94335766D01*
X165141352Y-94335766D02*
X164903257Y-94335766D01*
X164903257Y-94335766D02*
X164808019Y-94288147D01*
X164188971Y-94716719D02*
X164284209Y-94669100D01*
X164284209Y-94669100D02*
X164331828Y-94573861D01*
X164331828Y-94573861D02*
X164331828Y-93716719D01*
X163093732Y-94669100D02*
X162950875Y-94716719D01*
X162950875Y-94716719D02*
X162712780Y-94716719D01*
X162712780Y-94716719D02*
X162617542Y-94669100D01*
X162617542Y-94669100D02*
X162569923Y-94621480D01*
X162569923Y-94621480D02*
X162522304Y-94526242D01*
X162522304Y-94526242D02*
X162522304Y-94431004D01*
X162522304Y-94431004D02*
X162569923Y-94335766D01*
X162569923Y-94335766D02*
X162617542Y-94288147D01*
X162617542Y-94288147D02*
X162712780Y-94240528D01*
X162712780Y-94240528D02*
X162903256Y-94192909D01*
X162903256Y-94192909D02*
X162998494Y-94145290D01*
X162998494Y-94145290D02*
X163046113Y-94097671D01*
X163046113Y-94097671D02*
X163093732Y-94002433D01*
X163093732Y-94002433D02*
X163093732Y-93907195D01*
X163093732Y-93907195D02*
X163046113Y-93811957D01*
X163046113Y-93811957D02*
X162998494Y-93764338D01*
X162998494Y-93764338D02*
X162903256Y-93716719D01*
X162903256Y-93716719D02*
X162665161Y-93716719D01*
X162665161Y-93716719D02*
X162522304Y-93764338D01*
X162093732Y-94050052D02*
X162093732Y-95050052D01*
X162093732Y-94097671D02*
X161998494Y-94050052D01*
X161998494Y-94050052D02*
X161808018Y-94050052D01*
X161808018Y-94050052D02*
X161712780Y-94097671D01*
X161712780Y-94097671D02*
X161665161Y-94145290D01*
X161665161Y-94145290D02*
X161617542Y-94240528D01*
X161617542Y-94240528D02*
X161617542Y-94526242D01*
X161617542Y-94526242D02*
X161665161Y-94621480D01*
X161665161Y-94621480D02*
X161712780Y-94669100D01*
X161712780Y-94669100D02*
X161808018Y-94716719D01*
X161808018Y-94716719D02*
X161998494Y-94716719D01*
X161998494Y-94716719D02*
X162093732Y-94669100D01*
X161188970Y-94716719D02*
X161188970Y-94050052D01*
X161188970Y-93716719D02*
X161236589Y-93764338D01*
X161236589Y-93764338D02*
X161188970Y-93811957D01*
X161188970Y-93811957D02*
X161141351Y-93764338D01*
X161141351Y-93764338D02*
X161188970Y-93716719D01*
X161188970Y-93716719D02*
X161188970Y-93811957D01*
X160712780Y-94050052D02*
X160712780Y-94716719D01*
X160712780Y-94145290D02*
X160665161Y-94097671D01*
X160665161Y-94097671D02*
X160569923Y-94050052D01*
X160569923Y-94050052D02*
X160427066Y-94050052D01*
X160427066Y-94050052D02*
X160331828Y-94097671D01*
X160331828Y-94097671D02*
X160284209Y-94192909D01*
X160284209Y-94192909D02*
X160284209Y-94716719D01*
X159808018Y-94050052D02*
X159808018Y-94716719D01*
X159808018Y-94145290D02*
X159760399Y-94097671D01*
X159760399Y-94097671D02*
X159665161Y-94050052D01*
X159665161Y-94050052D02*
X159522304Y-94050052D01*
X159522304Y-94050052D02*
X159427066Y-94097671D01*
X159427066Y-94097671D02*
X159379447Y-94192909D01*
X159379447Y-94192909D02*
X159379447Y-94716719D01*
X158903256Y-94716719D02*
X158903256Y-94050052D01*
X158903256Y-93716719D02*
X158950875Y-93764338D01*
X158950875Y-93764338D02*
X158903256Y-93811957D01*
X158903256Y-93811957D02*
X158855637Y-93764338D01*
X158855637Y-93764338D02*
X158903256Y-93716719D01*
X158903256Y-93716719D02*
X158903256Y-93811957D01*
X158427066Y-94050052D02*
X158427066Y-94716719D01*
X158427066Y-94145290D02*
X158379447Y-94097671D01*
X158379447Y-94097671D02*
X158284209Y-94050052D01*
X158284209Y-94050052D02*
X158141352Y-94050052D01*
X158141352Y-94050052D02*
X158046114Y-94097671D01*
X158046114Y-94097671D02*
X157998495Y-94192909D01*
X157998495Y-94192909D02*
X157998495Y-94716719D01*
X157093733Y-94050052D02*
X157093733Y-94859576D01*
X157093733Y-94859576D02*
X157141352Y-94954814D01*
X157141352Y-94954814D02*
X157188971Y-95002433D01*
X157188971Y-95002433D02*
X157284209Y-95050052D01*
X157284209Y-95050052D02*
X157427066Y-95050052D01*
X157427066Y-95050052D02*
X157522304Y-95002433D01*
X157093733Y-94669100D02*
X157188971Y-94716719D01*
X157188971Y-94716719D02*
X157379447Y-94716719D01*
X157379447Y-94716719D02*
X157474685Y-94669100D01*
X157474685Y-94669100D02*
X157522304Y-94621480D01*
X157522304Y-94621480D02*
X157569923Y-94526242D01*
X157569923Y-94526242D02*
X157569923Y-94240528D01*
X157569923Y-94240528D02*
X157522304Y-94145290D01*
X157522304Y-94145290D02*
X157474685Y-94097671D01*
X157474685Y-94097671D02*
X157379447Y-94050052D01*
X157379447Y-94050052D02*
X157188971Y-94050052D01*
X157188971Y-94050052D02*
X157093733Y-94097671D01*
X155284209Y-94621480D02*
X155331828Y-94669100D01*
X155331828Y-94669100D02*
X155474685Y-94716719D01*
X155474685Y-94716719D02*
X155569923Y-94716719D01*
X155569923Y-94716719D02*
X155712780Y-94669100D01*
X155712780Y-94669100D02*
X155808018Y-94573861D01*
X155808018Y-94573861D02*
X155855637Y-94478623D01*
X155855637Y-94478623D02*
X155903256Y-94288147D01*
X155903256Y-94288147D02*
X155903256Y-94145290D01*
X155903256Y-94145290D02*
X155855637Y-93954814D01*
X155855637Y-93954814D02*
X155808018Y-93859576D01*
X155808018Y-93859576D02*
X155712780Y-93764338D01*
X155712780Y-93764338D02*
X155569923Y-93716719D01*
X155569923Y-93716719D02*
X155474685Y-93716719D01*
X155474685Y-93716719D02*
X155331828Y-93764338D01*
X155331828Y-93764338D02*
X155284209Y-93811957D01*
X154427066Y-94716719D02*
X154427066Y-94192909D01*
X154427066Y-94192909D02*
X154474685Y-94097671D01*
X154474685Y-94097671D02*
X154569923Y-94050052D01*
X154569923Y-94050052D02*
X154760399Y-94050052D01*
X154760399Y-94050052D02*
X154855637Y-94097671D01*
X154427066Y-94669100D02*
X154522304Y-94716719D01*
X154522304Y-94716719D02*
X154760399Y-94716719D01*
X154760399Y-94716719D02*
X154855637Y-94669100D01*
X154855637Y-94669100D02*
X154903256Y-94573861D01*
X154903256Y-94573861D02*
X154903256Y-94478623D01*
X154903256Y-94478623D02*
X154855637Y-94383385D01*
X154855637Y-94383385D02*
X154760399Y-94335766D01*
X154760399Y-94335766D02*
X154522304Y-94335766D01*
X154522304Y-94335766D02*
X154427066Y-94288147D01*
X153950875Y-94716719D02*
X153950875Y-94050052D01*
X153950875Y-94145290D02*
X153903256Y-94097671D01*
X153903256Y-94097671D02*
X153808018Y-94050052D01*
X153808018Y-94050052D02*
X153665161Y-94050052D01*
X153665161Y-94050052D02*
X153569923Y-94097671D01*
X153569923Y-94097671D02*
X153522304Y-94192909D01*
X153522304Y-94192909D02*
X153522304Y-94716719D01*
X153522304Y-94192909D02*
X153474685Y-94097671D01*
X153474685Y-94097671D02*
X153379447Y-94050052D01*
X153379447Y-94050052D02*
X153236590Y-94050052D01*
X153236590Y-94050052D02*
X153141351Y-94097671D01*
X153141351Y-94097671D02*
X153093732Y-94192909D01*
X153093732Y-94192909D02*
X153093732Y-94716719D01*
X152236590Y-94669100D02*
X152331828Y-94716719D01*
X152331828Y-94716719D02*
X152522304Y-94716719D01*
X152522304Y-94716719D02*
X152617542Y-94669100D01*
X152617542Y-94669100D02*
X152665161Y-94573861D01*
X152665161Y-94573861D02*
X152665161Y-94192909D01*
X152665161Y-94192909D02*
X152617542Y-94097671D01*
X152617542Y-94097671D02*
X152522304Y-94050052D01*
X152522304Y-94050052D02*
X152331828Y-94050052D01*
X152331828Y-94050052D02*
X152236590Y-94097671D01*
X152236590Y-94097671D02*
X152188971Y-94192909D01*
X152188971Y-94192909D02*
X152188971Y-94288147D01*
X152188971Y-94288147D02*
X152665161Y-94383385D01*
X151760399Y-94716719D02*
X151760399Y-94050052D01*
X151760399Y-94240528D02*
X151712780Y-94145290D01*
X151712780Y-94145290D02*
X151665161Y-94097671D01*
X151665161Y-94097671D02*
X151569923Y-94050052D01*
X151569923Y-94050052D02*
X151474685Y-94050052D01*
X150712780Y-94716719D02*
X150712780Y-94192909D01*
X150712780Y-94192909D02*
X150760399Y-94097671D01*
X150760399Y-94097671D02*
X150855637Y-94050052D01*
X150855637Y-94050052D02*
X151046113Y-94050052D01*
X151046113Y-94050052D02*
X151141351Y-94097671D01*
X150712780Y-94669100D02*
X150808018Y-94716719D01*
X150808018Y-94716719D02*
X151046113Y-94716719D01*
X151046113Y-94716719D02*
X151141351Y-94669100D01*
X151141351Y-94669100D02*
X151188970Y-94573861D01*
X151188970Y-94573861D02*
X151188970Y-94478623D01*
X151188970Y-94478623D02*
X151141351Y-94383385D01*
X151141351Y-94383385D02*
X151046113Y-94335766D01*
X151046113Y-94335766D02*
X150808018Y-94335766D01*
X150808018Y-94335766D02*
X150712780Y-94288147D01*
X149474684Y-94192909D02*
X149141351Y-94192909D01*
X148998494Y-94716719D02*
X149474684Y-94716719D01*
X149474684Y-94716719D02*
X149474684Y-93716719D01*
X149474684Y-93716719D02*
X148998494Y-93716719D01*
X148665160Y-94716719D02*
X148141351Y-94050052D01*
X148665160Y-94050052D02*
X148141351Y-94716719D01*
X147760398Y-94050052D02*
X147760398Y-95050052D01*
X147760398Y-94097671D02*
X147665160Y-94050052D01*
X147665160Y-94050052D02*
X147474684Y-94050052D01*
X147474684Y-94050052D02*
X147379446Y-94097671D01*
X147379446Y-94097671D02*
X147331827Y-94145290D01*
X147331827Y-94145290D02*
X147284208Y-94240528D01*
X147284208Y-94240528D02*
X147284208Y-94526242D01*
X147284208Y-94526242D02*
X147331827Y-94621480D01*
X147331827Y-94621480D02*
X147379446Y-94669100D01*
X147379446Y-94669100D02*
X147474684Y-94716719D01*
X147474684Y-94716719D02*
X147665160Y-94716719D01*
X147665160Y-94716719D02*
X147760398Y-94669100D01*
X146474684Y-94669100D02*
X146569922Y-94716719D01*
X146569922Y-94716719D02*
X146760398Y-94716719D01*
X146760398Y-94716719D02*
X146855636Y-94669100D01*
X146855636Y-94669100D02*
X146903255Y-94573861D01*
X146903255Y-94573861D02*
X146903255Y-94192909D01*
X146903255Y-94192909D02*
X146855636Y-94097671D01*
X146855636Y-94097671D02*
X146760398Y-94050052D01*
X146760398Y-94050052D02*
X146569922Y-94050052D01*
X146569922Y-94050052D02*
X146474684Y-94097671D01*
X146474684Y-94097671D02*
X146427065Y-94192909D01*
X146427065Y-94192909D02*
X146427065Y-94288147D01*
X146427065Y-94288147D02*
X146903255Y-94383385D01*
X145998493Y-94716719D02*
X145998493Y-94050052D01*
X145998493Y-94240528D02*
X145950874Y-94145290D01*
X145950874Y-94145290D02*
X145903255Y-94097671D01*
X145903255Y-94097671D02*
X145808017Y-94050052D01*
X145808017Y-94050052D02*
X145712779Y-94050052D01*
X145379445Y-94716719D02*
X145379445Y-94050052D01*
X145379445Y-93716719D02*
X145427064Y-93764338D01*
X145427064Y-93764338D02*
X145379445Y-93811957D01*
X145379445Y-93811957D02*
X145331826Y-93764338D01*
X145331826Y-93764338D02*
X145379445Y-93716719D01*
X145379445Y-93716719D02*
X145379445Y-93811957D01*
X144903255Y-94716719D02*
X144903255Y-94050052D01*
X144903255Y-94145290D02*
X144855636Y-94097671D01*
X144855636Y-94097671D02*
X144760398Y-94050052D01*
X144760398Y-94050052D02*
X144617541Y-94050052D01*
X144617541Y-94050052D02*
X144522303Y-94097671D01*
X144522303Y-94097671D02*
X144474684Y-94192909D01*
X144474684Y-94192909D02*
X144474684Y-94716719D01*
X144474684Y-94192909D02*
X144427065Y-94097671D01*
X144427065Y-94097671D02*
X144331827Y-94050052D01*
X144331827Y-94050052D02*
X144188970Y-94050052D01*
X144188970Y-94050052D02*
X144093731Y-94097671D01*
X144093731Y-94097671D02*
X144046112Y-94192909D01*
X144046112Y-94192909D02*
X144046112Y-94716719D01*
X143188970Y-94669100D02*
X143284208Y-94716719D01*
X143284208Y-94716719D02*
X143474684Y-94716719D01*
X143474684Y-94716719D02*
X143569922Y-94669100D01*
X143569922Y-94669100D02*
X143617541Y-94573861D01*
X143617541Y-94573861D02*
X143617541Y-94192909D01*
X143617541Y-94192909D02*
X143569922Y-94097671D01*
X143569922Y-94097671D02*
X143474684Y-94050052D01*
X143474684Y-94050052D02*
X143284208Y-94050052D01*
X143284208Y-94050052D02*
X143188970Y-94097671D01*
X143188970Y-94097671D02*
X143141351Y-94192909D01*
X143141351Y-94192909D02*
X143141351Y-94288147D01*
X143141351Y-94288147D02*
X143617541Y-94383385D01*
X142712779Y-94050052D02*
X142712779Y-94716719D01*
X142712779Y-94145290D02*
X142665160Y-94097671D01*
X142665160Y-94097671D02*
X142569922Y-94050052D01*
X142569922Y-94050052D02*
X142427065Y-94050052D01*
X142427065Y-94050052D02*
X142331827Y-94097671D01*
X142331827Y-94097671D02*
X142284208Y-94192909D01*
X142284208Y-94192909D02*
X142284208Y-94716719D01*
X141950874Y-94050052D02*
X141569922Y-94050052D01*
X141808017Y-93716719D02*
X141808017Y-94573861D01*
X141808017Y-94573861D02*
X141760398Y-94669100D01*
X141760398Y-94669100D02*
X141665160Y-94716719D01*
X141665160Y-94716719D02*
X141569922Y-94716719D01*
X140617540Y-94050052D02*
X140236588Y-94050052D01*
X140474683Y-94716719D02*
X140474683Y-93859576D01*
X140474683Y-93859576D02*
X140427064Y-93764338D01*
X140427064Y-93764338D02*
X140331826Y-93716719D01*
X140331826Y-93716719D02*
X140236588Y-93716719D01*
X139760397Y-94716719D02*
X139855635Y-94669100D01*
X139855635Y-94669100D02*
X139903254Y-94621480D01*
X139903254Y-94621480D02*
X139950873Y-94526242D01*
X139950873Y-94526242D02*
X139950873Y-94240528D01*
X139950873Y-94240528D02*
X139903254Y-94145290D01*
X139903254Y-94145290D02*
X139855635Y-94097671D01*
X139855635Y-94097671D02*
X139760397Y-94050052D01*
X139760397Y-94050052D02*
X139617540Y-94050052D01*
X139617540Y-94050052D02*
X139522302Y-94097671D01*
X139522302Y-94097671D02*
X139474683Y-94145290D01*
X139474683Y-94145290D02*
X139427064Y-94240528D01*
X139427064Y-94240528D02*
X139427064Y-94526242D01*
X139427064Y-94526242D02*
X139474683Y-94621480D01*
X139474683Y-94621480D02*
X139522302Y-94669100D01*
X139522302Y-94669100D02*
X139617540Y-94716719D01*
X139617540Y-94716719D02*
X139760397Y-94716719D01*
X138998492Y-94716719D02*
X138998492Y-94050052D01*
X138998492Y-94240528D02*
X138950873Y-94145290D01*
X138950873Y-94145290D02*
X138903254Y-94097671D01*
X138903254Y-94097671D02*
X138808016Y-94050052D01*
X138808016Y-94050052D02*
X138712778Y-94050052D01*
X137427063Y-93716719D02*
X137236587Y-93716719D01*
X137236587Y-93716719D02*
X137141349Y-93764338D01*
X137141349Y-93764338D02*
X137046111Y-93859576D01*
X137046111Y-93859576D02*
X136998492Y-94050052D01*
X136998492Y-94050052D02*
X136998492Y-94383385D01*
X136998492Y-94383385D02*
X137046111Y-94573861D01*
X137046111Y-94573861D02*
X137141349Y-94669100D01*
X137141349Y-94669100D02*
X137236587Y-94716719D01*
X137236587Y-94716719D02*
X137427063Y-94716719D01*
X137427063Y-94716719D02*
X137522301Y-94669100D01*
X137522301Y-94669100D02*
X137617539Y-94573861D01*
X137617539Y-94573861D02*
X137665158Y-94383385D01*
X137665158Y-94383385D02*
X137665158Y-94050052D01*
X137665158Y-94050052D02*
X137617539Y-93859576D01*
X137617539Y-93859576D02*
X137522301Y-93764338D01*
X137522301Y-93764338D02*
X137427063Y-93716719D01*
X136569920Y-94716719D02*
X136569920Y-93716719D01*
X136569920Y-94097671D02*
X136474682Y-94050052D01*
X136474682Y-94050052D02*
X136284206Y-94050052D01*
X136284206Y-94050052D02*
X136188968Y-94097671D01*
X136188968Y-94097671D02*
X136141349Y-94145290D01*
X136141349Y-94145290D02*
X136093730Y-94240528D01*
X136093730Y-94240528D02*
X136093730Y-94526242D01*
X136093730Y-94526242D02*
X136141349Y-94621480D01*
X136141349Y-94621480D02*
X136188968Y-94669100D01*
X136188968Y-94669100D02*
X136284206Y-94716719D01*
X136284206Y-94716719D02*
X136474682Y-94716719D01*
X136474682Y-94716719D02*
X136569920Y-94669100D01*
X135712777Y-94669100D02*
X135617539Y-94716719D01*
X135617539Y-94716719D02*
X135427063Y-94716719D01*
X135427063Y-94716719D02*
X135331825Y-94669100D01*
X135331825Y-94669100D02*
X135284206Y-94573861D01*
X135284206Y-94573861D02*
X135284206Y-94526242D01*
X135284206Y-94526242D02*
X135331825Y-94431004D01*
X135331825Y-94431004D02*
X135427063Y-94383385D01*
X135427063Y-94383385D02*
X135569920Y-94383385D01*
X135569920Y-94383385D02*
X135665158Y-94335766D01*
X135665158Y-94335766D02*
X135712777Y-94240528D01*
X135712777Y-94240528D02*
X135712777Y-94192909D01*
X135712777Y-94192909D02*
X135665158Y-94097671D01*
X135665158Y-94097671D02*
X135569920Y-94050052D01*
X135569920Y-94050052D02*
X135427063Y-94050052D01*
X135427063Y-94050052D02*
X135331825Y-94097671D01*
X134474682Y-94669100D02*
X134569920Y-94716719D01*
X134569920Y-94716719D02*
X134760396Y-94716719D01*
X134760396Y-94716719D02*
X134855634Y-94669100D01*
X134855634Y-94669100D02*
X134903253Y-94573861D01*
X134903253Y-94573861D02*
X134903253Y-94192909D01*
X134903253Y-94192909D02*
X134855634Y-94097671D01*
X134855634Y-94097671D02*
X134760396Y-94050052D01*
X134760396Y-94050052D02*
X134569920Y-94050052D01*
X134569920Y-94050052D02*
X134474682Y-94097671D01*
X134474682Y-94097671D02*
X134427063Y-94192909D01*
X134427063Y-94192909D02*
X134427063Y-94288147D01*
X134427063Y-94288147D02*
X134903253Y-94383385D01*
X133998491Y-94716719D02*
X133998491Y-94050052D01*
X133998491Y-94240528D02*
X133950872Y-94145290D01*
X133950872Y-94145290D02*
X133903253Y-94097671D01*
X133903253Y-94097671D02*
X133808015Y-94050052D01*
X133808015Y-94050052D02*
X133712777Y-94050052D01*
X133474681Y-94050052D02*
X133236586Y-94716719D01*
X133236586Y-94716719D02*
X132998491Y-94050052D01*
X132188967Y-94716719D02*
X132188967Y-94192909D01*
X132188967Y-94192909D02*
X132236586Y-94097671D01*
X132236586Y-94097671D02*
X132331824Y-94050052D01*
X132331824Y-94050052D02*
X132522300Y-94050052D01*
X132522300Y-94050052D02*
X132617538Y-94097671D01*
X132188967Y-94669100D02*
X132284205Y-94716719D01*
X132284205Y-94716719D02*
X132522300Y-94716719D01*
X132522300Y-94716719D02*
X132617538Y-94669100D01*
X132617538Y-94669100D02*
X132665157Y-94573861D01*
X132665157Y-94573861D02*
X132665157Y-94478623D01*
X132665157Y-94478623D02*
X132617538Y-94383385D01*
X132617538Y-94383385D02*
X132522300Y-94335766D01*
X132522300Y-94335766D02*
X132284205Y-94335766D01*
X132284205Y-94335766D02*
X132188967Y-94288147D01*
X131855633Y-94050052D02*
X131474681Y-94050052D01*
X131712776Y-93716719D02*
X131712776Y-94573861D01*
X131712776Y-94573861D02*
X131665157Y-94669100D01*
X131665157Y-94669100D02*
X131569919Y-94716719D01*
X131569919Y-94716719D02*
X131474681Y-94716719D01*
X131141347Y-94716719D02*
X131141347Y-94050052D01*
X131141347Y-93716719D02*
X131188966Y-93764338D01*
X131188966Y-93764338D02*
X131141347Y-93811957D01*
X131141347Y-93811957D02*
X131093728Y-93764338D01*
X131093728Y-93764338D02*
X131141347Y-93716719D01*
X131141347Y-93716719D02*
X131141347Y-93811957D01*
X130522300Y-94716719D02*
X130617538Y-94669100D01*
X130617538Y-94669100D02*
X130665157Y-94621480D01*
X130665157Y-94621480D02*
X130712776Y-94526242D01*
X130712776Y-94526242D02*
X130712776Y-94240528D01*
X130712776Y-94240528D02*
X130665157Y-94145290D01*
X130665157Y-94145290D02*
X130617538Y-94097671D01*
X130617538Y-94097671D02*
X130522300Y-94050052D01*
X130522300Y-94050052D02*
X130379443Y-94050052D01*
X130379443Y-94050052D02*
X130284205Y-94097671D01*
X130284205Y-94097671D02*
X130236586Y-94145290D01*
X130236586Y-94145290D02*
X130188967Y-94240528D01*
X130188967Y-94240528D02*
X130188967Y-94526242D01*
X130188967Y-94526242D02*
X130236586Y-94621480D01*
X130236586Y-94621480D02*
X130284205Y-94669100D01*
X130284205Y-94669100D02*
X130379443Y-94716719D01*
X130379443Y-94716719D02*
X130522300Y-94716719D01*
X129760395Y-94050052D02*
X129760395Y-94716719D01*
X129760395Y-94145290D02*
X129712776Y-94097671D01*
X129712776Y-94097671D02*
X129617538Y-94050052D01*
X129617538Y-94050052D02*
X129474681Y-94050052D01*
X129474681Y-94050052D02*
X129379443Y-94097671D01*
X129379443Y-94097671D02*
X129331824Y-94192909D01*
X129331824Y-94192909D02*
X129331824Y-94716719D01*
D11*
G36*
X143232761Y-118568724D02*
G01*
X143232761Y-119419177D01*
X143239545Y-119525348D01*
X143258002Y-119608944D01*
X143286006Y-119674289D01*
X143348439Y-119764831D01*
X143426909Y-119841810D01*
X143523166Y-119906198D01*
X143629080Y-119953713D01*
X143737214Y-119981812D01*
X143848986Y-119991194D01*
X143952654Y-119982292D01*
X144083114Y-119952280D01*
X144246303Y-119895305D01*
X144448724Y-119804470D01*
X144448724Y-119342607D01*
X144437472Y-119250484D01*
X144409767Y-119198138D01*
X144365360Y-119165929D01*
X144308040Y-119154907D01*
X144251877Y-119165867D01*
X144207656Y-119198138D01*
X144179951Y-119250484D01*
X144168700Y-119342607D01*
X144168700Y-119617869D01*
X144037214Y-119672186D01*
X143928885Y-119701114D01*
X143839460Y-119709826D01*
X143767152Y-119701759D01*
X143689129Y-119676243D01*
X143618322Y-119637681D01*
X143571648Y-119596009D01*
X143538016Y-119548135D01*
X143519746Y-119504052D01*
X143512908Y-119386205D01*
X143512908Y-118568724D01*
X143853138Y-118568724D01*
X143944951Y-118557514D01*
X143997241Y-118529889D01*
X144029253Y-118485485D01*
X144040228Y-118428040D01*
X144029249Y-118370617D01*
X143997241Y-118326313D01*
X143944938Y-118298597D01*
X143853138Y-118287356D01*
X143068874Y-118287356D01*
X142976986Y-118298606D01*
X142924771Y-118326313D01*
X142892667Y-118370627D01*
X142881662Y-118428040D01*
X142892663Y-118485475D01*
X142924771Y-118529889D01*
X142976972Y-118557506D01*
X143068874Y-118568724D01*
X143232761Y-118568724D01*
G37*
G36*
X142215924Y-118260987D02*
G01*
X142343938Y-118298801D01*
X142466704Y-118362606D01*
X142585884Y-118455029D01*
X142686097Y-118563880D01*
X142763180Y-118683060D01*
X142818646Y-118814039D01*
X142852768Y-118958950D01*
X142864565Y-119120468D01*
X142852753Y-119282023D01*
X142818605Y-119426779D01*
X142763127Y-119557442D01*
X142686057Y-119676169D01*
X142585884Y-119784443D01*
X142466704Y-119876865D01*
X142343938Y-119940670D01*
X142215924Y-119978485D01*
X142080423Y-119991194D01*
X141959604Y-119981389D01*
X141845793Y-119952369D01*
X141737358Y-119903922D01*
X141633004Y-119834778D01*
X141531854Y-119742677D01*
X141446944Y-119638874D01*
X141381302Y-119526245D01*
X141333961Y-119403515D01*
X141304852Y-119268956D01*
X141294816Y-119120468D01*
X141574841Y-119120468D01*
X141585109Y-119246420D01*
X141614637Y-119357151D01*
X141662536Y-119455342D01*
X141729324Y-119543009D01*
X141812364Y-119618408D01*
X141897595Y-119669681D01*
X141986312Y-119699758D01*
X142080423Y-119709826D01*
X142173729Y-119699753D01*
X142261958Y-119669616D01*
X142347011Y-119618135D01*
X142430179Y-119542276D01*
X142496998Y-119454246D01*
X142544854Y-119356017D01*
X142574311Y-119245628D01*
X142584540Y-119120468D01*
X142574318Y-118995253D01*
X142544870Y-118884712D01*
X142497012Y-118786253D01*
X142430179Y-118697928D01*
X142346967Y-118621704D01*
X142261902Y-118570005D01*
X142173691Y-118539753D01*
X142080423Y-118529645D01*
X141986351Y-118539750D01*
X141897652Y-118569941D01*
X141812409Y-118621432D01*
X141729324Y-118697196D01*
X141662512Y-118785218D01*
X141614613Y-118883663D01*
X141585099Y-118994529D01*
X141574841Y-119120468D01*
X141294816Y-119120468D01*
X141304868Y-118971327D01*
X141334008Y-118836315D01*
X141381372Y-118713311D01*
X141447005Y-118600568D01*
X141531854Y-118496794D01*
X141633004Y-118404693D01*
X141737358Y-118335549D01*
X141845793Y-118287102D01*
X141959604Y-118258082D01*
X142080423Y-118248277D01*
X142215924Y-118260987D01*
G37*
G36*
X140753086Y-118816386D02*
G01*
X140753086Y-119662932D01*
X140651969Y-119662932D01*
X140560080Y-119674181D01*
X140507866Y-119701888D01*
X140475762Y-119746203D01*
X140464757Y-119803616D01*
X140475758Y-119861050D01*
X140507866Y-119905465D01*
X140560067Y-119933081D01*
X140651969Y-119944300D01*
X141019432Y-119944300D01*
X141111353Y-119933086D01*
X141163658Y-119905465D01*
X141195670Y-119861061D01*
X141206644Y-119803616D01*
X141195800Y-119746141D01*
X141164268Y-119701888D01*
X141114035Y-119673827D01*
X141033110Y-119662932D01*
X141033110Y-118568724D01*
X141076829Y-118568724D01*
X141168750Y-118557510D01*
X141221055Y-118529889D01*
X141253067Y-118485485D01*
X141264042Y-118428040D01*
X141253063Y-118370617D01*
X141221055Y-118326313D01*
X141168737Y-118298601D01*
X141076829Y-118287356D01*
X140753086Y-118287356D01*
X140037210Y-119411117D01*
X140037210Y-118568724D01*
X140138204Y-118568724D01*
X140230125Y-118557510D01*
X140282430Y-118529889D01*
X140314442Y-118485485D01*
X140325416Y-118428040D01*
X140314438Y-118370617D01*
X140282430Y-118326313D01*
X140230112Y-118298601D01*
X140138204Y-118287356D01*
X139770741Y-118287356D01*
X139678852Y-118298606D01*
X139626637Y-118326313D01*
X139594534Y-118370627D01*
X139583529Y-118428040D01*
X139594369Y-118485536D01*
X139625905Y-118529889D01*
X139675963Y-118557902D01*
X139755720Y-118568724D01*
X139755720Y-119944300D01*
X140033058Y-119944300D01*
X140753086Y-118816386D01*
G37*
G36*
X139267654Y-118298606D02*
G01*
X139319868Y-118326313D01*
X139351877Y-118370617D01*
X139362855Y-118428040D01*
X139351881Y-118485485D01*
X139319868Y-118529889D01*
X139267667Y-118557506D01*
X139175765Y-118568724D01*
X138992705Y-118568724D01*
X139432587Y-119662932D01*
X139527175Y-119674178D01*
X139581453Y-119701888D01*
X139615180Y-119746377D01*
X139626637Y-119803616D01*
X139615636Y-119861050D01*
X139583529Y-119905465D01*
X139531327Y-119933081D01*
X139439425Y-119944300D01*
X139062314Y-119944300D01*
X138970413Y-119933081D01*
X138918211Y-119905465D01*
X138886104Y-119861050D01*
X138875102Y-119803616D01*
X138886108Y-119746203D01*
X138918211Y-119701888D01*
X138970426Y-119674181D01*
X139062314Y-119662932D01*
X139130702Y-119662932D01*
X139062314Y-119483169D01*
X138381976Y-119483169D01*
X138315053Y-119662932D01*
X138383319Y-119662932D01*
X138475227Y-119674177D01*
X138527545Y-119701888D01*
X138559553Y-119746192D01*
X138570531Y-119803616D01*
X138559557Y-119861061D01*
X138527545Y-119905465D01*
X138475240Y-119933086D01*
X138383319Y-119944300D01*
X138006208Y-119944300D01*
X137914424Y-119933053D01*
X137862838Y-119905465D01*
X137831302Y-119861112D01*
X137820462Y-119803616D01*
X137835099Y-119745377D01*
X137883354Y-119688333D01*
X137923967Y-119670889D01*
X138013047Y-119662932D01*
X138199931Y-119201801D01*
X138498113Y-119201801D01*
X138950329Y-119201801D01*
X138723550Y-118657262D01*
X138498113Y-119201801D01*
X138199931Y-119201801D01*
X138570531Y-118287356D01*
X139175765Y-118287356D01*
X139267654Y-118298606D01*
G37*
G36*
X136909802Y-118568724D02*
G01*
X136909802Y-119662932D01*
X136721247Y-119662932D01*
X136629358Y-119674181D01*
X136577143Y-119701888D01*
X136545135Y-119746192D01*
X136534157Y-119803616D01*
X136545131Y-119861061D01*
X136577143Y-119905465D01*
X136629345Y-119933081D01*
X136721247Y-119944300D01*
X137377039Y-119944300D01*
X137468960Y-119933086D01*
X137521264Y-119905465D01*
X137553276Y-119861061D01*
X137564251Y-119803616D01*
X137553272Y-119746192D01*
X137521264Y-119701888D01*
X137468947Y-119674177D01*
X137377039Y-119662932D01*
X137189949Y-119662932D01*
X137189949Y-118568724D01*
X137493176Y-118568724D01*
X137493176Y-118834460D01*
X137504432Y-118926691D01*
X137532133Y-118979052D01*
X137576520Y-119011069D01*
X137633860Y-119022039D01*
X137690149Y-119011125D01*
X137734366Y-118979052D01*
X137762067Y-118926691D01*
X137773323Y-118834460D01*
X137773323Y-118287356D01*
X136322276Y-118287356D01*
X136322276Y-118834460D01*
X136333531Y-118926691D01*
X136361233Y-118979052D01*
X136405637Y-119011064D01*
X136463082Y-119022039D01*
X136519266Y-119011131D01*
X136563466Y-118979052D01*
X136591167Y-118926691D01*
X136602423Y-118834460D01*
X136602423Y-118568724D01*
X136909802Y-118568724D01*
G37*
G36*
X135060640Y-119256512D02*
G01*
X135659035Y-119256512D01*
X135659035Y-119662932D01*
X135615315Y-119662932D01*
X135523427Y-119674181D01*
X135471212Y-119701888D01*
X135439108Y-119746203D01*
X135428103Y-119803616D01*
X135439104Y-119861050D01*
X135471212Y-119905465D01*
X135523413Y-119933081D01*
X135615315Y-119944300D01*
X135958232Y-119944300D01*
X136050153Y-119933086D01*
X136102457Y-119905465D01*
X136134470Y-119861061D01*
X136145444Y-119803616D01*
X136138652Y-119764721D01*
X136117476Y-119727148D01*
X136078522Y-119689432D01*
X136035596Y-119671302D01*
X135939059Y-119662932D01*
X135939059Y-118568724D01*
X136006056Y-118558201D01*
X136050434Y-118529889D01*
X136078276Y-118485932D01*
X136088047Y-118428040D01*
X136077068Y-118370617D01*
X136045060Y-118326313D01*
X135992743Y-118298601D01*
X135900835Y-118287356D01*
X135615315Y-118287356D01*
X135523427Y-118298606D01*
X135471212Y-118326313D01*
X135439108Y-118370627D01*
X135428103Y-118428040D01*
X135439104Y-118485475D01*
X135471212Y-118529889D01*
X135523413Y-118557506D01*
X135615315Y-118568724D01*
X135659035Y-118568724D01*
X135659035Y-118975144D01*
X135060640Y-118975144D01*
X135060640Y-118568724D01*
X135104359Y-118568724D01*
X135196261Y-118557506D01*
X135248462Y-118529889D01*
X135280475Y-118485485D01*
X135291449Y-118428040D01*
X135280470Y-118370617D01*
X135248462Y-118326313D01*
X135196248Y-118298606D01*
X135104359Y-118287356D01*
X134818717Y-118287356D01*
X134726936Y-118298602D01*
X134674736Y-118326313D01*
X134642632Y-118370627D01*
X134631627Y-118428040D01*
X134641398Y-118485932D01*
X134669240Y-118529889D01*
X134713517Y-118558197D01*
X134780493Y-118568724D01*
X134780493Y-119662932D01*
X134682870Y-119671058D01*
X134641152Y-119688333D01*
X134602165Y-119726732D01*
X134581000Y-119764671D01*
X134574230Y-119803616D01*
X134585231Y-119861050D01*
X134617339Y-119905465D01*
X134669540Y-119933081D01*
X134761442Y-119944300D01*
X135104359Y-119944300D01*
X135196261Y-119933081D01*
X135248462Y-119905465D01*
X135280475Y-119861061D01*
X135291449Y-119803616D01*
X135280310Y-119746254D01*
X135247730Y-119701888D01*
X135195071Y-119674110D01*
X135104359Y-119662932D01*
X135060640Y-119662932D01*
X135060640Y-119256512D01*
G37*
G36*
X133823739Y-118260987D02*
G01*
X133951753Y-118298801D01*
X134074519Y-118362606D01*
X134193700Y-118455029D01*
X134293913Y-118563880D01*
X134370996Y-118683060D01*
X134426461Y-118814039D01*
X134460584Y-118958950D01*
X134472381Y-119120468D01*
X134460569Y-119282023D01*
X134426421Y-119426779D01*
X134370943Y-119557442D01*
X134293873Y-119676169D01*
X134193700Y-119784443D01*
X134074519Y-119876865D01*
X133951753Y-119940670D01*
X133823739Y-119978485D01*
X133688239Y-119991194D01*
X133567419Y-119981389D01*
X133453609Y-119952369D01*
X133345173Y-119903922D01*
X133240820Y-119834778D01*
X133139670Y-119742677D01*
X133054760Y-119638874D01*
X132989118Y-119526245D01*
X132941777Y-119403515D01*
X132912668Y-119268956D01*
X132902632Y-119120468D01*
X133182656Y-119120468D01*
X133192925Y-119246420D01*
X133222453Y-119357151D01*
X133270352Y-119455342D01*
X133337140Y-119543009D01*
X133420180Y-119618408D01*
X133505411Y-119669681D01*
X133594128Y-119699758D01*
X133688239Y-119709826D01*
X133781545Y-119699753D01*
X133869774Y-119669616D01*
X133954827Y-119618135D01*
X134037995Y-119542276D01*
X134104813Y-119454246D01*
X134152670Y-119356017D01*
X134182127Y-119245628D01*
X134192356Y-119120468D01*
X134182134Y-118995253D01*
X134152686Y-118884712D01*
X134104828Y-118786253D01*
X134037995Y-118697928D01*
X133954782Y-118621704D01*
X133869717Y-118570005D01*
X133781506Y-118539753D01*
X133688239Y-118529645D01*
X133594167Y-118539750D01*
X133505467Y-118569941D01*
X133420224Y-118621432D01*
X133337140Y-118697196D01*
X133270328Y-118785218D01*
X133222428Y-118883663D01*
X133192915Y-118994529D01*
X133182656Y-119120468D01*
X132902632Y-119120468D01*
X132912684Y-118971327D01*
X132941823Y-118836315D01*
X132989187Y-118713311D01*
X133054821Y-118600568D01*
X133139670Y-118496794D01*
X133240820Y-118404693D01*
X133345173Y-118335549D01*
X133453609Y-118287102D01*
X133567419Y-118258082D01*
X133688239Y-118248277D01*
X133823739Y-118260987D01*
G37*
G36*
X132360901Y-118816386D02*
G01*
X132360901Y-119662932D01*
X132259785Y-119662932D01*
X132167896Y-119674181D01*
X132115681Y-119701888D01*
X132083578Y-119746203D01*
X132072573Y-119803616D01*
X132083574Y-119861050D01*
X132115681Y-119905465D01*
X132167883Y-119933081D01*
X132259785Y-119944300D01*
X132627248Y-119944300D01*
X132719169Y-119933086D01*
X132771474Y-119905465D01*
X132803486Y-119861061D01*
X132814460Y-119803616D01*
X132803616Y-119746141D01*
X132772084Y-119701888D01*
X132721851Y-119673827D01*
X132640926Y-119662932D01*
X132640926Y-118568724D01*
X132684645Y-118568724D01*
X132776566Y-118557510D01*
X132828871Y-118529889D01*
X132860883Y-118485485D01*
X132871857Y-118428040D01*
X132860879Y-118370617D01*
X132828871Y-118326313D01*
X132776553Y-118298601D01*
X132684645Y-118287356D01*
X132360901Y-118287356D01*
X131645025Y-119411117D01*
X131645025Y-118568724D01*
X131746020Y-118568724D01*
X131837941Y-118557510D01*
X131890245Y-118529889D01*
X131922258Y-118485485D01*
X131933232Y-118428040D01*
X131922253Y-118370617D01*
X131890245Y-118326313D01*
X131837928Y-118298601D01*
X131746020Y-118287356D01*
X131378557Y-118287356D01*
X131286668Y-118298606D01*
X131234453Y-118326313D01*
X131202350Y-118370627D01*
X131191344Y-118428040D01*
X131202185Y-118485536D01*
X131233721Y-118529889D01*
X131283779Y-118557902D01*
X131363536Y-118568724D01*
X131363536Y-119944300D01*
X131640873Y-119944300D01*
X132360901Y-118816386D01*
G37*
G36*
X128214268Y-118365514D02*
G01*
X128186166Y-118330364D01*
X128157604Y-118306895D01*
X128125534Y-118292210D01*
X128091292Y-118287356D01*
X128035048Y-118298103D01*
X127990908Y-118329610D01*
X127963226Y-118381195D01*
X127951952Y-118472858D01*
X127951952Y-118710140D01*
X127963194Y-118801813D01*
X127990908Y-118853999D01*
X128035108Y-118886079D01*
X128091292Y-118896986D01*
X128143019Y-118888866D01*
X128181540Y-118866089D01*
X128209121Y-118826405D01*
X128232098Y-118750318D01*
X128247184Y-118698460D01*
X128270322Y-118662879D01*
X128334916Y-118609989D01*
X128426882Y-118566037D01*
X128528114Y-118538623D01*
X128628382Y-118529645D01*
X128749761Y-118543516D01*
X128859314Y-118584355D01*
X128924485Y-118626681D01*
X128986290Y-118685104D01*
X129045060Y-118762164D01*
X129089099Y-118847491D01*
X129116219Y-118944176D01*
X129125661Y-119054767D01*
X129125661Y-119236606D01*
X129116232Y-119334891D01*
X129088806Y-119422613D01*
X129043473Y-119501985D01*
X128978748Y-119574516D01*
X128901928Y-119631513D01*
X128810402Y-119673597D01*
X128701276Y-119700307D01*
X128570863Y-119709826D01*
X128422088Y-119698311D01*
X128307203Y-119667084D01*
X128245916Y-119632822D01*
X128173358Y-119569142D01*
X128105092Y-119511990D01*
X128048916Y-119498801D01*
X127996830Y-119509259D01*
X127950608Y-119541421D01*
X127918718Y-119588084D01*
X127908232Y-119641805D01*
X127921045Y-119698242D01*
X127965629Y-119765636D01*
X128059413Y-119850537D01*
X128180074Y-119916944D01*
X128299686Y-119957658D01*
X128428980Y-119982626D01*
X128569520Y-119991194D01*
X128732750Y-119979347D01*
X128881346Y-119944871D01*
X129017705Y-119888490D01*
X129117682Y-119824846D01*
X129209021Y-119739362D01*
X129292356Y-119629104D01*
X129355499Y-119506854D01*
X129393037Y-119378644D01*
X129405685Y-119242223D01*
X129405685Y-119051958D01*
X129394265Y-118908463D01*
X129360436Y-118772871D01*
X129303958Y-118643340D01*
X129226577Y-118525617D01*
X129132933Y-118428834D01*
X129021735Y-118350981D01*
X128898222Y-118293619D01*
X128771282Y-118259647D01*
X128639129Y-118248277D01*
X128520104Y-118255695D01*
X128411739Y-118277220D01*
X128309364Y-118313795D01*
X128214268Y-118365514D01*
G37*
G36*
X126668455Y-119256512D02*
G01*
X127266850Y-119256512D01*
X127266850Y-119662932D01*
X127223131Y-119662932D01*
X127131242Y-119674181D01*
X127079028Y-119701888D01*
X127046924Y-119746203D01*
X127035919Y-119803616D01*
X127046920Y-119861050D01*
X127079028Y-119905465D01*
X127131229Y-119933081D01*
X127223131Y-119944300D01*
X127566048Y-119944300D01*
X127657969Y-119933086D01*
X127710273Y-119905465D01*
X127742285Y-119861061D01*
X127753260Y-119803616D01*
X127746468Y-119764721D01*
X127725292Y-119727148D01*
X127686337Y-119689432D01*
X127643412Y-119671302D01*
X127546875Y-119662932D01*
X127546875Y-118568724D01*
X127613871Y-118558201D01*
X127658249Y-118529889D01*
X127686092Y-118485932D01*
X127695863Y-118428040D01*
X127684884Y-118370617D01*
X127652876Y-118326313D01*
X127600559Y-118298601D01*
X127508651Y-118287356D01*
X127223131Y-118287356D01*
X127131242Y-118298606D01*
X127079028Y-118326313D01*
X127046924Y-118370627D01*
X127035919Y-118428040D01*
X127046920Y-118485475D01*
X127079028Y-118529889D01*
X127131229Y-118557506D01*
X127223131Y-118568724D01*
X127266850Y-118568724D01*
X127266850Y-118975144D01*
X126668455Y-118975144D01*
X126668455Y-118568724D01*
X126712175Y-118568724D01*
X126804076Y-118557506D01*
X126856278Y-118529889D01*
X126888290Y-118485485D01*
X126899265Y-118428040D01*
X126888286Y-118370617D01*
X126856278Y-118326313D01*
X126804063Y-118298606D01*
X126712175Y-118287356D01*
X126426533Y-118287356D01*
X126334752Y-118298602D01*
X126282552Y-118326313D01*
X126250448Y-118370627D01*
X126239443Y-118428040D01*
X126249214Y-118485932D01*
X126277056Y-118529889D01*
X126321333Y-118558197D01*
X126388309Y-118568724D01*
X126388309Y-119662932D01*
X126290685Y-119671058D01*
X126248968Y-119688333D01*
X126209980Y-119726732D01*
X126188816Y-119764671D01*
X126182046Y-119803616D01*
X126193047Y-119861050D01*
X126225155Y-119905465D01*
X126277356Y-119933081D01*
X126369258Y-119944300D01*
X126712175Y-119944300D01*
X126804076Y-119933081D01*
X126856278Y-119905465D01*
X126888290Y-119861061D01*
X126899265Y-119803616D01*
X126888126Y-119746254D01*
X126855545Y-119701888D01*
X126802887Y-119674110D01*
X126712175Y-119662932D01*
X126668455Y-119662932D01*
X126668455Y-119256512D01*
G37*
G36*
X125584261Y-119256512D02*
G01*
X125584261Y-119662932D01*
X124869729Y-119662932D01*
X124869729Y-119514432D01*
X124858469Y-119422220D01*
X124830772Y-119369962D01*
X124786375Y-119337849D01*
X124729045Y-119326854D01*
X124672788Y-119337798D01*
X124628661Y-119369962D01*
X124600965Y-119422220D01*
X124589704Y-119514432D01*
X124589704Y-119944300D01*
X125908127Y-119944300D01*
X126000029Y-119933081D01*
X126052231Y-119905465D01*
X126084243Y-119861061D01*
X126095217Y-119803616D01*
X126084078Y-119746254D01*
X126051498Y-119701888D01*
X125998839Y-119674110D01*
X125908127Y-119662932D01*
X125864408Y-119662932D01*
X125864408Y-118568724D01*
X125908127Y-118568724D01*
X126000029Y-118557506D01*
X126052231Y-118529889D01*
X126084243Y-118485485D01*
X126095217Y-118428040D01*
X126084239Y-118370617D01*
X126052231Y-118326313D01*
X126000016Y-118298606D01*
X125908127Y-118287356D01*
X124651132Y-118288699D01*
X124651132Y-118717223D01*
X124662230Y-118809520D01*
X124689478Y-118861815D01*
X124733262Y-118893808D01*
X124790472Y-118904802D01*
X124847917Y-118893827D01*
X124892321Y-118861815D01*
X124920023Y-118809455D01*
X124931278Y-118717223D01*
X124931278Y-118568724D01*
X125584261Y-118568724D01*
X125584261Y-118975144D01*
X125338309Y-118975144D01*
X125331610Y-118883330D01*
X125317792Y-118846184D01*
X125285835Y-118813744D01*
X125246570Y-118794368D01*
X125197625Y-118787565D01*
X125141451Y-118798500D01*
X125097241Y-118830674D01*
X125069545Y-118882932D01*
X125058284Y-118975144D01*
X125058284Y-119256512D01*
X125065362Y-119348317D01*
X125080144Y-119386327D01*
X125112805Y-119418544D01*
X125151309Y-119437526D01*
X125197625Y-119444090D01*
X125246570Y-119437288D01*
X125285835Y-119417912D01*
X125317792Y-119385472D01*
X125331610Y-119348325D01*
X125338309Y-119256512D01*
X125584261Y-119256512D01*
G37*
G36*
X123968717Y-118816386D02*
G01*
X123968717Y-119662932D01*
X123867601Y-119662932D01*
X123775712Y-119674181D01*
X123723497Y-119701888D01*
X123691394Y-119746203D01*
X123680388Y-119803616D01*
X123691390Y-119861050D01*
X123723497Y-119905465D01*
X123775699Y-119933081D01*
X123867601Y-119944300D01*
X124235064Y-119944300D01*
X124326985Y-119933086D01*
X124379289Y-119905465D01*
X124411301Y-119861061D01*
X124422276Y-119803616D01*
X124411432Y-119746141D01*
X124379900Y-119701888D01*
X124329666Y-119673827D01*
X124248741Y-119662932D01*
X124248741Y-118568724D01*
X124292461Y-118568724D01*
X124384382Y-118557510D01*
X124436686Y-118529889D01*
X124468699Y-118485485D01*
X124479673Y-118428040D01*
X124468694Y-118370617D01*
X124436686Y-118326313D01*
X124384369Y-118298601D01*
X124292461Y-118287356D01*
X123968717Y-118287356D01*
X123252841Y-119411117D01*
X123252841Y-118568724D01*
X123353836Y-118568724D01*
X123445757Y-118557510D01*
X123498061Y-118529889D01*
X123530073Y-118485485D01*
X123541048Y-118428040D01*
X123530069Y-118370617D01*
X123498061Y-118326313D01*
X123445744Y-118298601D01*
X123353836Y-118287356D01*
X122986372Y-118287356D01*
X122894484Y-118298606D01*
X122842269Y-118326313D01*
X122810166Y-118370627D01*
X122799160Y-118428040D01*
X122810000Y-118485536D01*
X122841536Y-118529889D01*
X122891595Y-118557902D01*
X122971351Y-118568724D01*
X122971351Y-119944300D01*
X123248689Y-119944300D01*
X123968717Y-118816386D01*
G37*
G36*
X121234174Y-119436274D02*
G01*
X121234174Y-119813019D01*
X121419257Y-119903572D01*
X121557307Y-119953459D01*
X121693899Y-119981506D01*
X121844903Y-119991194D01*
X121986741Y-119983793D01*
X122118851Y-119962152D01*
X122242409Y-119926836D01*
X122375162Y-119868544D01*
X122468577Y-119802272D01*
X122544239Y-119714432D01*
X122620985Y-119579767D01*
X122659141Y-119479540D01*
X122682544Y-119370328D01*
X122690594Y-119250528D01*
X122690594Y-119047806D01*
X122679754Y-118910200D01*
X122647843Y-118782017D01*
X122594911Y-118661364D01*
X122519868Y-118546742D01*
X122420670Y-118438610D01*
X122310526Y-118356188D01*
X122187993Y-118297170D01*
X122050689Y-118260870D01*
X121895462Y-118248277D01*
X121782498Y-118254258D01*
X121677597Y-118271724D01*
X121576776Y-118301103D01*
X121481470Y-118342066D01*
X121423318Y-118299667D01*
X121372171Y-118287356D01*
X121316118Y-118298288D01*
X121272520Y-118330343D01*
X121245308Y-118382663D01*
X121234174Y-118475912D01*
X121234174Y-118660193D01*
X121245437Y-118753491D01*
X121273131Y-118806494D01*
X121317382Y-118839051D01*
X121373515Y-118850092D01*
X121419584Y-118842391D01*
X121458267Y-118819683D01*
X121481021Y-118791008D01*
X121504062Y-118727970D01*
X121525831Y-118663560D01*
X121545706Y-118631861D01*
X121591696Y-118596896D01*
X121676254Y-118560786D01*
X121773279Y-118537751D01*
X121885814Y-118529645D01*
X121995195Y-118537717D01*
X122091014Y-118560831D01*
X122175486Y-118598033D01*
X122228863Y-118637047D01*
X122282504Y-118694489D01*
X122336686Y-118774498D01*
X122377681Y-118860828D01*
X122402177Y-118951499D01*
X122410448Y-119047928D01*
X122410448Y-119250283D01*
X122401268Y-119362381D01*
X122375621Y-119454499D01*
X122335191Y-119530428D01*
X122280022Y-119592956D01*
X122212455Y-119640201D01*
X122124309Y-119676710D01*
X122010607Y-119700904D01*
X121865298Y-119709826D01*
X121738505Y-119701514D01*
X121621986Y-119677273D01*
X121514199Y-119637653D01*
X121514199Y-119436274D01*
X121799841Y-119436274D01*
X121891654Y-119425064D01*
X121943944Y-119397440D01*
X121975956Y-119353035D01*
X121986931Y-119295590D01*
X121975952Y-119238167D01*
X121943944Y-119193863D01*
X121891641Y-119166148D01*
X121799841Y-119154907D01*
X121302440Y-119154907D01*
X121210552Y-119166156D01*
X121158337Y-119193863D01*
X121126329Y-119238167D01*
X121115350Y-119295590D01*
X121123195Y-119354152D01*
X121144781Y-119397440D01*
X121180525Y-119426008D01*
X121234174Y-119436274D01*
G37*
G36*
X139762559Y-121928724D02*
G01*
X139762559Y-122725688D01*
X139774443Y-122852281D01*
X139809166Y-122966725D01*
X139866745Y-123071608D01*
X139949039Y-123168745D01*
X140047875Y-123249136D01*
X140154320Y-123305518D01*
X140270147Y-123339552D01*
X140397835Y-123351194D01*
X140524510Y-123339533D01*
X140641711Y-123305154D01*
X140749542Y-123248712D01*
X140846631Y-123170088D01*
X140928773Y-123077256D01*
X140988048Y-122984219D01*
X141014615Y-122917729D01*
X141032160Y-122832948D01*
X141038606Y-122725688D01*
X141038606Y-121928724D01*
X141119543Y-121917859D01*
X141169764Y-121889889D01*
X141201300Y-121845536D01*
X141212141Y-121788040D01*
X141201296Y-121730565D01*
X141169764Y-121686313D01*
X141117905Y-121658668D01*
X141024928Y-121647356D01*
X140657465Y-121647356D01*
X140565577Y-121658606D01*
X140513362Y-121686313D01*
X140481258Y-121730627D01*
X140470253Y-121788040D01*
X140481254Y-121845475D01*
X140513362Y-121889889D01*
X140565563Y-121917506D01*
X140657465Y-121928724D01*
X140758582Y-121928724D01*
X140758582Y-122750235D01*
X140747304Y-122829930D01*
X140713387Y-122903405D01*
X140654046Y-122973106D01*
X140579645Y-123026804D01*
X140496549Y-123058839D01*
X140401987Y-123069826D01*
X140306582Y-123058149D01*
X140217462Y-123023176D01*
X140139811Y-122966448D01*
X140076778Y-122887377D01*
X140051588Y-122826805D01*
X140042584Y-122750235D01*
X140042584Y-121928724D01*
X140143700Y-121928724D01*
X140235621Y-121917510D01*
X140287926Y-121889889D01*
X140319938Y-121845485D01*
X140330912Y-121788040D01*
X140319934Y-121730617D01*
X140287926Y-121686313D01*
X140235608Y-121658601D01*
X140143700Y-121647356D01*
X139776237Y-121647356D01*
X139684348Y-121658606D01*
X139632134Y-121686313D01*
X139600030Y-121730627D01*
X139589025Y-121788040D01*
X139599865Y-121845536D01*
X139631401Y-121889889D01*
X139681622Y-121917859D01*
X139762559Y-121928724D01*
G37*
G36*
X138284890Y-121725514D02*
G01*
X138256788Y-121690364D01*
X138228226Y-121666895D01*
X138196156Y-121652210D01*
X138161914Y-121647356D01*
X138105670Y-121658103D01*
X138061530Y-121689610D01*
X138033848Y-121741195D01*
X138022573Y-121832858D01*
X138022573Y-122070140D01*
X138033816Y-122161813D01*
X138061530Y-122213999D01*
X138105730Y-122246079D01*
X138161914Y-122256986D01*
X138213641Y-122248866D01*
X138252162Y-122226089D01*
X138279743Y-122186405D01*
X138302720Y-122110318D01*
X138317806Y-122058460D01*
X138340944Y-122022879D01*
X138405537Y-121969989D01*
X138497504Y-121926037D01*
X138598735Y-121898623D01*
X138699004Y-121889645D01*
X138820383Y-121903516D01*
X138929935Y-121944355D01*
X138995106Y-121986681D01*
X139056912Y-122045104D01*
X139115682Y-122122164D01*
X139159721Y-122207491D01*
X139186841Y-122304176D01*
X139196282Y-122414767D01*
X139196282Y-122596606D01*
X139186854Y-122694891D01*
X139159428Y-122782613D01*
X139114095Y-122861985D01*
X139049370Y-122934516D01*
X138972550Y-122991513D01*
X138881024Y-123033597D01*
X138771898Y-123060307D01*
X138641485Y-123069826D01*
X138492709Y-123058311D01*
X138377825Y-123027084D01*
X138316538Y-122992822D01*
X138243979Y-122929142D01*
X138175714Y-122871990D01*
X138119538Y-122858801D01*
X138067452Y-122869259D01*
X138021230Y-122901421D01*
X137989340Y-122948084D01*
X137978854Y-123001805D01*
X137991667Y-123058242D01*
X138036251Y-123125636D01*
X138130034Y-123210537D01*
X138250696Y-123276944D01*
X138370308Y-123317658D01*
X138499602Y-123342626D01*
X138640141Y-123351194D01*
X138803372Y-123339347D01*
X138951968Y-123304871D01*
X139088327Y-123248490D01*
X139188304Y-123184846D01*
X139279643Y-123099362D01*
X139362978Y-122989104D01*
X139426121Y-122866854D01*
X139463658Y-122738644D01*
X139476307Y-122602223D01*
X139476307Y-122411958D01*
X139464886Y-122268463D01*
X139431058Y-122132871D01*
X139374580Y-122003340D01*
X139297198Y-121885617D01*
X139203555Y-121788834D01*
X139092357Y-121710981D01*
X138968844Y-121653619D01*
X138841904Y-121619647D01*
X138709751Y-121608277D01*
X138590726Y-121615695D01*
X138482360Y-121637220D01*
X138379986Y-121673795D01*
X138284890Y-121725514D01*
G37*
G36*
X137162594Y-121928724D02*
G01*
X137162594Y-123022932D01*
X136558704Y-123022932D01*
X136558704Y-122757196D01*
X136547444Y-122664984D01*
X136519747Y-122612726D01*
X136475349Y-122580613D01*
X136418020Y-122569617D01*
X136361741Y-122580557D01*
X136317514Y-122612726D01*
X136289817Y-122664984D01*
X136278557Y-122757196D01*
X136278557Y-123304300D01*
X137605284Y-123304300D01*
X137697098Y-123293090D01*
X137749388Y-123265465D01*
X137781400Y-123221061D01*
X137792374Y-123163616D01*
X137781396Y-123106192D01*
X137749388Y-123061888D01*
X137697085Y-123034173D01*
X137605284Y-123022932D01*
X137442619Y-123022932D01*
X137442619Y-121928724D01*
X137605284Y-121928724D01*
X137697098Y-121917514D01*
X137749388Y-121889889D01*
X137781400Y-121845485D01*
X137792374Y-121788040D01*
X137781396Y-121730617D01*
X137749388Y-121686313D01*
X137697085Y-121658597D01*
X137605284Y-121647356D01*
X136998585Y-121647356D01*
X136906697Y-121658606D01*
X136854482Y-121686313D01*
X136822474Y-121730617D01*
X136811495Y-121788040D01*
X136822470Y-121845485D01*
X136854482Y-121889889D01*
X136906684Y-121917506D01*
X136998585Y-121928724D01*
X137162594Y-121928724D01*
G37*
G36*
X134393564Y-121658601D02*
G01*
X134445881Y-121686313D01*
X134477889Y-121730617D01*
X134488868Y-121788040D01*
X134477893Y-121845485D01*
X134445881Y-121889889D01*
X134393577Y-121917510D01*
X134301656Y-121928724D01*
X134257936Y-121928724D01*
X134257936Y-123022932D01*
X134301656Y-123022932D01*
X134392475Y-123034114D01*
X134445148Y-123061888D01*
X134477729Y-123106254D01*
X134488868Y-123163616D01*
X134477893Y-123221061D01*
X134445881Y-123265465D01*
X134393577Y-123293086D01*
X134301656Y-123304300D01*
X133876795Y-123304300D01*
X133784894Y-123293081D01*
X133732692Y-123265465D01*
X133700584Y-123221050D01*
X133689583Y-123163616D01*
X133700588Y-123106203D01*
X133732692Y-123061888D01*
X133784907Y-123034181D01*
X133876795Y-123022932D01*
X133977790Y-123022932D01*
X133977790Y-122671222D01*
X133700452Y-122671222D01*
X133603430Y-122732786D01*
X133481384Y-122845695D01*
X133327919Y-123028776D01*
X133136251Y-123304300D01*
X132976394Y-123304300D01*
X132884590Y-123293058D01*
X132832901Y-123265465D01*
X132801365Y-123221112D01*
X132790525Y-123163616D01*
X132804937Y-123105466D01*
X132852074Y-123049432D01*
X132896128Y-123031250D01*
X132992758Y-123022932D01*
X133162263Y-122779910D01*
X133263939Y-122665517D01*
X133352162Y-122580608D01*
X133253462Y-122519218D01*
X133177655Y-122455676D01*
X133121230Y-122389976D01*
X133078546Y-122315508D01*
X133053214Y-122236600D01*
X133044660Y-122151595D01*
X133045598Y-122142314D01*
X133324806Y-122142314D01*
X133335120Y-122193712D01*
X133369259Y-122249781D01*
X133427034Y-122298132D01*
X133542060Y-122353096D01*
X133641834Y-122380267D01*
X133759192Y-122389854D01*
X133977790Y-122389854D01*
X133977790Y-121928724D01*
X133656732Y-121928724D01*
X133550168Y-121937394D01*
X133469737Y-121960724D01*
X133409559Y-121996135D01*
X133360090Y-122045340D01*
X133333330Y-122093443D01*
X133324806Y-122142314D01*
X133045598Y-122142314D01*
X133054921Y-122050088D01*
X133085023Y-121958057D01*
X133135316Y-121873277D01*
X133207936Y-121794268D01*
X133293028Y-121732760D01*
X133395549Y-121687024D01*
X133518987Y-121657814D01*
X133667723Y-121647356D01*
X134301656Y-121647356D01*
X134393564Y-121658601D01*
G37*
G36*
X132145303Y-121620987D02*
G01*
X132273317Y-121658801D01*
X132396083Y-121722606D01*
X132515263Y-121815029D01*
X132615477Y-121923880D01*
X132692560Y-122043060D01*
X132748025Y-122174039D01*
X132782148Y-122318950D01*
X132793945Y-122480468D01*
X132782133Y-122642023D01*
X132747985Y-122786779D01*
X132692507Y-122917442D01*
X132615437Y-123036169D01*
X132515263Y-123144443D01*
X132396083Y-123236865D01*
X132273317Y-123300670D01*
X132145303Y-123338485D01*
X132009803Y-123351194D01*
X131888983Y-123341389D01*
X131775173Y-123312369D01*
X131666737Y-123263922D01*
X131562384Y-123194778D01*
X131461233Y-123102677D01*
X131376324Y-122998874D01*
X131310682Y-122886245D01*
X131263340Y-122763515D01*
X131234232Y-122628956D01*
X131224196Y-122480468D01*
X131504220Y-122480468D01*
X131514489Y-122606420D01*
X131544017Y-122717151D01*
X131591916Y-122815342D01*
X131658704Y-122903009D01*
X131741744Y-122978408D01*
X131826975Y-123029681D01*
X131915692Y-123059758D01*
X132009803Y-123069826D01*
X132103109Y-123059753D01*
X132191338Y-123029616D01*
X132276391Y-122978135D01*
X132359559Y-122902276D01*
X132426377Y-122814246D01*
X132474234Y-122716017D01*
X132503691Y-122605628D01*
X132513920Y-122480468D01*
X132503697Y-122355253D01*
X132474250Y-122244712D01*
X132426392Y-122146253D01*
X132359559Y-122057928D01*
X132276346Y-121981704D01*
X132191281Y-121930005D01*
X132103070Y-121899753D01*
X132009803Y-121889645D01*
X131915730Y-121899750D01*
X131827031Y-121929941D01*
X131741788Y-121981432D01*
X131658704Y-122057196D01*
X131591892Y-122145218D01*
X131543992Y-122243663D01*
X131514479Y-122354529D01*
X131504220Y-122480468D01*
X131224196Y-122480468D01*
X131234248Y-122331327D01*
X131263387Y-122196315D01*
X131310751Y-122073311D01*
X131376385Y-121960568D01*
X131461233Y-121856794D01*
X131562384Y-121764693D01*
X131666737Y-121695549D01*
X131775173Y-121647102D01*
X131888983Y-121618082D01*
X132009803Y-121608277D01*
X132145303Y-121620987D01*
G37*
G36*
X129892706Y-121725514D02*
G01*
X129864604Y-121690364D01*
X129836042Y-121666895D01*
X129803972Y-121652210D01*
X129769730Y-121647356D01*
X129713485Y-121658103D01*
X129669346Y-121689610D01*
X129641664Y-121741195D01*
X129630389Y-121832858D01*
X129630389Y-122070140D01*
X129641632Y-122161813D01*
X129669346Y-122213999D01*
X129713546Y-122246079D01*
X129769730Y-122256986D01*
X129821456Y-122248866D01*
X129859977Y-122226089D01*
X129887559Y-122186405D01*
X129910536Y-122110318D01*
X129925621Y-122058460D01*
X129948760Y-122022879D01*
X130013353Y-121969989D01*
X130105319Y-121926037D01*
X130206551Y-121898623D01*
X130306820Y-121889645D01*
X130428199Y-121903516D01*
X130537751Y-121944355D01*
X130602922Y-121986681D01*
X130664728Y-122045104D01*
X130723498Y-122122164D01*
X130767536Y-122207491D01*
X130794657Y-122304176D01*
X130804098Y-122414767D01*
X130804098Y-122596606D01*
X130794670Y-122694891D01*
X130767243Y-122782613D01*
X130721911Y-122861985D01*
X130657186Y-122934516D01*
X130580366Y-122991513D01*
X130488840Y-123033597D01*
X130379714Y-123060307D01*
X130249300Y-123069826D01*
X130100525Y-123058311D01*
X129985640Y-123027084D01*
X129924354Y-122992822D01*
X129851795Y-122929142D01*
X129783529Y-122871990D01*
X129727353Y-122858801D01*
X129675268Y-122869259D01*
X129629046Y-122901421D01*
X129597155Y-122948084D01*
X129586670Y-123001805D01*
X129599482Y-123058242D01*
X129644067Y-123125636D01*
X129737850Y-123210537D01*
X129858512Y-123276944D01*
X129978124Y-123317658D01*
X130107417Y-123342626D01*
X130247957Y-123351194D01*
X130411187Y-123339347D01*
X130559783Y-123304871D01*
X130696143Y-123248490D01*
X130796120Y-123184846D01*
X130887459Y-123099362D01*
X130970794Y-122989104D01*
X131033936Y-122866854D01*
X131071474Y-122738644D01*
X131084122Y-122602223D01*
X131084122Y-122411958D01*
X131072702Y-122268463D01*
X131038874Y-122132871D01*
X130982395Y-122003340D01*
X130905014Y-121885617D01*
X130811371Y-121788834D01*
X130700173Y-121710981D01*
X130576659Y-121653619D01*
X130449719Y-121619647D01*
X130317566Y-121608277D01*
X130198542Y-121615695D01*
X130090176Y-121637220D01*
X129987801Y-121673795D01*
X129892706Y-121725514D01*
G37*
G36*
X128945288Y-122711278D02*
G01*
X128945288Y-123022932D01*
X128844171Y-123022932D01*
X128752283Y-123034181D01*
X128700068Y-123061888D01*
X128667965Y-123106203D01*
X128656959Y-123163616D01*
X128667961Y-123221050D01*
X128700068Y-123265465D01*
X128752270Y-123293081D01*
X128844171Y-123304300D01*
X129269032Y-123304300D01*
X129360953Y-123293086D01*
X129413257Y-123265465D01*
X129445269Y-123221061D01*
X129456244Y-123163616D01*
X129445105Y-123106254D01*
X129412524Y-123061888D01*
X129359851Y-123034114D01*
X129269032Y-123022932D01*
X129225312Y-123022932D01*
X129225312Y-121928724D01*
X129269032Y-121928724D01*
X129360953Y-121917510D01*
X129413257Y-121889889D01*
X129445269Y-121845485D01*
X129456244Y-121788040D01*
X129445265Y-121730617D01*
X129413257Y-121686313D01*
X129360940Y-121658601D01*
X129269032Y-121647356D01*
X128844171Y-121647356D01*
X128752283Y-121658606D01*
X128700068Y-121686313D01*
X128667965Y-121730627D01*
X128656959Y-121788040D01*
X128667961Y-121845475D01*
X128700068Y-121889889D01*
X128752270Y-121917506D01*
X128844171Y-121928724D01*
X128945288Y-121928724D01*
X128945288Y-122342960D01*
X128448009Y-121913092D01*
X128485809Y-121904853D01*
X128508093Y-121882073D01*
X128519708Y-121846587D01*
X128524457Y-121788040D01*
X128513479Y-121730617D01*
X128481471Y-121686313D01*
X128429153Y-121658601D01*
X128337245Y-121647356D01*
X128051725Y-121647356D01*
X127959837Y-121658606D01*
X127907622Y-121686313D01*
X127875519Y-121730627D01*
X127864513Y-121788040D01*
X127875515Y-121845475D01*
X127907622Y-121889889D01*
X127958695Y-121917793D01*
X128042200Y-121928724D01*
X128544974Y-122365430D01*
X128456649Y-122425892D01*
X128368692Y-122507035D01*
X128280703Y-122611993D01*
X128204484Y-122726043D01*
X128131182Y-122862078D01*
X128061251Y-123022932D01*
X127986146Y-123022932D01*
X127895443Y-123034142D01*
X127843386Y-123061888D01*
X127811378Y-123106192D01*
X127800400Y-123163616D01*
X127811240Y-123221112D01*
X127842776Y-123265465D01*
X127894361Y-123293053D01*
X127986146Y-123304300D01*
X128240281Y-123304300D01*
X128332360Y-123097679D01*
X128431523Y-122903009D01*
X128519703Y-122760956D01*
X128592113Y-122676962D01*
X128674291Y-122613803D01*
X128773097Y-122563511D01*
X128945288Y-122711278D01*
G37*
G36*
X127262699Y-122616512D02*
G01*
X127262699Y-123022932D01*
X126548166Y-123022932D01*
X126548166Y-122874432D01*
X126536906Y-122782220D01*
X126509210Y-122729962D01*
X126464812Y-122697849D01*
X126407483Y-122686854D01*
X126351226Y-122697798D01*
X126307099Y-122729962D01*
X126279402Y-122782220D01*
X126268142Y-122874432D01*
X126268142Y-123304300D01*
X127586565Y-123304300D01*
X127678467Y-123293081D01*
X127730668Y-123265465D01*
X127762680Y-123221061D01*
X127773655Y-123163616D01*
X127762516Y-123106254D01*
X127729935Y-123061888D01*
X127677277Y-123034110D01*
X127586565Y-123022932D01*
X127542845Y-123022932D01*
X127542845Y-121928724D01*
X127586565Y-121928724D01*
X127678467Y-121917506D01*
X127730668Y-121889889D01*
X127762680Y-121845485D01*
X127773655Y-121788040D01*
X127762676Y-121730617D01*
X127730668Y-121686313D01*
X127678453Y-121658606D01*
X127586565Y-121647356D01*
X126329569Y-121648699D01*
X126329569Y-122077223D01*
X126340667Y-122169520D01*
X126367915Y-122221815D01*
X126411700Y-122253808D01*
X126468910Y-122264802D01*
X126526355Y-122253827D01*
X126570759Y-122221815D01*
X126598460Y-122169455D01*
X126609716Y-122077223D01*
X126609716Y-121928724D01*
X127262699Y-121928724D01*
X127262699Y-122335144D01*
X127016746Y-122335144D01*
X127010047Y-122243330D01*
X126996230Y-122206184D01*
X126964273Y-122173744D01*
X126925008Y-122154368D01*
X126876062Y-122147565D01*
X126819889Y-122158500D01*
X126775679Y-122190674D01*
X126747982Y-122242932D01*
X126736722Y-122335144D01*
X126736722Y-122616512D01*
X126743799Y-122708317D01*
X126758582Y-122746327D01*
X126791242Y-122778544D01*
X126829747Y-122797526D01*
X126876062Y-122804090D01*
X126925008Y-122797288D01*
X126964273Y-122777912D01*
X126996230Y-122745472D01*
X127010047Y-122708325D01*
X127016746Y-122616512D01*
X127262699Y-122616512D01*
G37*
G36*
X125160745Y-121928724D02*
G01*
X125160745Y-123022932D01*
X124972189Y-123022932D01*
X124880301Y-123034181D01*
X124828086Y-123061888D01*
X124796078Y-123106192D01*
X124785099Y-123163616D01*
X124796074Y-123221061D01*
X124828086Y-123265465D01*
X124880288Y-123293081D01*
X124972189Y-123304300D01*
X125627982Y-123304300D01*
X125719903Y-123293086D01*
X125772207Y-123265465D01*
X125804219Y-123221061D01*
X125815194Y-123163616D01*
X125804215Y-123106192D01*
X125772207Y-123061888D01*
X125719889Y-123034177D01*
X125627982Y-123022932D01*
X125440892Y-123022932D01*
X125440892Y-121928724D01*
X125744119Y-121928724D01*
X125744119Y-122194460D01*
X125755374Y-122286691D01*
X125783076Y-122339052D01*
X125827463Y-122371069D01*
X125884803Y-122382039D01*
X125941092Y-122371125D01*
X125985309Y-122339052D01*
X126013010Y-122286691D01*
X126024266Y-122194460D01*
X126024266Y-121647356D01*
X124573219Y-121647356D01*
X124573219Y-122194460D01*
X124584474Y-122286691D01*
X124612176Y-122339052D01*
X124656580Y-122371064D01*
X124714025Y-122382039D01*
X124770208Y-122371131D01*
X124814409Y-122339052D01*
X124842110Y-122286691D01*
X124853365Y-122194460D01*
X124853365Y-121928724D01*
X125160745Y-121928724D01*
G37*
D12*
%TO.C,J1*%
X124210999Y-101439300D02*
G75*
G02*
X123448999Y-101439300I-381000J0D01*
G01*
X123448999Y-101439300D02*
G75*
G02*
X124210999Y-101439300I381000J0D01*
G01*
%TD*%
M02*
