%TF.GenerationSoftware,KiCad,Pcbnew,9.0.7*%
%TF.CreationDate,2026-02-01T23:57:56+00:00*%
%TF.ProjectId,ASCEO,41534345-4f2e-46b6-9963-61645f706362,rev?*%
%TF.SameCoordinates,Original*%
%TF.FileFunction,Copper,L1,Top*%
%TF.FilePolarity,Positive*%
%FSLAX46Y46*%
G04 Gerber Fmt 4.6, Leading zero omitted, Abs format (unit mm)*
G04 Created by KiCad (PCBNEW 9.0.7) date 2026-02-01 23:57:56*
%MOMM*%
%LPD*%
G01*
G04 APERTURE LIST*
G04 Aperture macros list*
%AMRoundRect*
0 Rectangle with rounded corners*
0 $1 Rounding radius*
0 $2 $3 $4 $5 $6 $7 $8 $9 X,Y pos of 4 corners*
0 Add a 4 corners polygon primitive as box body*
4,1,4,$2,$3,$4,$5,$6,$7,$8,$9,$2,$3,0*
0 Add four circle primitives for the rounded corners*
1,1,$1+$1,$2,$3*
1,1,$1+$1,$4,$5*
1,1,$1+$1,$6,$7*
1,1,$1+$1,$8,$9*
0 Add four rect primitives between the rounded corners*
20,1,$1+$1,$2,$3,$4,$5,0*
20,1,$1+$1,$4,$5,$6,$7,0*
20,1,$1+$1,$6,$7,$8,$9,0*
20,1,$1+$1,$8,$9,$2,$3,0*%
G04 Aperture macros list end*
%TA.AperFunction,SMDPad,CuDef*%
%ADD10R,1.500000X0.900000*%
%TD*%
%TA.AperFunction,SMDPad,CuDef*%
%ADD11R,0.900000X1.500000*%
%TD*%
%TA.AperFunction,HeatsinkPad*%
%ADD12C,0.600000*%
%TD*%
%TA.AperFunction,HeatsinkPad*%
%ADD13R,3.900000X3.900000*%
%TD*%
%TA.AperFunction,SMDPad,CuDef*%
%ADD14RoundRect,0.375000X-0.625000X-0.375000X0.625000X-0.375000X0.625000X0.375000X-0.625000X0.375000X0*%
%TD*%
%TA.AperFunction,SMDPad,CuDef*%
%ADD15RoundRect,0.500000X-0.500000X-1.400000X0.500000X-1.400000X0.500000X1.400000X-0.500000X1.400000X0*%
%TD*%
%TA.AperFunction,SMDPad,CuDef*%
%ADD16RoundRect,0.250000X0.325000X0.450000X-0.325000X0.450000X-0.325000X-0.450000X0.325000X-0.450000X0*%
%TD*%
%TA.AperFunction,ComponentPad*%
%ADD17RoundRect,0.250001X-0.949999X-0.949999X0.949999X-0.949999X0.949999X0.949999X-0.949999X0.949999X0*%
%TD*%
%TA.AperFunction,ComponentPad*%
%ADD18C,2.400000*%
%TD*%
%TA.AperFunction,SMDPad,CuDef*%
%ADD19RoundRect,0.250000X-0.337500X-0.475000X0.337500X-0.475000X0.337500X0.475000X-0.337500X0.475000X0*%
%TD*%
%TA.AperFunction,SMDPad,CuDef*%
%ADD20R,1.620000X2.180000*%
%TD*%
%TA.AperFunction,SMDPad,CuDef*%
%ADD21R,2.180000X1.620000*%
%TD*%
%TA.AperFunction,SMDPad,CuDef*%
%ADD22RoundRect,0.237500X0.250000X0.237500X-0.250000X0.237500X-0.250000X-0.237500X0.250000X-0.237500X0*%
%TD*%
%TA.AperFunction,SMDPad,CuDef*%
%ADD23RoundRect,0.237500X-0.300000X-0.237500X0.300000X-0.237500X0.300000X0.237500X-0.300000X0.237500X0*%
%TD*%
%TA.AperFunction,SMDPad,CuDef*%
%ADD24RoundRect,0.250000X-0.450000X0.350000X-0.450000X-0.350000X0.450000X-0.350000X0.450000X0.350000X0*%
%TD*%
%TA.AperFunction,SMDPad,CuDef*%
%ADD25RoundRect,0.250000X-0.325000X-0.450000X0.325000X-0.450000X0.325000X0.450000X-0.325000X0.450000X0*%
%TD*%
%TA.AperFunction,SMDPad,CuDef*%
%ADD26R,1.400000X1.400000*%
%TD*%
%TA.AperFunction,SMDPad,CuDef*%
%ADD27R,0.351536X0.376682*%
%TD*%
%TA.AperFunction,SMDPad,CuDef*%
%ADD28R,0.376682X0.351536*%
%TD*%
%TA.AperFunction,ComponentPad*%
%ADD29RoundRect,0.250000X0.725000X-0.600000X0.725000X0.600000X-0.725000X0.600000X-0.725000X-0.600000X0*%
%TD*%
%TA.AperFunction,ComponentPad*%
%ADD30O,1.950000X1.700000*%
%TD*%
%TA.AperFunction,SMDPad,CuDef*%
%ADD31RoundRect,0.250000X0.650000X-1.500000X0.650000X1.500000X-0.650000X1.500000X-0.650000X-1.500000X0*%
%TD*%
%TA.AperFunction,ComponentPad*%
%ADD32O,2.250000X4.500000*%
%TD*%
%TA.AperFunction,ComponentPad*%
%ADD33O,3.016000X1.508000*%
%TD*%
%TA.AperFunction,SMDPad,CuDef*%
%ADD34RoundRect,0.250000X-1.500000X-0.650000X1.500000X-0.650000X1.500000X0.650000X-1.500000X0.650000X0*%
%TD*%
%TA.AperFunction,SMDPad,CuDef*%
%ADD35RoundRect,0.237500X0.300000X0.237500X-0.300000X0.237500X-0.300000X-0.237500X0.300000X-0.237500X0*%
%TD*%
%TA.AperFunction,SMDPad,CuDef*%
%ADD36R,2.260600X0.508000*%
%TD*%
%TA.AperFunction,SMDPad,CuDef*%
%ADD37R,4.013200X2.057400*%
%TD*%
%TA.AperFunction,SMDPad,CuDef*%
%ADD38R,3.505200X2.057400*%
%TD*%
%TA.AperFunction,SMDPad,CuDef*%
%ADD39R,0.711200X0.279400*%
%TD*%
%TA.AperFunction,SMDPad,CuDef*%
%ADD40R,0.990600X1.701800*%
%TD*%
%TA.AperFunction,SMDPad,CuDef*%
%ADD41R,0.482600X0.254000*%
%TD*%
%TA.AperFunction,SMDPad,CuDef*%
%ADD42R,0.254000X0.482600*%
%TD*%
%TA.AperFunction,ComponentPad*%
%ADD43RoundRect,0.250000X-0.725000X0.600000X-0.725000X-0.600000X0.725000X-0.600000X0.725000X0.600000X0*%
%TD*%
%TA.AperFunction,SMDPad,CuDef*%
%ADD44RoundRect,0.237500X-0.250000X-0.237500X0.250000X-0.237500X0.250000X0.237500X-0.250000X0.237500X0*%
%TD*%
%TA.AperFunction,SMDPad,CuDef*%
%ADD45R,1.200000X0.600000*%
%TD*%
%TA.AperFunction,ComponentPad*%
%ADD46R,1.950000X1.950000*%
%TD*%
%TA.AperFunction,ComponentPad*%
%ADD47C,1.950000*%
%TD*%
%TA.AperFunction,ViaPad*%
%ADD48C,0.600000*%
%TD*%
%TA.AperFunction,Conductor*%
%ADD49C,0.200000*%
%TD*%
%TA.AperFunction,Conductor*%
%ADD50C,0.300000*%
%TD*%
%TA.AperFunction,Conductor*%
%ADD51C,0.781437*%
%TD*%
%TA.AperFunction,Conductor*%
%ADD52C,0.760000*%
%TD*%
G04 APERTURE END LIST*
D10*
%TO.P,U1,1,GND*%
%TO.N,GND*%
X140749999Y-75844300D03*
%TO.P,U1,2,3V3*%
%TO.N,+3V3*%
X140749999Y-77114300D03*
%TO.P,U1,3,EN*%
%TO.N,Net-(U1-EN)*%
X140749999Y-78384300D03*
%TO.P,U1,4,IO4*%
%TO.N,unconnected-(U1-IO4-Pad4)*%
X140749999Y-79654300D03*
%TO.P,U1,5,IO5*%
%TO.N,unconnected-(U1-IO5-Pad5)*%
X140749999Y-80924300D03*
%TO.P,U1,6,IO6*%
%TO.N,unconnected-(U1-IO6-Pad6)*%
X140749999Y-82194300D03*
%TO.P,U1,7,IO7*%
%TO.N,unconnected-(U1-IO7-Pad7)*%
X140749999Y-83464300D03*
%TO.P,U1,8,IO15*%
%TO.N,unconnected-(U1-IO15-Pad8)*%
X140749999Y-84734300D03*
%TO.P,U1,9,IO16*%
%TO.N,unconnected-(U1-IO16-Pad9)*%
X140749999Y-86004300D03*
%TO.P,U1,10,IO17*%
%TO.N,/RP_TX*%
X140749999Y-87274300D03*
%TO.P,U1,11,IO18*%
%TO.N,/RP_RX*%
X140749999Y-88544300D03*
%TO.P,U1,12,IO8*%
%TO.N,unconnected-(U1-IO8-Pad12)*%
X140749999Y-89814300D03*
%TO.P,U1,13,IO19*%
%TO.N,/USB2_N*%
X140749999Y-91084300D03*
%TO.P,U1,14,IO20*%
%TO.N,/USB2_P*%
X140749999Y-92354300D03*
D11*
%TO.P,U1,15,IO3*%
%TO.N,unconnected-(U1-IO3-Pad15)*%
X142514999Y-93604300D03*
%TO.P,U1,16,IO46*%
%TO.N,unconnected-(U1-IO46-Pad16)*%
X143784999Y-93604300D03*
%TO.P,U1,17,IO9*%
%TO.N,/INT1_BMI*%
X145054999Y-93604300D03*
%TO.P,U1,18,IO10*%
%TO.N,/CS_BMI*%
X146324999Y-93604300D03*
%TO.P,U1,19,IO11*%
%TO.N,/FSPID*%
X147594999Y-93604300D03*
%TO.P,U1,20,IO12*%
%TO.N,/FSPICLK*%
X148864999Y-93604300D03*
%TO.P,U1,21,IO13*%
%TO.N,/FSPIQ*%
X150134999Y-93604300D03*
%TO.P,U1,22,IO14*%
%TO.N,/CS_LPS*%
X151404999Y-93604300D03*
%TO.P,U1,23,IO21*%
%TO.N,/INT_LPS*%
X152674999Y-93604300D03*
%TO.P,U1,24,IO47*%
%TO.N,/IN2_DRV*%
X153944999Y-93604300D03*
%TO.P,U1,25,IO48*%
%TO.N,/IN1_DRV*%
X155214999Y-93604300D03*
%TO.P,U1,26,IO45*%
%TO.N,unconnected-(U1-IO45-Pad26)*%
X156484999Y-93604300D03*
D10*
%TO.P,U1,27,IO0*%
%TO.N,Net-(U1-IO0)*%
X158249999Y-92354300D03*
%TO.P,U1,28,IO35*%
%TO.N,/INT2_BMI*%
X158249999Y-91084300D03*
%TO.P,U1,29,IO36*%
%TO.N,/ENC_B*%
X158249999Y-89814300D03*
%TO.P,U1,30,IO37*%
%TO.N,/ENC_A*%
X158249999Y-88544300D03*
%TO.P,U1,31,IO38*%
%TO.N,unconnected-(U1-IO38-Pad31)*%
X158249999Y-87274300D03*
%TO.P,U1,32,IO39*%
%TO.N,unconnected-(U1-IO39-Pad32)*%
X158249999Y-86004300D03*
%TO.P,U1,33,IO40*%
%TO.N,unconnected-(U1-IO40-Pad33)*%
X158249999Y-84734300D03*
%TO.P,U1,34,IO41*%
%TO.N,unconnected-(U1-IO41-Pad34)*%
X158249999Y-83464300D03*
%TO.P,U1,35,IO42*%
%TO.N,unconnected-(U1-IO42-Pad35)*%
X158249999Y-82194300D03*
%TO.P,U1,36,RXD0*%
%TO.N,unconnected-(U1-RXD0-Pad36)*%
X158249999Y-80924300D03*
%TO.P,U1,37,TXD0*%
%TO.N,unconnected-(U1-TXD0-Pad37)*%
X158249999Y-79654300D03*
%TO.P,U1,38,IO2*%
%TO.N,/LED*%
X158249999Y-78384300D03*
%TO.P,U1,39,IO1*%
%TO.N,unconnected-(U1-IO1-Pad39)*%
X158249999Y-77114300D03*
%TO.P,U1,40,GND__1*%
%TO.N,GND*%
X158249999Y-75844300D03*
D12*
%TO.P,U1,41*%
%TO.N,N/C*%
X146599999Y-82864300D03*
X146599999Y-84264300D03*
X147299999Y-82164300D03*
X147299999Y-83564300D03*
X147299999Y-84964300D03*
X147999999Y-82864300D03*
D13*
X147999999Y-83564300D03*
D12*
X147999999Y-84264300D03*
X148699999Y-82164300D03*
X148699999Y-83564300D03*
X148699999Y-84964300D03*
X149399999Y-82864300D03*
X149399999Y-84264300D03*
%TD*%
D14*
%TO.P,U2,1,GND*%
%TO.N,GND*%
X137949999Y-118544300D03*
%TO.P,U2,2,VOUT*%
%TO.N,+3V3*%
X137949999Y-120844300D03*
%TO.P,U2,3,VIN*%
%TO.N,+5V*%
X137949999Y-123144300D03*
D15*
%TO.P,U2,4,VOUT__1*%
%TO.N,+3V3*%
X144249999Y-120844300D03*
%TD*%
D16*
%TO.P,D7,1,K*%
%TO.N,GND*%
X127449999Y-119344300D03*
%TO.P,D7,2,A*%
%TO.N,Net-(D7-A)*%
X125399999Y-119344300D03*
%TD*%
D17*
%TO.P,C6,1*%
%TO.N,+3V3*%
X153249999Y-131344300D03*
D18*
%TO.P,C6,2*%
%TO.N,GND*%
X158249999Y-131344300D03*
%TD*%
D19*
%TO.P,C4,1*%
%TO.N,+3V3*%
X148974999Y-121644300D03*
%TO.P,C4,2*%
%TO.N,GND*%
X151049999Y-121644300D03*
%TD*%
D20*
%TO.P,D5,A*%
%TO.N,GND*%
X170139999Y-80844300D03*
%TO.P,D5,C*%
%TO.N,Net-(D3-A)*%
X174359999Y-80844300D03*
%TD*%
D21*
%TO.P,D4,A*%
%TO.N,GND*%
X170249999Y-126064300D03*
%TO.P,D4,C*%
%TO.N,Net-(D2-A)*%
X170249999Y-121844300D03*
%TD*%
D22*
%TO.P,R2,1*%
%TO.N,+3V3*%
X139349999Y-112944300D03*
%TO.P,R2,2*%
%TO.N,Net-(D6-A)*%
X137524999Y-112944300D03*
%TD*%
D23*
%TO.P,C7,1*%
%TO.N,+5V*%
X132524999Y-120344300D03*
%TO.P,C7,2*%
%TO.N,GND*%
X134249999Y-120344300D03*
%TD*%
D24*
%TO.P,R1,1*%
%TO.N,+3V3*%
X128749999Y-80344300D03*
%TO.P,R1,2*%
%TO.N,Net-(U1-EN)*%
X128749999Y-82344300D03*
%TD*%
D25*
%TO.P,D6,1,K*%
%TO.N,GND*%
X137299999Y-110444300D03*
%TO.P,D6,2,A*%
%TO.N,Net-(D6-A)*%
X139349999Y-110444300D03*
%TD*%
%TO.P,D8,1,K*%
%TO.N,GND*%
X163249999Y-75844300D03*
%TO.P,D8,2,A*%
%TO.N,Net-(D8-A)*%
X165299999Y-75844300D03*
%TD*%
D26*
%TO.P,RESET,1,1*%
%TO.N,GND*%
X123249999Y-86144300D03*
%TO.P,RESET,2,2*%
%TO.N,Net-(U1-EN)*%
X123249999Y-79544300D03*
%TO.P,RESET,3*%
%TO.N,N/C*%
X126249999Y-86144300D03*
%TO.P,RESET,4*%
X126249999Y-79544300D03*
%TD*%
D17*
%TO.P,C12,1*%
%TO.N,+5V*%
X138749999Y-131844300D03*
D18*
%TO.P,C12,2*%
%TO.N,GND*%
X143749999Y-131844300D03*
%TD*%
D23*
%TO.P,C10,1*%
%TO.N,+3V3*%
X149324999Y-117144300D03*
%TO.P,C10,2*%
%TO.N,GND*%
X151049999Y-117144300D03*
%TD*%
D22*
%TO.P,R3,1*%
%TO.N,+5V*%
X128249999Y-121844300D03*
%TO.P,R3,2*%
%TO.N,Net-(D7-A)*%
X126424999Y-121844300D03*
%TD*%
D27*
%TO.P,U4,1,VDD_IO*%
%TO.N,+3V3*%
X144814999Y-100329300D03*
%TO.P,U4,2,SCL/SPC*%
%TO.N,/FSPICLK*%
X144314999Y-100329300D03*
D28*
%TO.P,U4,3,RES*%
%TO.N,GND*%
X143749999Y-100644301D03*
%TO.P,U4,4,SDA/SDI/SDO*%
%TO.N,/FSPID*%
X143749999Y-101144300D03*
%TO.P,U4,5,SDO/SA0*%
%TO.N,/FSPIQ*%
X143749999Y-101644299D03*
D27*
%TO.P,U4,6,CS*%
%TO.N,/CS_LPS*%
X144314999Y-101959300D03*
%TO.P,U4,7,INT_DRDY*%
%TO.N,/INT_LPS*%
X144814999Y-101959300D03*
D28*
%TO.P,U4,8,GND*%
%TO.N,GND*%
X145379999Y-101644299D03*
%TO.P,U4,9,GND*%
X145379999Y-101144300D03*
%TO.P,U4,10,VDD*%
%TO.N,+3V3*%
X145379999Y-100644301D03*
%TD*%
D29*
%TO.P,J3,1,Pin_1*%
%TO.N,+3V3*%
X132849999Y-87944300D03*
D30*
%TO.P,J3,2,Pin_2*%
%TO.N,/RP_RX*%
X132849999Y-85444300D03*
%TO.P,J3,3,Pin_3*%
%TO.N,/RP_TX*%
X132849999Y-82944300D03*
%TO.P,J3,4,Pin_4*%
%TO.N,GND*%
X132849999Y-80444300D03*
%TO.P,J3,5,Pin_5*%
X132849999Y-77944300D03*
%TD*%
D23*
%TO.P,C9,1*%
%TO.N,+3V3*%
X149324999Y-114644300D03*
%TO.P,C9,2*%
%TO.N,GND*%
X151049999Y-114644300D03*
%TD*%
D31*
%TO.P,D1,1,K*%
%TO.N,+5V*%
X127249999Y-113344300D03*
%TO.P,D1,2,A*%
%TO.N,Net-(D1-A)*%
X127249999Y-108344300D03*
%TD*%
D32*
%TO.P,J4,1*%
%TO.N,Net-(D2-A)*%
X174249999Y-107344300D03*
D33*
%TO.P,J4,2*%
%TO.N,GND*%
X176749999Y-110844300D03*
%TO.P,J4,3*%
%TO.N,N/C*%
X176749999Y-103844300D03*
%TD*%
D34*
%TO.P,D2,1,K*%
%TO.N,+5V*%
X167249999Y-98344300D03*
%TO.P,D2,2,A*%
%TO.N,Net-(D2-A)*%
X172249999Y-98344300D03*
%TD*%
D35*
%TO.P,C3,1*%
%TO.N,+3V3*%
X127974999Y-89844300D03*
%TO.P,C3,2*%
%TO.N,GND*%
X126249999Y-89844300D03*
%TD*%
D36*
%TO.P,J1,1,VBUS*%
%TO.N,Net-(D1-A)*%
X121079999Y-101744301D03*
%TO.P,J1,2,D-*%
%TO.N,Net-(J1-D-)*%
X121079999Y-102544299D03*
%TO.P,J1,3,D+*%
%TO.N,Net-(J1-D+)*%
X121079999Y-103344300D03*
%TO.P,J1,4,ID*%
%TO.N,unconnected-(J1-ID-Pad4)*%
X121079999Y-104144301D03*
%TO.P,J1,5,GND*%
%TO.N,GND*%
X121079999Y-104944299D03*
D37*
%TO.P,J1,6,Shield*%
X116849999Y-98419300D03*
%TO.P,J1,7*%
%TO.N,N/C*%
X116849999Y-108269300D03*
D38*
%TO.P,J1,8*%
X121099999Y-98419300D03*
%TO.P,J1,9*%
X121099999Y-108269300D03*
%TD*%
D39*
%TO.P,U5,1,VM*%
%TO.N,+5V*%
X167846699Y-107094299D03*
%TO.P,U5,2,OUT1*%
%TO.N,/M1*%
X167846699Y-107594300D03*
%TO.P,U5,3,OUT2*%
%TO.N,/M2*%
X167846699Y-108094300D03*
%TO.P,U5,4,GND*%
%TO.N,GND*%
X167846699Y-108594301D03*
%TO.P,U5,5,IN2/EN*%
%TO.N,/IN2_DRV*%
X169853299Y-108594301D03*
%TO.P,U5,6,IN1/PH*%
%TO.N,/IN1_DRV*%
X169853299Y-108094300D03*
%TO.P,U5,7,MODE*%
%TO.N,GND*%
X169853299Y-107594300D03*
%TO.P,U5,8,~{SLEEP}*%
%TO.N,+3V3*%
X169853299Y-107094299D03*
D40*
%TO.P,U5,9,GND*%
%TO.N,GND*%
X168849999Y-107844300D03*
%TD*%
D41*
%TO.P,U3,1,SDO*%
%TO.N,/FSPIQ*%
X144138599Y-106844298D03*
%TO.P,U3,2,NC*%
%TO.N,unconnected-(U3-NC-Pad2)*%
X144138599Y-107344299D03*
%TO.P,U3,3,NC*%
%TO.N,unconnected-(U3-NC-Pad3)*%
X144138599Y-107844299D03*
%TO.P,U3,4,INT1*%
%TO.N,/INT1_BMI*%
X144138599Y-108344300D03*
D42*
%TO.P,U3,5,VDDIO*%
%TO.N,+3V3*%
X144794300Y-108508699D03*
%TO.P,U3,6,GNDIO*%
%TO.N,GND*%
X145294299Y-108508699D03*
%TO.P,U3,7,GND*%
X145794298Y-108508699D03*
D41*
%TO.P,U3,8,VDD*%
%TO.N,+3V3*%
X146449999Y-108344300D03*
%TO.P,U3,9,INT2*%
%TO.N,/INT2_BMI*%
X146449999Y-107844299D03*
%TO.P,U3,10,NC*%
%TO.N,unconnected-(U3-NC-Pad10)*%
X146449999Y-107344299D03*
%TO.P,U3,11,NC*%
%TO.N,unconnected-(U3-NC-Pad11)*%
X146449999Y-106844298D03*
D42*
%TO.P,U3,12,CSB*%
%TO.N,/CS_BMI*%
X145794298Y-106679899D03*
%TO.P,U3,13,SCX*%
%TO.N,/FSPICLK*%
X145294299Y-106679899D03*
%TO.P,U3,14,SDX*%
%TO.N,/FSPID*%
X144794300Y-106679899D03*
%TD*%
D34*
%TO.P,D3,1,K*%
%TO.N,+5V*%
X167249999Y-92344300D03*
%TO.P,D3,2,A*%
%TO.N,Net-(D3-A)*%
X172249999Y-92344300D03*
%TD*%
D23*
%TO.P,C2,1*%
%TO.N,+5V*%
X132524999Y-116344300D03*
%TO.P,C2,2*%
%TO.N,GND*%
X134249999Y-116344300D03*
%TD*%
D43*
%TO.P,J2,1,Pin_1*%
%TO.N,/M1*%
X159849999Y-106144300D03*
D30*
%TO.P,J2,2,Pin_2*%
%TO.N,+3V3*%
X159849999Y-108644300D03*
%TO.P,J2,3,Pin_3*%
%TO.N,/ENC_A*%
X159849999Y-111144300D03*
%TO.P,J2,4,Pin_4*%
%TO.N,/ENC_B*%
X159849999Y-113644300D03*
%TO.P,J2,5,Pin_5*%
%TO.N,GND*%
X159849999Y-116144300D03*
%TO.P,J2,6,Pin_6*%
%TO.N,/M2*%
X159849999Y-118644300D03*
%TD*%
D23*
%TO.P,C11,1*%
%TO.N,+5V*%
X132524999Y-118304300D03*
%TO.P,C11,2*%
%TO.N,GND*%
X134249999Y-118304300D03*
%TD*%
D44*
%TO.P,R4,1*%
%TO.N,/LED*%
X163424999Y-78844300D03*
%TO.P,R4,2*%
%TO.N,Net-(D8-A)*%
X165249999Y-78844300D03*
%TD*%
D45*
%TO.P,CR1,1,1*%
%TO.N,Net-(D1-A)*%
X125949999Y-98894299D03*
%TO.P,CR1,2,2*%
%TO.N,Net-(J1-D-)*%
X125949999Y-99844300D03*
%TO.P,CR1,3,3*%
%TO.N,Net-(J1-D+)*%
X125949999Y-100794301D03*
%TO.P,CR1,4,4*%
%TO.N,/USB2_P*%
X128249999Y-100794301D03*
%TO.P,CR1,5,5*%
%TO.N,/USB2_N*%
X128249999Y-99844300D03*
%TO.P,CR1,6,6*%
%TO.N,GND*%
X128249999Y-98894299D03*
%TD*%
D23*
%TO.P,C1,1*%
%TO.N,Net-(U1-EN)*%
X126749999Y-76344300D03*
%TO.P,C1,2*%
%TO.N,GND*%
X128474999Y-76344300D03*
%TD*%
%TO.P,C13,1*%
%TO.N,+3V3*%
X149324999Y-119144300D03*
%TO.P,C13,2*%
%TO.N,GND*%
X151049999Y-119144300D03*
%TD*%
D46*
%TO.P,J5,1,Pin_1*%
%TO.N,Net-(D3-A)*%
X180749999Y-98344300D03*
D47*
%TO.P,J5,2,Pin_2*%
%TO.N,GND*%
X180749999Y-93344300D03*
%TD*%
D19*
%TO.P,C5,1*%
%TO.N,+5V*%
X132174999Y-111844300D03*
%TO.P,C5,2*%
%TO.N,GND*%
X134249999Y-111844300D03*
%TD*%
D26*
%TO.P,BOOT,1,1*%
%TO.N,GND*%
X170049999Y-87844300D03*
%TO.P,BOOT,2,2*%
%TO.N,Net-(U1-IO0)*%
X163449999Y-87844300D03*
%TO.P,BOOT,3*%
%TO.N,N/C*%
X170049999Y-84844300D03*
%TO.P,BOOT,4*%
X163449999Y-84844300D03*
%TD*%
D23*
%TO.P,C8,1*%
%TO.N,+5V*%
X132524999Y-114344300D03*
%TO.P,C8,2*%
%TO.N,GND*%
X134249999Y-114344300D03*
%TD*%
D48*
%TO.N,GND*%
X128749999Y-119344300D03*
X159749999Y-75844300D03*
X161949999Y-75844300D03*
X157849999Y-116144300D03*
%TO.N,+3V3*%
X171149999Y-110844300D03*
X171249999Y-107344300D03*
X115749999Y-95744300D03*
%TO.N,Net-(U1-EN)*%
X137349999Y-75144300D03*
X139149999Y-78944300D03*
%TO.N,+3V3*%
X147649999Y-101544300D03*
%TO.N,GND*%
X143714999Y-99344300D03*
X168849999Y-106644300D03*
X145349999Y-107744300D03*
%TO.N,+3V3*%
X144249999Y-114644300D03*
X146449999Y-110744300D03*
%TO.N,GND*%
X123649999Y-104899299D03*
X125049999Y-89844300D03*
X128249999Y-97344300D03*
X123249999Y-87844300D03*
X128449999Y-77444300D03*
X168349999Y-80844300D03*
X170049999Y-89344300D03*
X180749999Y-89544300D03*
X137949999Y-116844300D03*
X151049999Y-113644300D03*
%TO.N,/IN2_DRV*%
X167749999Y-110844300D03*
X156425734Y-97620035D03*
%TO.N,/IN1_DRV*%
X157725734Y-96320035D03*
X168140717Y-103344300D03*
%TO.N,GND*%
X148349999Y-131844300D03*
X176849999Y-112744300D03*
X117249999Y-96344300D03*
X134249999Y-110444300D03*
X162849999Y-131344300D03*
X170249999Y-127944300D03*
%TO.N,Net-(U1-IO0)*%
X159849999Y-92244300D03*
X160974264Y-91320035D03*
%TO.N,/INT2_BMI*%
X148649999Y-106544300D03*
X149574264Y-105520035D03*
%TO.N,/FSPIQ*%
X149464999Y-98244300D03*
X143749999Y-104744300D03*
X142880085Y-105614214D03*
X148249999Y-98244300D03*
%TO.N,/INT_LPS*%
X148298529Y-104692830D03*
X146742184Y-103136485D03*
%TO.N,/CS_LPS*%
X145742184Y-104136485D03*
X146898526Y-105244300D03*
%TO.N,/INT1_BMI*%
X140149999Y-106244300D03*
X141449999Y-106244300D03*
%TD*%
D49*
%TO.N,Net-(D7-A)*%
X125399999Y-120819300D02*
X126424999Y-121844300D01*
X125399999Y-119344300D02*
X125399999Y-120819300D01*
%TO.N,GND*%
X127449999Y-119344300D02*
X128749999Y-119344300D01*
X144139340Y-100767532D02*
X143873230Y-100767532D01*
X144516108Y-101144300D02*
X144139340Y-100767532D01*
X145379999Y-101144300D02*
X144516108Y-101144300D01*
X143873230Y-100767532D02*
X143749999Y-100644301D01*
X163249999Y-75844300D02*
X161949999Y-75844300D01*
%TO.N,Net-(U1-EN)*%
X128049999Y-75044300D02*
X126749999Y-76344300D01*
X137249999Y-75044300D02*
X128049999Y-75044300D01*
X137349999Y-75144300D02*
X137249999Y-75044300D01*
D50*
%TO.N,+3V3*%
X139699999Y-77114300D02*
X134970999Y-81843300D01*
X140749999Y-77114300D02*
X139699999Y-77114300D01*
X132268950Y-81843300D02*
X130849999Y-83262251D01*
X130849999Y-82444300D02*
X130849999Y-83262251D01*
X134970999Y-81843300D02*
X132268950Y-81843300D01*
X130849999Y-86044300D02*
X132749999Y-87944300D01*
X132749999Y-87944300D02*
X132849999Y-87944300D01*
X130849999Y-83262251D02*
X130849999Y-86044300D01*
X128749999Y-80344300D02*
X130849999Y-82444300D01*
D49*
%TO.N,GND*%
X158249999Y-75844300D02*
X159749999Y-75844300D01*
D50*
%TO.N,+3V3*%
X132849999Y-87944300D02*
X129874999Y-87944300D01*
X129874999Y-87944300D02*
X127974999Y-89844300D01*
X131649999Y-87944300D02*
X123900999Y-95693300D01*
X132849999Y-87944300D02*
X131649999Y-87944300D01*
D49*
%TO.N,/RP_RX*%
X135949999Y-88544300D02*
X140749999Y-88544300D01*
X132849999Y-85444300D02*
X135949999Y-88544300D01*
%TO.N,/RP_TX*%
X137179999Y-87274300D02*
X140749999Y-87274300D01*
X132849999Y-82944300D02*
X137179999Y-87274300D01*
%TO.N,GND*%
X132849999Y-77944300D02*
X132849999Y-80444300D01*
X132849999Y-77944300D02*
X132749999Y-77844300D01*
X132749999Y-76844300D02*
X132749999Y-77844300D01*
%TO.N,/ENC_B*%
X157149999Y-113644300D02*
X159849999Y-113644300D01*
X154949999Y-111444300D02*
X157149999Y-113644300D01*
X154949999Y-105444300D02*
X154949999Y-111444300D01*
X164450999Y-95943300D02*
X154949999Y-105444300D01*
X164450999Y-83145300D02*
X164450999Y-95943300D01*
X162949999Y-81644300D02*
X164450999Y-83145300D01*
X161849999Y-81644300D02*
X162949999Y-81644300D01*
X160849999Y-82644300D02*
X161849999Y-81644300D01*
X160849999Y-88442300D02*
X160849999Y-82644300D01*
X159477999Y-89814300D02*
X160849999Y-88442300D01*
X158249999Y-89814300D02*
X159477999Y-89814300D01*
%TO.N,/ENC_A*%
X159949999Y-87344300D02*
X158749999Y-88544300D01*
X159949999Y-82544300D02*
X159949999Y-87344300D01*
X161649999Y-80844300D02*
X159949999Y-82544300D01*
X163249999Y-80844300D02*
X161649999Y-80844300D01*
X165249999Y-82844300D02*
X163249999Y-80844300D01*
X165198999Y-82895300D02*
X165249999Y-82844300D01*
X165198999Y-96293300D02*
X165198999Y-82895300D01*
X165249999Y-96344300D02*
X165198999Y-96293300D01*
X156649999Y-104944300D02*
X165249999Y-96344300D01*
X156649999Y-107944300D02*
X156649999Y-104944300D01*
X159849999Y-111144300D02*
X156649999Y-107944300D01*
X158749999Y-88544300D02*
X158249999Y-88544300D01*
%TO.N,GND*%
X159849999Y-116144300D02*
X157849999Y-116144300D01*
D50*
%TO.N,+3V3*%
X153249999Y-128744300D02*
X153249999Y-131344300D01*
X171149999Y-110844300D02*
X153249999Y-128744300D01*
X170999998Y-107094299D02*
X171249999Y-107344300D01*
X169853299Y-107094299D02*
X170999998Y-107094299D01*
X115800999Y-95693300D02*
X115749999Y-95744300D01*
X123900999Y-95693300D02*
X115800999Y-95693300D01*
D49*
%TO.N,Net-(U1-EN)*%
X139709999Y-78384300D02*
X139149999Y-78944300D01*
X140749999Y-78384300D02*
X139709999Y-78384300D01*
%TO.N,/LED*%
X158709999Y-78844300D02*
X158249999Y-78384300D01*
X163424999Y-78844300D02*
X158709999Y-78844300D01*
%TO.N,/IN2_DRV*%
X153944999Y-94039300D02*
X153944999Y-93604300D01*
X156425734Y-96520035D02*
X153944999Y-94039300D01*
X156425734Y-97620035D02*
X156425734Y-96520035D01*
D50*
%TO.N,+3V3*%
X147049999Y-101544300D02*
X147649999Y-101544300D01*
X146349999Y-100844300D02*
X147049999Y-101544300D01*
D49*
%TO.N,/CS_LPS*%
X146898526Y-105244300D02*
X146898529Y-105244300D01*
X151404999Y-100737830D02*
X151404999Y-93604300D01*
X146898529Y-105244300D02*
X151404999Y-100737830D01*
X145726075Y-103736485D02*
X144314999Y-102325409D01*
X144314999Y-102325409D02*
X144314999Y-101959300D01*
X145742184Y-104136485D02*
X145726075Y-104120376D01*
X145726075Y-104120376D02*
X145726075Y-103736485D01*
%TO.N,+3V3*%
X146150000Y-100644301D02*
X146349999Y-100844300D01*
X145379999Y-100644301D02*
X146150000Y-100644301D01*
X145064998Y-100329300D02*
X145379999Y-100644301D01*
X144814999Y-100329300D02*
X145064998Y-100329300D01*
%TO.N,GND*%
X143749999Y-99379300D02*
X143714999Y-99344300D01*
X143749999Y-100644301D02*
X143749999Y-99379300D01*
X145379999Y-101144300D02*
X145379999Y-101644299D01*
X168849999Y-107844300D02*
X168849999Y-106644300D01*
X145794298Y-108188599D02*
X145349999Y-107744300D01*
X145794298Y-108508699D02*
X145794298Y-108188599D01*
X145294299Y-108508699D02*
X145794298Y-108508699D01*
D50*
%TO.N,+3V3*%
X144794300Y-109088601D02*
X146449999Y-110744300D01*
X144794300Y-108508699D02*
X144794300Y-109088601D01*
X144249999Y-114644300D02*
X141049999Y-114644300D01*
X146449999Y-108344300D02*
X146449999Y-110744300D01*
D49*
%TO.N,GND*%
X123604999Y-104944299D02*
X123649999Y-104899299D01*
X121079999Y-104944299D02*
X123604999Y-104944299D01*
X126249999Y-89844300D02*
X125049999Y-89844300D01*
X128249999Y-98894299D02*
X128249999Y-97344300D01*
X123249999Y-86144300D02*
X123249999Y-87844300D01*
X128474999Y-77419300D02*
X128449999Y-77444300D01*
X128474999Y-76344300D02*
X128474999Y-77419300D01*
X170139999Y-80844300D02*
X168349999Y-80844300D01*
X170049999Y-87844300D02*
X170049999Y-89344300D01*
X180749999Y-93344300D02*
X180749999Y-89544300D01*
X137949999Y-118544300D02*
X137949999Y-116844300D01*
X151049999Y-114644300D02*
X151049999Y-113644300D01*
X151049999Y-114644300D02*
X151049999Y-121644300D01*
%TO.N,/IN2_DRV*%
X167749999Y-110844300D02*
X169853299Y-108741000D01*
X169853299Y-108741000D02*
X169853299Y-108594301D01*
%TO.N,/IN1_DRV*%
X155214999Y-94554300D02*
X155214999Y-93604300D01*
X156980734Y-96320035D02*
X155214999Y-94554300D01*
X157725734Y-96320035D02*
X156980734Y-96320035D01*
X172050999Y-106645300D02*
X168749999Y-103344300D01*
X172050999Y-107993242D02*
X172050999Y-106645300D01*
X168749999Y-103344300D02*
X168140717Y-103344300D01*
X171698942Y-108345299D02*
X172050999Y-107993242D01*
X170701597Y-108345299D02*
X171698942Y-108345299D01*
X170450598Y-108094300D02*
X170701597Y-108345299D01*
X169853299Y-108094300D02*
X170450598Y-108094300D01*
%TO.N,Net-(U1-EN)*%
X126449999Y-76344300D02*
X123249999Y-79544300D01*
X123249999Y-79544300D02*
X126049999Y-82344300D01*
X126749999Y-76344300D02*
X126449999Y-76344300D01*
X126049999Y-82344300D02*
X128749999Y-82344300D01*
%TO.N,GND*%
X169099999Y-107594300D02*
X168849999Y-107844300D01*
X158249999Y-131344300D02*
X162849999Y-131344300D01*
X168443998Y-108594301D02*
X167846699Y-108594301D01*
X116849999Y-98419300D02*
X116849999Y-96744300D01*
X143749999Y-131844300D02*
X148349999Y-131844300D01*
X140749999Y-75844300D02*
X133749999Y-75844300D01*
X168849999Y-107844300D02*
X168849999Y-108188300D01*
X170249999Y-126064300D02*
X170249999Y-127944300D01*
X135899999Y-111844300D02*
X137299999Y-110444300D01*
X169853299Y-107594300D02*
X169099999Y-107594300D01*
X176749999Y-110844300D02*
X176749999Y-112644300D01*
X128474999Y-76344300D02*
X132249999Y-76344300D01*
X168849999Y-108188300D02*
X168443998Y-108594301D01*
X132249999Y-76344300D02*
X132749999Y-76844300D01*
X134249999Y-111844300D02*
X134249999Y-110444300D01*
X134249999Y-118304300D02*
X137709999Y-118304300D01*
X176749999Y-112644300D02*
X176849999Y-112744300D01*
X134249999Y-111844300D02*
X134249999Y-118304300D01*
X116849999Y-96744300D02*
X117249999Y-96344300D01*
X137709999Y-118304300D02*
X137949999Y-118544300D01*
X134249999Y-111844300D02*
X135899999Y-111844300D01*
X133749999Y-75844300D02*
X132749999Y-76844300D01*
X134249999Y-118304300D02*
X134249999Y-120344300D01*
D51*
%TO.N,+5V*%
X165158281Y-135136018D02*
X182749999Y-117544300D01*
X182749999Y-103944300D02*
X174449999Y-95644300D01*
X167249999Y-98344300D02*
X167249999Y-95644300D01*
%TO.N,Net-(D2-A)*%
X174249999Y-100344300D02*
X172249999Y-98344300D01*
%TO.N,+5V*%
X182749999Y-117544300D02*
X182749999Y-103944300D01*
D49*
%TO.N,Net-(D1-A)*%
X121079999Y-101744301D02*
X123930001Y-98894299D01*
X123930001Y-98894299D02*
X125949999Y-98894299D01*
D51*
%TO.N,+5V*%
X167249999Y-98344300D02*
X167249999Y-105944300D01*
D49*
%TO.N,Net-(D1-A)*%
X127249999Y-108344300D02*
X124404998Y-105499299D01*
D51*
%TO.N,Net-(D3-A)*%
X172249999Y-92344300D02*
X172249999Y-91944300D01*
D49*
%TO.N,Net-(D1-A)*%
X124404998Y-105499299D02*
X119648699Y-105499299D01*
D51*
%TO.N,+5V*%
X142041717Y-135136018D02*
X165158281Y-135136018D01*
D50*
X167846699Y-107094299D02*
X167846699Y-106541000D01*
D51*
%TO.N,Net-(D3-A)*%
X172249999Y-91944300D02*
X174359999Y-89834300D01*
X180749999Y-98344300D02*
X180749999Y-96644300D01*
%TO.N,+5V*%
X128749999Y-111844300D02*
X127249999Y-113344300D01*
X132174999Y-111844300D02*
X128749999Y-111844300D01*
X138749999Y-123944300D02*
X137949999Y-123144300D01*
X138749999Y-131844300D02*
X142041717Y-135136018D01*
%TO.N,Net-(D3-A)*%
X174359999Y-89834300D02*
X174359999Y-80844300D01*
D49*
%TO.N,Net-(D1-A)*%
X119648699Y-105499299D02*
X119648699Y-102145600D01*
D51*
%TO.N,+5V*%
X132524999Y-120344300D02*
X132524999Y-118304300D01*
X167249999Y-105944300D02*
X167349999Y-106044300D01*
D49*
%TO.N,Net-(D1-A)*%
X119648699Y-102145600D02*
X120049998Y-101744301D01*
D51*
%TO.N,Net-(D2-A)*%
X174249999Y-117844300D02*
X170249999Y-121844300D01*
%TO.N,+5V*%
X132524999Y-118304300D02*
X132524999Y-116344300D01*
X137949999Y-123144300D02*
X135324999Y-123144300D01*
X128249999Y-121844300D02*
X131024999Y-121844300D01*
%TO.N,Net-(D2-A)*%
X174249999Y-107344300D02*
X174249999Y-100344300D01*
%TO.N,+5V*%
X138749999Y-131844300D02*
X138749999Y-123944300D01*
%TO.N,Net-(D2-A)*%
X174249999Y-107344300D02*
X174249999Y-117844300D01*
%TO.N,+5V*%
X131024999Y-121844300D02*
X132524999Y-120344300D01*
X135324999Y-123144300D02*
X132524999Y-120344300D01*
%TO.N,Net-(D3-A)*%
X176449999Y-92344300D02*
X172249999Y-92344300D01*
%TO.N,+5V*%
X132524999Y-114344300D02*
X132524999Y-112194300D01*
X132524999Y-116344300D02*
X132524999Y-114344300D01*
%TO.N,Net-(D3-A)*%
X180749999Y-96644300D02*
X176449999Y-92344300D01*
%TO.N,+5V*%
X174449999Y-95644300D02*
X167249999Y-95644300D01*
X167249999Y-95644300D02*
X167249999Y-92344300D01*
X132524999Y-112194300D02*
X132174999Y-111844300D01*
D49*
%TO.N,Net-(D1-A)*%
X120049998Y-101744301D02*
X121079999Y-101744301D01*
D50*
%TO.N,+5V*%
X167846699Y-106541000D02*
X167349999Y-106044300D01*
%TO.N,+3V3*%
X149324999Y-119144300D02*
X149324999Y-117144300D01*
X148974999Y-121644300D02*
X146449999Y-121644300D01*
X149324999Y-117144300D02*
X149324999Y-114644300D01*
X141049999Y-114644300D02*
X139349999Y-112944300D01*
X149324999Y-114644300D02*
X144249999Y-114644300D01*
X148974999Y-121644300D02*
X148974999Y-119494300D01*
X152849999Y-131344300D02*
X148974999Y-127469300D01*
X153249999Y-131344300D02*
X152849999Y-131344300D01*
X146449999Y-121644300D02*
X145649999Y-120844300D01*
X148974999Y-127469300D02*
X148974999Y-121644300D01*
X145649999Y-120844300D02*
X144249999Y-120844300D01*
X148974999Y-119494300D02*
X149324999Y-119144300D01*
X144249999Y-120844300D02*
X137949999Y-120844300D01*
D49*
%TO.N,Net-(J1-D-)*%
X122749999Y-102544300D02*
X123549999Y-101744300D01*
X123549999Y-100544300D02*
X124249999Y-99844300D01*
X121079999Y-102544299D02*
X122749999Y-102544300D01*
X124249999Y-99844300D02*
X125949999Y-99844300D01*
X123549999Y-101744300D02*
X123549999Y-100544300D01*
D52*
%TO.N,/USB2_N*%
X140749999Y-91084300D02*
X139624998Y-91084300D01*
X129150000Y-99844300D02*
X128249999Y-99844300D01*
X139624998Y-91084300D02*
X139444998Y-91264300D01*
X139444998Y-91264300D02*
X138286531Y-91264300D01*
X132986530Y-99864301D02*
X129170001Y-99864301D01*
X135594999Y-93955832D02*
X135594999Y-97255832D01*
X135594999Y-97255832D02*
X132986530Y-99864301D01*
X129170001Y-99864301D02*
X129150000Y-99844300D01*
X138286531Y-91264300D02*
X135594999Y-93955832D01*
D49*
%TO.N,Net-(J1-D+)*%
X121079999Y-103344300D02*
X122849999Y-103344300D01*
X124299998Y-100794301D02*
X125949999Y-100794301D01*
X122849999Y-103344300D02*
X123949999Y-102244300D01*
X123949999Y-102244300D02*
X123949999Y-101144300D01*
X123949999Y-101144300D02*
X124299998Y-100794301D01*
D52*
%TO.N,/USB2_P*%
X140749999Y-92354300D02*
X139624998Y-92354300D01*
X136504999Y-97632768D02*
X133363467Y-100774300D01*
X139624998Y-92354300D02*
X139444998Y-92174300D01*
X133363467Y-100774300D02*
X129170001Y-100774300D01*
X139444998Y-92174300D02*
X138663467Y-92174300D01*
X138663467Y-92174300D02*
X136504999Y-94332768D01*
X129150000Y-100794301D02*
X128249999Y-100794301D01*
X136504999Y-94332768D02*
X136504999Y-97632768D01*
X129170001Y-100774300D02*
X129150000Y-100794301D01*
D49*
%TO.N,Net-(D6-A)*%
X139349999Y-110444300D02*
X137524999Y-112269300D01*
X137524999Y-112269300D02*
X137524999Y-112944300D01*
%TO.N,Net-(D8-A)*%
X165299999Y-75844300D02*
X165299999Y-78794300D01*
X165299999Y-78794300D02*
X165249999Y-78844300D01*
D50*
%TO.N,/M2*%
X167846699Y-108094300D02*
X167149400Y-108094300D01*
D51*
X166449999Y-112044300D02*
X166449999Y-109444300D01*
D50*
X167149400Y-108094300D02*
X166449999Y-108793701D01*
D51*
X159849999Y-118644300D02*
X166449999Y-112044300D01*
D50*
X166449999Y-108793701D02*
X166449999Y-109444300D01*
%TO.N,/M1*%
X167846699Y-107594300D02*
X166399999Y-107594300D01*
D51*
X159849999Y-106144300D02*
X162049999Y-106144300D01*
X163499999Y-107594300D02*
X166399999Y-107594300D01*
X162049999Y-106144300D02*
X163499999Y-107594300D01*
D49*
%TO.N,Net-(U1-IO0)*%
X158249999Y-92354300D02*
X159739999Y-92354300D01*
X159739999Y-92354300D02*
X159849999Y-92244300D01*
X160974264Y-91320035D02*
X163449999Y-88844300D01*
X163449999Y-88844300D02*
X163449999Y-87844300D01*
%TO.N,/INT2_BMI*%
X161049999Y-92244300D02*
X159889999Y-91084300D01*
X161049999Y-93844300D02*
X161049999Y-92244300D01*
X149574264Y-105520035D02*
X149574264Y-105320035D01*
X146449999Y-107844299D02*
X147350000Y-107844299D01*
X159889999Y-91084300D02*
X158249999Y-91084300D01*
X149574264Y-105320035D02*
X161049999Y-93844300D01*
X147350000Y-107844299D02*
X148649999Y-106544300D01*
%TO.N,/FSPIQ*%
X142749999Y-103744300D02*
X142749999Y-101944300D01*
X150134999Y-97574300D02*
X150134999Y-93604300D01*
X149464999Y-98244300D02*
X150134999Y-97574300D01*
X142749999Y-101944300D02*
X143050000Y-101644299D01*
X148249999Y-102477200D02*
X148249999Y-98244300D01*
X144138599Y-106844298D02*
X144110169Y-106844298D01*
X145982899Y-104744300D02*
X148249999Y-102477200D01*
X143050000Y-101644299D02*
X143749999Y-101644299D01*
X143749999Y-104744300D02*
X145982899Y-104744300D01*
X143749999Y-104744300D02*
X142749999Y-103744300D01*
X144110169Y-106844298D02*
X142880085Y-105614214D01*
%TO.N,/FSPID*%
X147594999Y-93999300D02*
X147594999Y-93604300D01*
X142749999Y-100610410D02*
X142749999Y-98844300D01*
X143283889Y-101144300D02*
X142749999Y-100610410D01*
X142749999Y-98844300D02*
X142849999Y-98744300D01*
X141849999Y-99744300D02*
X142849999Y-98744300D01*
X141849999Y-103735598D02*
X141849999Y-99744300D01*
X144794300Y-106679899D02*
X141849999Y-103735598D01*
X142849999Y-98744300D02*
X147594999Y-93999300D01*
X143749999Y-101144300D02*
X143283889Y-101144300D01*
%TO.N,/FSPICLK*%
X145294299Y-106000000D02*
X148864999Y-102429300D01*
X144314999Y-100329300D02*
X144314999Y-98686300D01*
X148864999Y-102429300D02*
X148864999Y-93604300D01*
X145294299Y-106679899D02*
X145294299Y-106000000D01*
X148864999Y-94136300D02*
X148864999Y-93604300D01*
X144314999Y-98686300D02*
X148864999Y-94136300D01*
%TO.N,/CS_BMI*%
X149049999Y-105844300D02*
X150249999Y-107044300D01*
X150249999Y-107044300D02*
X150249999Y-110644300D01*
X149349999Y-111544300D02*
X141949999Y-111544300D01*
X140849999Y-99611300D02*
X146324999Y-94136300D01*
X145794298Y-106679899D02*
X146629897Y-105844300D01*
X140849999Y-110444300D02*
X140849999Y-99611300D01*
X150249999Y-110644300D02*
X149349999Y-111544300D01*
X146324999Y-94136300D02*
X146324999Y-93604300D01*
X146629897Y-105844300D02*
X149049999Y-105844300D01*
X141949999Y-111544300D02*
X140849999Y-110444300D01*
%TO.N,/INT_LPS*%
X148298529Y-104692830D02*
X152674999Y-100316360D01*
X145992184Y-103136485D02*
X146742184Y-103136485D01*
X144814999Y-101959300D02*
X145992184Y-103136485D01*
X152674999Y-100316360D02*
X152674999Y-93604300D01*
%TO.N,/INT1_BMI*%
X144138599Y-108344300D02*
X143549999Y-108344300D01*
X140149999Y-106244300D02*
X140149999Y-99459300D01*
X143549999Y-108344300D02*
X141449999Y-106244300D01*
X145054999Y-94554300D02*
X145054999Y-93604300D01*
X140149999Y-99459300D02*
X145054999Y-94554300D01*
%TD*%
M02*
