%TF.GenerationSoftware,KiCad,Pcbnew,9.0.7*%
%TF.CreationDate,2026-02-01T23:57:56+00:00*%
%TF.ProjectId,ASCEO,41534345-4f2e-46b6-9963-61645f706362,rev?*%
%TF.SameCoordinates,Original*%
%TF.FileFunction,Copper,L2,Bot*%
%TF.FilePolarity,Positive*%
%FSLAX46Y46*%
G04 Gerber Fmt 4.6, Leading zero omitted, Abs format (unit mm)*
G04 Created by KiCad (PCBNEW 9.0.7) date 2026-02-01 23:57:56*
%MOMM*%
%LPD*%
G01*
G04 APERTURE LIST*
G04 Aperture macros list*
%AMRoundRect*
0 Rectangle with rounded corners*
0 $1 Rounding radius*
0 $2 $3 $4 $5 $6 $7 $8 $9 X,Y pos of 4 corners*
0 Add a 4 corners polygon primitive as box body*
4,1,4,$2,$3,$4,$5,$6,$7,$8,$9,$2,$3,0*
0 Add four circle primitives for the rounded corners*
1,1,$1+$1,$2,$3*
1,1,$1+$1,$4,$5*
1,1,$1+$1,$6,$7*
1,1,$1+$1,$8,$9*
0 Add four rect primitives between the rounded corners*
20,1,$1+$1,$2,$3,$4,$5,0*
20,1,$1+$1,$4,$5,$6,$7,0*
20,1,$1+$1,$6,$7,$8,$9,0*
20,1,$1+$1,$8,$9,$2,$3,0*%
G04 Aperture macros list end*
%TA.AperFunction,HeatsinkPad*%
%ADD10C,0.600000*%
%TD*%
%TA.AperFunction,ComponentPad*%
%ADD11RoundRect,0.250001X-0.949999X-0.949999X0.949999X-0.949999X0.949999X0.949999X-0.949999X0.949999X0*%
%TD*%
%TA.AperFunction,ComponentPad*%
%ADD12C,2.400000*%
%TD*%
%TA.AperFunction,ComponentPad*%
%ADD13RoundRect,0.250000X0.725000X-0.600000X0.725000X0.600000X-0.725000X0.600000X-0.725000X-0.600000X0*%
%TD*%
%TA.AperFunction,ComponentPad*%
%ADD14O,1.950000X1.700000*%
%TD*%
%TA.AperFunction,ComponentPad*%
%ADD15O,2.250000X4.500000*%
%TD*%
%TA.AperFunction,ComponentPad*%
%ADD16O,3.016000X1.508000*%
%TD*%
%TA.AperFunction,ComponentPad*%
%ADD17RoundRect,0.250000X-0.725000X0.600000X-0.725000X-0.600000X0.725000X-0.600000X0.725000X0.600000X0*%
%TD*%
%TA.AperFunction,ComponentPad*%
%ADD18R,1.950000X1.950000*%
%TD*%
%TA.AperFunction,ComponentPad*%
%ADD19C,1.950000*%
%TD*%
%TA.AperFunction,ViaPad*%
%ADD20C,0.600000*%
%TD*%
%TA.AperFunction,Conductor*%
%ADD21C,0.200000*%
%TD*%
%TA.AperFunction,Conductor*%
%ADD22C,0.300000*%
%TD*%
G04 APERTURE END LIST*
D10*
%TO.P,U1,41*%
%TO.N,N/C*%
X146599999Y-82864300D03*
X146599999Y-84264300D03*
X147299999Y-82164300D03*
X147299999Y-83564300D03*
X147299999Y-84964300D03*
X147999999Y-82864300D03*
X147999999Y-84264300D03*
X148699999Y-82164300D03*
X148699999Y-83564300D03*
X148699999Y-84964300D03*
X149399999Y-82864300D03*
X149399999Y-84264300D03*
%TD*%
D11*
%TO.P,C6,1*%
%TO.N,+3V3*%
X153249999Y-131344300D03*
D12*
%TO.P,C6,2*%
%TO.N,GND*%
X158249999Y-131344300D03*
%TD*%
D11*
%TO.P,C12,1*%
%TO.N,+5V*%
X138749999Y-131844300D03*
D12*
%TO.P,C12,2*%
%TO.N,GND*%
X143749999Y-131844300D03*
%TD*%
D13*
%TO.P,J3,1,Pin_1*%
%TO.N,+3V3*%
X132849999Y-87944300D03*
D14*
%TO.P,J3,2,Pin_2*%
%TO.N,/RP_RX*%
X132849999Y-85444300D03*
%TO.P,J3,3,Pin_3*%
%TO.N,/RP_TX*%
X132849999Y-82944300D03*
%TO.P,J3,4,Pin_4*%
%TO.N,GND*%
X132849999Y-80444300D03*
%TO.P,J3,5,Pin_5*%
X132849999Y-77944300D03*
%TD*%
D15*
%TO.P,J4,1*%
%TO.N,Net-(D2-A)*%
X174249999Y-107344300D03*
D16*
%TO.P,J4,2*%
%TO.N,GND*%
X176749999Y-110844300D03*
%TO.P,J4,3*%
%TO.N,N/C*%
X176749999Y-103844300D03*
%TD*%
D17*
%TO.P,J2,1,Pin_1*%
%TO.N,/M1*%
X159849999Y-106144300D03*
D14*
%TO.P,J2,2,Pin_2*%
%TO.N,+3V3*%
X159849999Y-108644300D03*
%TO.P,J2,3,Pin_3*%
%TO.N,/ENC_A*%
X159849999Y-111144300D03*
%TO.P,J2,4,Pin_4*%
%TO.N,/ENC_B*%
X159849999Y-113644300D03*
%TO.P,J2,5,Pin_5*%
%TO.N,GND*%
X159849999Y-116144300D03*
%TO.P,J2,6,Pin_6*%
%TO.N,/M2*%
X159849999Y-118644300D03*
%TD*%
D18*
%TO.P,J5,1,Pin_1*%
%TO.N,Net-(D3-A)*%
X180749999Y-98344300D03*
D19*
%TO.P,J5,2,Pin_2*%
%TO.N,GND*%
X180749999Y-93344300D03*
%TD*%
D20*
%TO.N,GND*%
X128749999Y-119344300D03*
X159749999Y-75844300D03*
X161949999Y-75844300D03*
X157849999Y-116144300D03*
%TO.N,+3V3*%
X171149999Y-110844300D03*
X171249999Y-107344300D03*
X115749999Y-95744300D03*
%TO.N,Net-(U1-EN)*%
X137349999Y-75144300D03*
X139149999Y-78944300D03*
%TO.N,+3V3*%
X147649999Y-101544300D03*
%TO.N,GND*%
X143714999Y-99344300D03*
X168849999Y-106644300D03*
X145349999Y-107744300D03*
%TO.N,+3V3*%
X144249999Y-114644300D03*
X146449999Y-110744300D03*
%TO.N,GND*%
X123649999Y-104899299D03*
X125049999Y-89844300D03*
X128249999Y-97344300D03*
X123249999Y-87844300D03*
X128449999Y-77444300D03*
X168349999Y-80844300D03*
X170049999Y-89344300D03*
X180749999Y-89544300D03*
X137949999Y-116844300D03*
X151049999Y-113644300D03*
%TO.N,/IN2_DRV*%
X167749999Y-110844300D03*
X156425734Y-97620035D03*
%TO.N,/IN1_DRV*%
X157725734Y-96320035D03*
X168140717Y-103344300D03*
%TO.N,GND*%
X148349999Y-131844300D03*
X176849999Y-112744300D03*
X117249999Y-96344300D03*
X134249999Y-110444300D03*
X162849999Y-131344300D03*
X170249999Y-127944300D03*
%TO.N,Net-(U1-IO0)*%
X159849999Y-92244300D03*
X160974264Y-91320035D03*
%TO.N,/INT2_BMI*%
X148649999Y-106544300D03*
X149574264Y-105520035D03*
%TO.N,/FSPIQ*%
X149464999Y-98244300D03*
X143749999Y-104744300D03*
X142880085Y-105614214D03*
X148249999Y-98244300D03*
%TO.N,/INT_LPS*%
X148298529Y-104692830D03*
X146742184Y-103136485D03*
%TO.N,/CS_LPS*%
X145742184Y-104136485D03*
X146898526Y-105244300D03*
%TO.N,/INT1_BMI*%
X140149999Y-106244300D03*
X141449999Y-106244300D03*
%TD*%
D21*
%TO.N,Net-(U1-EN)*%
X137349999Y-77144300D02*
X139149999Y-78944300D01*
X137349999Y-75144300D02*
X137349999Y-77144300D01*
D22*
%TO.N,+3V3*%
X170498999Y-111495300D02*
X171149999Y-110844300D01*
X162700999Y-111495300D02*
X170498999Y-111495300D01*
X159849999Y-108644300D02*
X162700999Y-111495300D01*
X171249999Y-107344300D02*
X171249999Y-110744300D01*
X171249999Y-110744300D02*
X171149999Y-110844300D01*
X119649999Y-114644300D02*
X144249999Y-114644300D01*
X115749999Y-110744300D02*
X119649999Y-114644300D01*
X115749999Y-95744300D02*
X115749999Y-110744300D01*
D21*
%TO.N,/IN2_DRV*%
X165749999Y-110844300D02*
X167749999Y-110844300D01*
X164749999Y-109844300D02*
X165749999Y-110844300D01*
X156425734Y-98420035D02*
X164749999Y-106744300D01*
X164749999Y-106744300D02*
X164749999Y-109844300D01*
X156425734Y-97620035D02*
X156425734Y-98420035D01*
D22*
%TO.N,+3V3*%
X147249999Y-114644300D02*
X144249999Y-114644300D01*
X152249999Y-109644300D02*
X147249999Y-114644300D01*
X152249999Y-103844300D02*
X152249999Y-109644300D01*
X149949999Y-101544300D02*
X152249999Y-103844300D01*
X147649999Y-101544300D02*
X149949999Y-101544300D01*
D21*
%TO.N,/CS_LPS*%
X146849999Y-105244300D02*
X145742184Y-104136485D01*
X146898526Y-105244300D02*
X146849999Y-105244300D01*
D22*
%TO.N,+3V3*%
X146449999Y-110744300D02*
X146449999Y-112444300D01*
X146449999Y-112444300D02*
X144249999Y-114644300D01*
D21*
%TO.N,/IN1_DRV*%
X164749999Y-103344300D02*
X157725734Y-96320035D01*
X168140717Y-103344300D02*
X164749999Y-103344300D01*
%TO.N,Net-(U1-IO0)*%
X159849999Y-92244300D02*
X160049999Y-92244300D01*
X160049999Y-92244300D02*
X160974264Y-91320035D01*
%TO.N,/INT2_BMI*%
X148649999Y-106444300D02*
X149574264Y-105520035D01*
X148649999Y-106544300D02*
X148649999Y-106444300D01*
%TO.N,/FSPIQ*%
X142880085Y-105614214D02*
X143749999Y-104744300D01*
X148249999Y-98244300D02*
X149464999Y-98244300D01*
%TO.N,/INT_LPS*%
X146742184Y-103136485D02*
X148298529Y-104692830D01*
%TO.N,/INT1_BMI*%
X141449999Y-106244300D02*
X140149999Y-106244300D01*
%TD*%
%TA.AperFunction,Conductor*%
%TO.N,GND*%
G36*
X133099999Y-80040154D02*
G01*
X133033342Y-80001670D01*
X132912534Y-79969300D01*
X132787464Y-79969300D01*
X132666656Y-80001670D01*
X132599999Y-80040154D01*
X132599999Y-78348445D01*
X132666656Y-78386930D01*
X132787464Y-78419300D01*
X132912534Y-78419300D01*
X133033342Y-78386930D01*
X133099999Y-78348445D01*
X133099999Y-80040154D01*
G37*
%TD.AperFunction*%
%TA.AperFunction,Conductor*%
G36*
X136775597Y-74373985D02*
G01*
X136821352Y-74426789D01*
X136831296Y-74495947D01*
X136802271Y-74559503D01*
X136796239Y-74565981D01*
X136728212Y-74634007D01*
X136728209Y-74634011D01*
X136640608Y-74765114D01*
X136640601Y-74765127D01*
X136580263Y-74910798D01*
X136580260Y-74910810D01*
X136549499Y-75065453D01*
X136549499Y-75223146D01*
X136580260Y-75377789D01*
X136580263Y-75377801D01*
X136640601Y-75523472D01*
X136640608Y-75523485D01*
X136728601Y-75655174D01*
X136749479Y-75721851D01*
X136749499Y-75724065D01*
X136749499Y-77057630D01*
X136749498Y-77057648D01*
X136749498Y-77223354D01*
X136749497Y-77223354D01*
X136790422Y-77376085D01*
X136819357Y-77426200D01*
X136819358Y-77426204D01*
X136819359Y-77426204D01*
X136869478Y-77513014D01*
X136869480Y-77513017D01*
X136988348Y-77631885D01*
X136988354Y-77631890D01*
X138315424Y-78958960D01*
X138348909Y-79020283D01*
X138349360Y-79022449D01*
X138380260Y-79177791D01*
X138380263Y-79177801D01*
X138440601Y-79323472D01*
X138440608Y-79323485D01*
X138528209Y-79454588D01*
X138528212Y-79454592D01*
X138639706Y-79566086D01*
X138639710Y-79566089D01*
X138770813Y-79653690D01*
X138770826Y-79653697D01*
X138916497Y-79714035D01*
X138916502Y-79714037D01*
X139071152Y-79744799D01*
X139071155Y-79744800D01*
X139071157Y-79744800D01*
X139228843Y-79744800D01*
X139228844Y-79744799D01*
X139383496Y-79714037D01*
X139529178Y-79653694D01*
X139660288Y-79566089D01*
X139771788Y-79454589D01*
X139859393Y-79323479D01*
X139919736Y-79177797D01*
X139950499Y-79023142D01*
X139950499Y-78865458D01*
X139950499Y-78865455D01*
X139950498Y-78865453D01*
X139919737Y-78710810D01*
X139919736Y-78710803D01*
X139895320Y-78651857D01*
X139859396Y-78565127D01*
X139859389Y-78565114D01*
X139771788Y-78434011D01*
X139771785Y-78434007D01*
X139660291Y-78322513D01*
X139660287Y-78322510D01*
X139529184Y-78234909D01*
X139529171Y-78234902D01*
X139383500Y-78174564D01*
X139383490Y-78174561D01*
X139228148Y-78143661D01*
X139166237Y-78111276D01*
X139164659Y-78109725D01*
X137986818Y-76931884D01*
X137953333Y-76870561D01*
X137950499Y-76844203D01*
X137950499Y-75724065D01*
X137970184Y-75657026D01*
X137971397Y-75655174D01*
X138059389Y-75523485D01*
X138059389Y-75523484D01*
X138059393Y-75523479D01*
X138119736Y-75377797D01*
X138150499Y-75223142D01*
X138150499Y-75065458D01*
X138150499Y-75065455D01*
X138150498Y-75065453D01*
X138119737Y-74910810D01*
X138119736Y-74910803D01*
X138119734Y-74910798D01*
X138059396Y-74765127D01*
X138059389Y-74765114D01*
X137971788Y-74634011D01*
X137971785Y-74634007D01*
X137903759Y-74565981D01*
X137870274Y-74504658D01*
X137875258Y-74434966D01*
X137917130Y-74379033D01*
X137982594Y-74354616D01*
X137991440Y-74354300D01*
X172696060Y-74354300D01*
X172763099Y-74373985D01*
X172774725Y-74382447D01*
X172913025Y-74495947D01*
X173685502Y-75129902D01*
X173688559Y-75132495D01*
X174134382Y-75523472D01*
X174595828Y-75928149D01*
X174598834Y-75930874D01*
X175479546Y-76755750D01*
X175482462Y-76758572D01*
X176335726Y-77611836D01*
X176338548Y-77614752D01*
X177163424Y-78495464D01*
X177166149Y-78498470D01*
X177451420Y-78823759D01*
X177889662Y-79323479D01*
X177961787Y-79405721D01*
X177964401Y-79408802D01*
X178347170Y-79875208D01*
X178729929Y-80341601D01*
X178732452Y-80344780D01*
X179467041Y-81302115D01*
X179469458Y-81305374D01*
X180172328Y-82286227D01*
X180174637Y-82289563D01*
X180845046Y-83292900D01*
X180847245Y-83296311D01*
X181484455Y-84321029D01*
X181486541Y-84324509D01*
X182071688Y-85338013D01*
X182089893Y-85369544D01*
X182091864Y-85373091D01*
X182660689Y-86437290D01*
X182662543Y-86440899D01*
X183196251Y-87523151D01*
X183197986Y-87526819D01*
X183695999Y-88625956D01*
X183697613Y-88629679D01*
X184159398Y-89744529D01*
X184160889Y-89748303D01*
X184585945Y-90877649D01*
X184587312Y-90881469D01*
X184788641Y-91474564D01*
X184970669Y-92010803D01*
X184975182Y-92024096D01*
X184976424Y-92027960D01*
X185326718Y-93182723D01*
X185327832Y-93186625D01*
X185640144Y-94352192D01*
X185641130Y-94356128D01*
X185915146Y-95531318D01*
X185916002Y-95535284D01*
X186151409Y-96718757D01*
X186152136Y-96722749D01*
X186348706Y-97913356D01*
X186349301Y-97917370D01*
X186506804Y-99113719D01*
X186507268Y-99117750D01*
X186625544Y-100318629D01*
X186625876Y-100322673D01*
X186704798Y-101526799D01*
X186704997Y-101530852D01*
X186740856Y-102626196D01*
X186744021Y-102722902D01*
X186744480Y-102736907D01*
X186744546Y-102740964D01*
X186744546Y-103947635D01*
X186744480Y-103951692D01*
X186704997Y-105157747D01*
X186704798Y-105161800D01*
X186625876Y-106365926D01*
X186625544Y-106369970D01*
X186507268Y-107570849D01*
X186506804Y-107574880D01*
X186349301Y-108771229D01*
X186348706Y-108775243D01*
X186152136Y-109965850D01*
X186151409Y-109969842D01*
X185916002Y-111153315D01*
X185915146Y-111157281D01*
X185641130Y-112332471D01*
X185640144Y-112336407D01*
X185327832Y-113501974D01*
X185326718Y-113505876D01*
X184976424Y-114660639D01*
X184975182Y-114664503D01*
X184587312Y-115807130D01*
X184585945Y-115810950D01*
X184160889Y-116940296D01*
X184159398Y-116944070D01*
X183697613Y-118058920D01*
X183695999Y-118062643D01*
X183197986Y-119161780D01*
X183196251Y-119165448D01*
X182662543Y-120247700D01*
X182660689Y-120251309D01*
X182091864Y-121315508D01*
X182089893Y-121319055D01*
X181486541Y-122364090D01*
X181484455Y-122367570D01*
X180847245Y-123392288D01*
X180845046Y-123395699D01*
X180174637Y-124399036D01*
X180172328Y-124402372D01*
X179469458Y-125383225D01*
X179467041Y-125386484D01*
X178732452Y-126343819D01*
X178729929Y-126346998D01*
X177964412Y-127279784D01*
X177961787Y-127282878D01*
X177166149Y-128190129D01*
X177163424Y-128193135D01*
X176338548Y-129073847D01*
X176335726Y-129076763D01*
X175482462Y-129930027D01*
X175479546Y-129932849D01*
X174598834Y-130757725D01*
X174595828Y-130760450D01*
X173688577Y-131556088D01*
X173685483Y-131558713D01*
X172752697Y-132324230D01*
X172749518Y-132326753D01*
X171792183Y-133061342D01*
X171788924Y-133063759D01*
X170808071Y-133766629D01*
X170804735Y-133768938D01*
X169801398Y-134439347D01*
X169797987Y-134441546D01*
X168773269Y-135078756D01*
X168769789Y-135080842D01*
X167724754Y-135684194D01*
X167721207Y-135686165D01*
X166657008Y-136254990D01*
X166653399Y-136256844D01*
X165571147Y-136790552D01*
X165567479Y-136792287D01*
X164468342Y-137290300D01*
X164464619Y-137291914D01*
X163349769Y-137753699D01*
X163345995Y-137755190D01*
X162216649Y-138180246D01*
X162212829Y-138181613D01*
X161070202Y-138569483D01*
X161066338Y-138570725D01*
X159911575Y-138921019D01*
X159907673Y-138922133D01*
X158742106Y-139234445D01*
X158738170Y-139235431D01*
X157562980Y-139509447D01*
X157559014Y-139510303D01*
X156375541Y-139745710D01*
X156371549Y-139746437D01*
X155180942Y-139943007D01*
X155176928Y-139943602D01*
X153980579Y-140101105D01*
X153976548Y-140101569D01*
X152775669Y-140219845D01*
X152771625Y-140220177D01*
X151567499Y-140299099D01*
X151563446Y-140299298D01*
X150357391Y-140338781D01*
X150353334Y-140338847D01*
X149146664Y-140338847D01*
X149142607Y-140338781D01*
X147936551Y-140299298D01*
X147932498Y-140299099D01*
X146728372Y-140220177D01*
X146724328Y-140219845D01*
X145523449Y-140101569D01*
X145519418Y-140101105D01*
X144323069Y-139943602D01*
X144319055Y-139943007D01*
X143128448Y-139746437D01*
X143124456Y-139745710D01*
X141940983Y-139510303D01*
X141937017Y-139509447D01*
X140761827Y-139235431D01*
X140757891Y-139234445D01*
X139592324Y-138922133D01*
X139588422Y-138921019D01*
X138433659Y-138570725D01*
X138429808Y-138569487D01*
X138033882Y-138435088D01*
X137287168Y-138181613D01*
X137283348Y-138180246D01*
X136154002Y-137755190D01*
X136150228Y-137753699D01*
X135035378Y-137291914D01*
X135031655Y-137290300D01*
X133932518Y-136792287D01*
X133928850Y-136790552D01*
X132846598Y-136256844D01*
X132842989Y-136254990D01*
X131778790Y-135686165D01*
X131775243Y-135684194D01*
X130730208Y-135080842D01*
X130726728Y-135078756D01*
X129702010Y-134441546D01*
X129698599Y-134439347D01*
X128695262Y-133768938D01*
X128691926Y-133766629D01*
X127711073Y-133063759D01*
X127707814Y-133061342D01*
X126750479Y-132326753D01*
X126747300Y-132324230D01*
X125984057Y-131697853D01*
X125814501Y-131558702D01*
X125811420Y-131556088D01*
X125102479Y-130934363D01*
X124999763Y-130844284D01*
X137049499Y-130844284D01*
X137049499Y-132844315D01*
X137059999Y-132947095D01*
X137060000Y-132947097D01*
X137082571Y-133015211D01*
X137115185Y-133113635D01*
X137115186Y-133113637D01*
X137207285Y-133262951D01*
X137207288Y-133262955D01*
X137331343Y-133387010D01*
X137331347Y-133387013D01*
X137480661Y-133479112D01*
X137480663Y-133479113D01*
X137480665Y-133479114D01*
X137647202Y-133534299D01*
X137749991Y-133544800D01*
X137749996Y-133544800D01*
X139750002Y-133544800D01*
X139750007Y-133544800D01*
X139852796Y-133534299D01*
X140019333Y-133479114D01*
X140168654Y-133387011D01*
X140292710Y-133262955D01*
X140384813Y-133113634D01*
X140439998Y-132947097D01*
X140450499Y-132844308D01*
X140450499Y-131732875D01*
X142049999Y-131732875D01*
X142049999Y-131955724D01*
X142079084Y-132176654D01*
X142079087Y-132176667D01*
X142136762Y-132391918D01*
X142222044Y-132597802D01*
X142222053Y-132597820D01*
X142333463Y-132790791D01*
X142333472Y-132790804D01*
X142384039Y-132856703D01*
X142384042Y-132856703D01*
X143185386Y-132055359D01*
X143190888Y-132075891D01*
X143269880Y-132212708D01*
X143381591Y-132324419D01*
X143518408Y-132403411D01*
X143538939Y-132408912D01*
X142737594Y-133210255D01*
X142737594Y-133210256D01*
X142803506Y-133260833D01*
X142996484Y-133372249D01*
X142996496Y-133372254D01*
X143202380Y-133457536D01*
X143417631Y-133515211D01*
X143417644Y-133515214D01*
X143638574Y-133544300D01*
X143861424Y-133544300D01*
X144082353Y-133515214D01*
X144082366Y-133515211D01*
X144297617Y-133457536D01*
X144503501Y-133372254D01*
X144503513Y-133372249D01*
X144696497Y-133260830D01*
X144762402Y-133210257D01*
X144762403Y-133210256D01*
X143961058Y-132408912D01*
X143981590Y-132403411D01*
X144118407Y-132324419D01*
X144230118Y-132212708D01*
X144309110Y-132075891D01*
X144314611Y-132055359D01*
X145115955Y-132856704D01*
X145115956Y-132856703D01*
X145166529Y-132790798D01*
X145277948Y-132597814D01*
X145277953Y-132597802D01*
X145363235Y-132391918D01*
X145420910Y-132176667D01*
X145420913Y-132176654D01*
X145449999Y-131955724D01*
X145449999Y-131732875D01*
X145420913Y-131511945D01*
X145420910Y-131511932D01*
X145363235Y-131296681D01*
X145277953Y-131090797D01*
X145277948Y-131090785D01*
X145166532Y-130897807D01*
X145115955Y-130831895D01*
X145115954Y-130831895D01*
X144314611Y-131633239D01*
X144309110Y-131612709D01*
X144230118Y-131475892D01*
X144118407Y-131364181D01*
X143981590Y-131285189D01*
X143961057Y-131279687D01*
X144762402Y-130478343D01*
X144762402Y-130478342D01*
X144711797Y-130439510D01*
X144711796Y-130439509D01*
X144696495Y-130427767D01*
X144696490Y-130427764D01*
X144551896Y-130344284D01*
X151549499Y-130344284D01*
X151549499Y-132344315D01*
X151559999Y-132447095D01*
X151560000Y-132447096D01*
X151615185Y-132613635D01*
X151615186Y-132613637D01*
X151707285Y-132762951D01*
X151707288Y-132762955D01*
X151831343Y-132887010D01*
X151831347Y-132887013D01*
X151980661Y-132979112D01*
X151980663Y-132979113D01*
X151980665Y-132979114D01*
X152147202Y-133034299D01*
X152249991Y-133044800D01*
X152249996Y-133044800D01*
X154250002Y-133044800D01*
X154250007Y-133044800D01*
X154352796Y-133034299D01*
X154519333Y-132979114D01*
X154668654Y-132887011D01*
X154792710Y-132762955D01*
X154884813Y-132613634D01*
X154939998Y-132447097D01*
X154950499Y-132344308D01*
X154950499Y-131232875D01*
X156549999Y-131232875D01*
X156549999Y-131455724D01*
X156579084Y-131676654D01*
X156579087Y-131676667D01*
X156636762Y-131891918D01*
X156722044Y-132097802D01*
X156722053Y-132097820D01*
X156833463Y-132290791D01*
X156833472Y-132290804D01*
X156884039Y-132356703D01*
X156884042Y-132356703D01*
X157685386Y-131555359D01*
X157690888Y-131575891D01*
X157769880Y-131712708D01*
X157881591Y-131824419D01*
X158018408Y-131903411D01*
X158038939Y-131908912D01*
X157237594Y-132710255D01*
X157237594Y-132710256D01*
X157303506Y-132760833D01*
X157496484Y-132872249D01*
X157496496Y-132872254D01*
X157702380Y-132957536D01*
X157917631Y-133015211D01*
X157917644Y-133015214D01*
X158138574Y-133044300D01*
X158361424Y-133044300D01*
X158582353Y-133015214D01*
X158582366Y-133015211D01*
X158797617Y-132957536D01*
X159003501Y-132872254D01*
X159003513Y-132872249D01*
X159196497Y-132760830D01*
X159262402Y-132710257D01*
X159262403Y-132710256D01*
X158461058Y-131908912D01*
X158481590Y-131903411D01*
X158618407Y-131824419D01*
X158730118Y-131712708D01*
X158809110Y-131575891D01*
X158814611Y-131555359D01*
X159615955Y-132356704D01*
X159615956Y-132356703D01*
X159666529Y-132290798D01*
X159777948Y-132097814D01*
X159777953Y-132097802D01*
X159863235Y-131891918D01*
X159920910Y-131676667D01*
X159920913Y-131676654D01*
X159949999Y-131455724D01*
X159949999Y-131232875D01*
X159920913Y-131011945D01*
X159920910Y-131011932D01*
X159863235Y-130796681D01*
X159777953Y-130590797D01*
X159777948Y-130590785D01*
X159666532Y-130397807D01*
X159615955Y-130331895D01*
X159615954Y-130331895D01*
X158814611Y-131133239D01*
X158809110Y-131112709D01*
X158730118Y-130975892D01*
X158618407Y-130864181D01*
X158481590Y-130785189D01*
X158461057Y-130779687D01*
X159262402Y-129978343D01*
X159262402Y-129978340D01*
X159196503Y-129927773D01*
X159196490Y-129927764D01*
X159003519Y-129816354D01*
X159003501Y-129816345D01*
X158797617Y-129731063D01*
X158582366Y-129673388D01*
X158582353Y-129673385D01*
X158361424Y-129644300D01*
X158138574Y-129644300D01*
X157917644Y-129673385D01*
X157917631Y-129673388D01*
X157702380Y-129731063D01*
X157496496Y-129816345D01*
X157496478Y-129816354D01*
X157303510Y-129927762D01*
X157237594Y-129978342D01*
X158038940Y-130779687D01*
X158018408Y-130785189D01*
X157881591Y-130864181D01*
X157769880Y-130975892D01*
X157690888Y-131112709D01*
X157685386Y-131133240D01*
X156884041Y-130331895D01*
X156833461Y-130397811D01*
X156722053Y-130590779D01*
X156722044Y-130590797D01*
X156636762Y-130796681D01*
X156579087Y-131011932D01*
X156579084Y-131011945D01*
X156549999Y-131232875D01*
X154950499Y-131232875D01*
X154950499Y-130344292D01*
X154939998Y-130241503D01*
X154884813Y-130074966D01*
X154797154Y-129932849D01*
X154792712Y-129925648D01*
X154792709Y-129925644D01*
X154668654Y-129801589D01*
X154668650Y-129801586D01*
X154519336Y-129709487D01*
X154519334Y-129709486D01*
X154436064Y-129681893D01*
X154352796Y-129654301D01*
X154352794Y-129654300D01*
X154250014Y-129643800D01*
X154250007Y-129643800D01*
X152249991Y-129643800D01*
X152249983Y-129643800D01*
X152147203Y-129654300D01*
X152147202Y-129654301D01*
X151980663Y-129709486D01*
X151980661Y-129709487D01*
X151831347Y-129801586D01*
X151831343Y-129801589D01*
X151707288Y-129925644D01*
X151707285Y-129925648D01*
X151615186Y-130074962D01*
X151615185Y-130074964D01*
X151560000Y-130241503D01*
X151559999Y-130241504D01*
X151549499Y-130344284D01*
X144551896Y-130344284D01*
X144503519Y-130316354D01*
X144503501Y-130316345D01*
X144297617Y-130231063D01*
X144082366Y-130173388D01*
X144082353Y-130173385D01*
X143861424Y-130144300D01*
X143638574Y-130144300D01*
X143417644Y-130173385D01*
X143417631Y-130173388D01*
X143202380Y-130231063D01*
X142996496Y-130316345D01*
X142996478Y-130316354D01*
X142803510Y-130427762D01*
X142737594Y-130478342D01*
X143538940Y-131279687D01*
X143518408Y-131285189D01*
X143381591Y-131364181D01*
X143269880Y-131475892D01*
X143190888Y-131612709D01*
X143185386Y-131633240D01*
X142384041Y-130831895D01*
X142333461Y-130897811D01*
X142222053Y-131090779D01*
X142222044Y-131090797D01*
X142136762Y-131296681D01*
X142079087Y-131511932D01*
X142079084Y-131511945D01*
X142049999Y-131732875D01*
X140450499Y-131732875D01*
X140450499Y-130844292D01*
X140439998Y-130741503D01*
X140384813Y-130574966D01*
X140301262Y-130439510D01*
X140292712Y-130425648D01*
X140292709Y-130425644D01*
X140168654Y-130301589D01*
X140168650Y-130301586D01*
X140019336Y-130209487D01*
X140019334Y-130209486D01*
X139936064Y-130181893D01*
X139852796Y-130154301D01*
X139852794Y-130154300D01*
X139750014Y-130143800D01*
X139750007Y-130143800D01*
X137749991Y-130143800D01*
X137749983Y-130143800D01*
X137647203Y-130154300D01*
X137647202Y-130154301D01*
X137480663Y-130209486D01*
X137480661Y-130209487D01*
X137331347Y-130301586D01*
X137331343Y-130301589D01*
X137207288Y-130425644D01*
X137207285Y-130425648D01*
X137115186Y-130574962D01*
X137115185Y-130574964D01*
X137060000Y-130741503D01*
X137059999Y-130741504D01*
X137049499Y-130844284D01*
X124999763Y-130844284D01*
X124904169Y-130760450D01*
X124901163Y-130757725D01*
X124020451Y-129932849D01*
X124017535Y-129930027D01*
X123164271Y-129076763D01*
X123161449Y-129073847D01*
X122336573Y-128193135D01*
X122333848Y-128190129D01*
X121998560Y-127807806D01*
X121538194Y-127282860D01*
X121535601Y-127279803D01*
X120770068Y-126346998D01*
X120767545Y-126343819D01*
X120032956Y-125386484D01*
X120030539Y-125383225D01*
X119327669Y-124402372D01*
X119325360Y-124399036D01*
X118654951Y-123395699D01*
X118652752Y-123392288D01*
X118015542Y-122367570D01*
X118013456Y-122364090D01*
X117903881Y-122174300D01*
X117410090Y-121319031D01*
X117408147Y-121315534D01*
X116839308Y-120251309D01*
X116837454Y-120247700D01*
X116303746Y-119165448D01*
X116302011Y-119161780D01*
X116040366Y-118584317D01*
X115803998Y-118062643D01*
X115802384Y-118058920D01*
X115751669Y-117936484D01*
X115340597Y-116944065D01*
X115339108Y-116940296D01*
X114914052Y-115810950D01*
X114912685Y-115807130D01*
X114865898Y-115669300D01*
X114524798Y-114664453D01*
X114523583Y-114660670D01*
X114173268Y-113505838D01*
X114172176Y-113502012D01*
X113859842Y-112336366D01*
X113858877Y-112332512D01*
X113584841Y-111157236D01*
X113584004Y-111153361D01*
X113348583Y-109969817D01*
X113347861Y-109965850D01*
X113345645Y-109952430D01*
X113151287Y-108775220D01*
X113150696Y-108771229D01*
X112993187Y-107574831D01*
X112992734Y-107570899D01*
X112874452Y-106369967D01*
X112874121Y-106365926D01*
X112867142Y-106259439D01*
X112795197Y-105161771D01*
X112795000Y-105157747D01*
X112794447Y-105140862D01*
X112755518Y-103951692D01*
X112755452Y-103947635D01*
X112755452Y-102740964D01*
X112755518Y-102736907D01*
X112755937Y-102724115D01*
X112795001Y-101530820D01*
X112795197Y-101526831D01*
X112874121Y-100322665D01*
X112874453Y-100318629D01*
X112992735Y-99117693D01*
X112993186Y-99113775D01*
X113150700Y-97917337D01*
X113151286Y-97913388D01*
X113347867Y-96722713D01*
X113348581Y-96718793D01*
X113558104Y-95665453D01*
X114949499Y-95665453D01*
X114949499Y-95823146D01*
X114980260Y-95977789D01*
X114980263Y-95977801D01*
X115040601Y-96123472D01*
X115040605Y-96123479D01*
X115078601Y-96180344D01*
X115099479Y-96247021D01*
X115099499Y-96249235D01*
X115099499Y-110808370D01*
X115111719Y-110869799D01*
X115111719Y-110869801D01*
X115124496Y-110934036D01*
X115124498Y-110934044D01*
X115167563Y-111038013D01*
X115173534Y-111052427D01*
X115243594Y-111157281D01*
X115244725Y-111158973D01*
X119235325Y-115149573D01*
X119235328Y-115149575D01*
X119235330Y-115149577D01*
X119341872Y-115220765D01*
X119460255Y-115269801D01*
X119460259Y-115269801D01*
X119460260Y-115269802D01*
X119585927Y-115294800D01*
X119585930Y-115294800D01*
X143745064Y-115294800D01*
X143812103Y-115314485D01*
X143813908Y-115315666D01*
X143870820Y-115353694D01*
X143870822Y-115353695D01*
X143870826Y-115353697D01*
X144016497Y-115414035D01*
X144016502Y-115414037D01*
X144171152Y-115444799D01*
X144171155Y-115444800D01*
X144171157Y-115444800D01*
X144328843Y-115444800D01*
X144328844Y-115444799D01*
X144483496Y-115414037D01*
X144629178Y-115353694D01*
X144686043Y-115315697D01*
X144752720Y-115294820D01*
X144754934Y-115294800D01*
X147314070Y-115294800D01*
X147398614Y-115277982D01*
X147439743Y-115269801D01*
X147558126Y-115220765D01*
X147664668Y-115149577D01*
X152755276Y-110058969D01*
X152826464Y-109952427D01*
X152875500Y-109834043D01*
X152883505Y-109793800D01*
X152900499Y-109708369D01*
X152900499Y-103780231D01*
X152900499Y-103780228D01*
X152875501Y-103654561D01*
X152875500Y-103654560D01*
X152875500Y-103654556D01*
X152826464Y-103536173D01*
X152826463Y-103536172D01*
X152826460Y-103536166D01*
X152755276Y-103429632D01*
X152748786Y-103423142D01*
X152664668Y-103339024D01*
X152097000Y-102771356D01*
X150364673Y-101039027D01*
X150364672Y-101039026D01*
X150364668Y-101039023D01*
X150258126Y-100967835D01*
X150194731Y-100941576D01*
X150139743Y-100918799D01*
X150139737Y-100918797D01*
X150014070Y-100893800D01*
X150014068Y-100893800D01*
X148154934Y-100893800D01*
X148087895Y-100874115D01*
X148086089Y-100872933D01*
X148029178Y-100834906D01*
X148029171Y-100834902D01*
X147883500Y-100774564D01*
X147883488Y-100774561D01*
X147728844Y-100743800D01*
X147728841Y-100743800D01*
X147571157Y-100743800D01*
X147571154Y-100743800D01*
X147416509Y-100774561D01*
X147416497Y-100774564D01*
X147270826Y-100834902D01*
X147270813Y-100834909D01*
X147139710Y-100922510D01*
X147139706Y-100922513D01*
X147028212Y-101034007D01*
X147028209Y-101034011D01*
X146940608Y-101165114D01*
X146940601Y-101165127D01*
X146880263Y-101310798D01*
X146880260Y-101310810D01*
X146849499Y-101465453D01*
X146849499Y-101623146D01*
X146880260Y-101777789D01*
X146880263Y-101777801D01*
X146940601Y-101923472D01*
X146940608Y-101923485D01*
X147028209Y-102054588D01*
X147028212Y-102054592D01*
X147139709Y-102166089D01*
X147150527Y-102173317D01*
X147195332Y-102226929D01*
X147204039Y-102296254D01*
X147173885Y-102359281D01*
X147114442Y-102396001D01*
X147044583Y-102394754D01*
X147034184Y-102390980D01*
X146975685Y-102366749D01*
X146975673Y-102366746D01*
X146821029Y-102335985D01*
X146821026Y-102335985D01*
X146663342Y-102335985D01*
X146663339Y-102335985D01*
X146508694Y-102366746D01*
X146508682Y-102366749D01*
X146363011Y-102427087D01*
X146362998Y-102427094D01*
X146231895Y-102514695D01*
X146231891Y-102514698D01*
X146120397Y-102626192D01*
X146120394Y-102626196D01*
X146032793Y-102757299D01*
X146032786Y-102757312D01*
X145972448Y-102902983D01*
X145972445Y-102902995D01*
X145941684Y-103057638D01*
X145941684Y-103211985D01*
X145921999Y-103279024D01*
X145869195Y-103324779D01*
X145817684Y-103335985D01*
X145663339Y-103335985D01*
X145508694Y-103366746D01*
X145508682Y-103366749D01*
X145363011Y-103427087D01*
X145362998Y-103427094D01*
X145231895Y-103514695D01*
X145231891Y-103514698D01*
X145120397Y-103626192D01*
X145120394Y-103626196D01*
X145032793Y-103757299D01*
X145032786Y-103757312D01*
X144972448Y-103902983D01*
X144972445Y-103902995D01*
X144941684Y-104057638D01*
X144941684Y-104215331D01*
X144972445Y-104369974D01*
X144972448Y-104369986D01*
X145032786Y-104515657D01*
X145032793Y-104515670D01*
X145120394Y-104646773D01*
X145120397Y-104646777D01*
X145231891Y-104758271D01*
X145231895Y-104758274D01*
X145362998Y-104845875D01*
X145363011Y-104845882D01*
X145505302Y-104904820D01*
X145508687Y-104906222D01*
X145564083Y-104917241D01*
X145664033Y-104937123D01*
X145725944Y-104969508D01*
X145727523Y-104971059D01*
X146076001Y-105319537D01*
X146109486Y-105380860D01*
X146109937Y-105383026D01*
X146128787Y-105477791D01*
X146128790Y-105477801D01*
X146189128Y-105623472D01*
X146189135Y-105623485D01*
X146276736Y-105754588D01*
X146276739Y-105754592D01*
X146388233Y-105866086D01*
X146388237Y-105866089D01*
X146519340Y-105953690D01*
X146519353Y-105953697D01*
X146615204Y-105993399D01*
X146665029Y-106014037D01*
X146819679Y-106044799D01*
X146819682Y-106044800D01*
X146819684Y-106044800D01*
X146977370Y-106044800D01*
X146977371Y-106044799D01*
X147132023Y-106014037D01*
X147277705Y-105953694D01*
X147408815Y-105866089D01*
X147520315Y-105754589D01*
X147607920Y-105623479D01*
X147668263Y-105477797D01*
X147674783Y-105445014D01*
X147707168Y-105383104D01*
X147767884Y-105348530D01*
X147837653Y-105352269D01*
X147865292Y-105366104D01*
X147919343Y-105402220D01*
X147919356Y-105402227D01*
X148065027Y-105462565D01*
X148065032Y-105462567D01*
X148219682Y-105493329D01*
X148219685Y-105493330D01*
X148219687Y-105493330D01*
X148377372Y-105493330D01*
X148391646Y-105490490D01*
X148443770Y-105480122D01*
X148477492Y-105483139D01*
X148511295Y-105485557D01*
X148512216Y-105486246D01*
X148513360Y-105486349D01*
X148540107Y-105507126D01*
X148567228Y-105527429D01*
X148567629Y-105528505D01*
X148568538Y-105529211D01*
X148579812Y-105561169D01*
X148591645Y-105592893D01*
X148591400Y-105594016D01*
X148591783Y-105595100D01*
X148583994Y-105628063D01*
X148576793Y-105661166D01*
X148575885Y-105662377D01*
X148575716Y-105663097D01*
X148555642Y-105689420D01*
X148510506Y-105734556D01*
X148449183Y-105768041D01*
X148447018Y-105768492D01*
X148416506Y-105774561D01*
X148416499Y-105774563D01*
X148270826Y-105834902D01*
X148270813Y-105834909D01*
X148139710Y-105922510D01*
X148139706Y-105922513D01*
X148028212Y-106034007D01*
X148028209Y-106034011D01*
X147940608Y-106165114D01*
X147940601Y-106165127D01*
X147880263Y-106310798D01*
X147880260Y-106310810D01*
X147849499Y-106465453D01*
X147849499Y-106623146D01*
X147880260Y-106777789D01*
X147880263Y-106777801D01*
X147940601Y-106923472D01*
X147940608Y-106923485D01*
X148028209Y-107054588D01*
X148028212Y-107054592D01*
X148139706Y-107166086D01*
X148139710Y-107166089D01*
X148270813Y-107253690D01*
X148270826Y-107253697D01*
X148416497Y-107314035D01*
X148416502Y-107314037D01*
X148571152Y-107344799D01*
X148571155Y-107344800D01*
X148571157Y-107344800D01*
X148728843Y-107344800D01*
X148728844Y-107344799D01*
X148883496Y-107314037D01*
X149029178Y-107253694D01*
X149160288Y-107166089D01*
X149271788Y-107054589D01*
X149359393Y-106923479D01*
X149419736Y-106777797D01*
X149450499Y-106623142D01*
X149450499Y-106544397D01*
X149459144Y-106514953D01*
X149465667Y-106484971D01*
X149469421Y-106479955D01*
X149470184Y-106477358D01*
X149486812Y-106456721D01*
X149588927Y-106354606D01*
X149650246Y-106321124D01*
X149652414Y-106320673D01*
X149710349Y-106309148D01*
X149807761Y-106289772D01*
X149953443Y-106229429D01*
X150084553Y-106141824D01*
X150196053Y-106030324D01*
X150283658Y-105899214D01*
X150344001Y-105753532D01*
X150374764Y-105598877D01*
X150374764Y-105441193D01*
X150374764Y-105441190D01*
X150374763Y-105441188D01*
X150367013Y-105402227D01*
X150344001Y-105286538D01*
X150330769Y-105254592D01*
X150283661Y-105140862D01*
X150283654Y-105140849D01*
X150196053Y-105009746D01*
X150196050Y-105009742D01*
X150084556Y-104898248D01*
X150084552Y-104898245D01*
X149953449Y-104810644D01*
X149953436Y-104810637D01*
X149807765Y-104750299D01*
X149807753Y-104750296D01*
X149653109Y-104719535D01*
X149653106Y-104719535D01*
X149495422Y-104719535D01*
X149495419Y-104719535D01*
X149340774Y-104750296D01*
X149340767Y-104750298D01*
X149270480Y-104779411D01*
X149201011Y-104786878D01*
X149138532Y-104755603D01*
X149102880Y-104695513D01*
X149099029Y-104664849D01*
X149099029Y-104613985D01*
X149099028Y-104613983D01*
X149088772Y-104562422D01*
X149068266Y-104459333D01*
X149031373Y-104370265D01*
X149007926Y-104313657D01*
X149007919Y-104313644D01*
X148920318Y-104182541D01*
X148920315Y-104182537D01*
X148808821Y-104071043D01*
X148808817Y-104071040D01*
X148677714Y-103983439D01*
X148677701Y-103983432D01*
X148532030Y-103923094D01*
X148532020Y-103923091D01*
X148376678Y-103892191D01*
X148314767Y-103859806D01*
X148313189Y-103858255D01*
X147576758Y-103121824D01*
X147543273Y-103060501D01*
X147542822Y-103058334D01*
X147511922Y-102902995D01*
X147511921Y-102902988D01*
X147483350Y-102834011D01*
X147451581Y-102757312D01*
X147451574Y-102757299D01*
X147363973Y-102626196D01*
X147363970Y-102626192D01*
X147252476Y-102514698D01*
X147252470Y-102514693D01*
X147241654Y-102507466D01*
X147196849Y-102453853D01*
X147188143Y-102384528D01*
X147218299Y-102321501D01*
X147277742Y-102284783D01*
X147347601Y-102286031D01*
X147357990Y-102289800D01*
X147416502Y-102314037D01*
X147571152Y-102344799D01*
X147571155Y-102344800D01*
X147571157Y-102344800D01*
X147728843Y-102344800D01*
X147728844Y-102344799D01*
X147883496Y-102314037D01*
X148029178Y-102253694D01*
X148086043Y-102215697D01*
X148152720Y-102194820D01*
X148154934Y-102194800D01*
X149629191Y-102194800D01*
X149696230Y-102214485D01*
X149716872Y-102231119D01*
X151563180Y-104077426D01*
X151596665Y-104138749D01*
X151599499Y-104165107D01*
X151599499Y-109323492D01*
X151579814Y-109390531D01*
X151563180Y-109411173D01*
X147016872Y-113957481D01*
X146955549Y-113990966D01*
X146929191Y-113993800D01*
X146119807Y-113993800D01*
X146052768Y-113974115D01*
X146007013Y-113921311D01*
X145997069Y-113852153D01*
X146026094Y-113788597D01*
X146032126Y-113782119D01*
X146955272Y-112858973D01*
X146955276Y-112858969D01*
X147026464Y-112752427D01*
X147075500Y-112634044D01*
X147079448Y-112614196D01*
X147100499Y-112508369D01*
X147100499Y-111249235D01*
X147120184Y-111182196D01*
X147121365Y-111180390D01*
X147159393Y-111123479D01*
X147219736Y-110977797D01*
X147250499Y-110823142D01*
X147250499Y-110665458D01*
X147250499Y-110665455D01*
X147250498Y-110665453D01*
X147239626Y-110610798D01*
X147219736Y-110510803D01*
X147191967Y-110443761D01*
X147159396Y-110365127D01*
X147159389Y-110365114D01*
X147071788Y-110234011D01*
X147071785Y-110234007D01*
X146960291Y-110122513D01*
X146960287Y-110122510D01*
X146829184Y-110034909D01*
X146829171Y-110034902D01*
X146683500Y-109974564D01*
X146683488Y-109974561D01*
X146528844Y-109943800D01*
X146528841Y-109943800D01*
X146371157Y-109943800D01*
X146371154Y-109943800D01*
X146216509Y-109974561D01*
X146216497Y-109974564D01*
X146070826Y-110034902D01*
X146070813Y-110034909D01*
X145939710Y-110122510D01*
X145939706Y-110122513D01*
X145828212Y-110234007D01*
X145828209Y-110234011D01*
X145740608Y-110365114D01*
X145740601Y-110365127D01*
X145680263Y-110510798D01*
X145680260Y-110510810D01*
X145649499Y-110665453D01*
X145649499Y-110823146D01*
X145680260Y-110977789D01*
X145680263Y-110977801D01*
X145740601Y-111123472D01*
X145740605Y-111123479D01*
X145778601Y-111180344D01*
X145799479Y-111247021D01*
X145799499Y-111249235D01*
X145799499Y-112123491D01*
X145779814Y-112190530D01*
X145763180Y-112211172D01*
X144147067Y-113827284D01*
X144085744Y-113860769D01*
X144083578Y-113861220D01*
X144016507Y-113874561D01*
X144016497Y-113874564D01*
X143870826Y-113934902D01*
X143870819Y-113934906D01*
X143841927Y-113954211D01*
X143813954Y-113972902D01*
X143747278Y-113993780D01*
X143745064Y-113993800D01*
X119970807Y-113993800D01*
X119903768Y-113974115D01*
X119883126Y-113957481D01*
X116436818Y-110511173D01*
X116403333Y-110449850D01*
X116400499Y-110423492D01*
X116400499Y-105475842D01*
X118054999Y-105475842D01*
X118054999Y-105612755D01*
X118081705Y-105747015D01*
X118081707Y-105747023D01*
X118107873Y-105810194D01*
X118134098Y-105873505D01*
X118151276Y-105899214D01*
X118210158Y-105987338D01*
X118306959Y-106084139D01*
X118306962Y-106084141D01*
X118420793Y-106160200D01*
X118547275Y-106212591D01*
X118631942Y-106229432D01*
X118681542Y-106239298D01*
X118681546Y-106239299D01*
X118681547Y-106239299D01*
X118818452Y-106239299D01*
X118818453Y-106239298D01*
X118952723Y-106212591D01*
X119066523Y-106165453D01*
X139349499Y-106165453D01*
X139349499Y-106323146D01*
X139380260Y-106477789D01*
X139380263Y-106477801D01*
X139440601Y-106623472D01*
X139440608Y-106623485D01*
X139528209Y-106754588D01*
X139528212Y-106754592D01*
X139639706Y-106866086D01*
X139639710Y-106866089D01*
X139770813Y-106953690D01*
X139770826Y-106953697D01*
X139865798Y-106993035D01*
X139916502Y-107014037D01*
X140069131Y-107044397D01*
X140071152Y-107044799D01*
X140071155Y-107044800D01*
X140071157Y-107044800D01*
X140228843Y-107044800D01*
X140228844Y-107044799D01*
X140383496Y-107014037D01*
X140501591Y-106965121D01*
X140529171Y-106953697D01*
X140529171Y-106953696D01*
X140529178Y-106953694D01*
X140574398Y-106923479D01*
X140660874Y-106865698D01*
X140678920Y-106860047D01*
X140694830Y-106849823D01*
X140725791Y-106845371D01*
X140727552Y-106844820D01*
X140729765Y-106844800D01*
X140870233Y-106844800D01*
X140937272Y-106864485D01*
X140939124Y-106865698D01*
X141070813Y-106953690D01*
X141070826Y-106953697D01*
X141165798Y-106993035D01*
X141216502Y-107014037D01*
X141369131Y-107044397D01*
X141371152Y-107044799D01*
X141371155Y-107044800D01*
X141371157Y-107044800D01*
X141528843Y-107044800D01*
X141528844Y-107044799D01*
X141683496Y-107014037D01*
X141801591Y-106965121D01*
X141829171Y-106953697D01*
X141829171Y-106953696D01*
X141829178Y-106953694D01*
X141960288Y-106866089D01*
X142071788Y-106754589D01*
X142159393Y-106623479D01*
X142219736Y-106477797D01*
X142243589Y-106357877D01*
X142275973Y-106295968D01*
X142336689Y-106261394D01*
X142406458Y-106265133D01*
X142434097Y-106278968D01*
X142500899Y-106323604D01*
X142500912Y-106323611D01*
X142646583Y-106383949D01*
X142646588Y-106383951D01*
X142801238Y-106414713D01*
X142801241Y-106414714D01*
X142801243Y-106414714D01*
X142958929Y-106414714D01*
X142958930Y-106414713D01*
X143113582Y-106383951D01*
X143259264Y-106323608D01*
X143390374Y-106236003D01*
X143501874Y-106124503D01*
X143589479Y-105993393D01*
X143649822Y-105847711D01*
X143672330Y-105734556D01*
X143680723Y-105692364D01*
X143689487Y-105675607D01*
X143693508Y-105657128D01*
X143712252Y-105632089D01*
X143713108Y-105630453D01*
X143714603Y-105628930D01*
X143764661Y-105578872D01*
X143825982Y-105545389D01*
X143828149Y-105544938D01*
X143886084Y-105533413D01*
X143983496Y-105514037D01*
X144129178Y-105453694D01*
X144260288Y-105366089D01*
X144371788Y-105254589D01*
X144459393Y-105123479D01*
X144467493Y-105103925D01*
X144507685Y-105006891D01*
X144519736Y-104977797D01*
X144550499Y-104823142D01*
X144550499Y-104665458D01*
X144550499Y-104665455D01*
X144550498Y-104665453D01*
X144536245Y-104593800D01*
X144519736Y-104510803D01*
X144504725Y-104474563D01*
X144459396Y-104365127D01*
X144459389Y-104365114D01*
X144371788Y-104234011D01*
X144371785Y-104234007D01*
X144260291Y-104122513D01*
X144260287Y-104122510D01*
X144129184Y-104034909D01*
X144129171Y-104034902D01*
X143983500Y-103974564D01*
X143983488Y-103974561D01*
X143828844Y-103943800D01*
X143828841Y-103943800D01*
X143671157Y-103943800D01*
X143671154Y-103943800D01*
X143516509Y-103974561D01*
X143516497Y-103974564D01*
X143370826Y-104034902D01*
X143370813Y-104034909D01*
X143239710Y-104122510D01*
X143239706Y-104122513D01*
X143128212Y-104234007D01*
X143128209Y-104234011D01*
X143040608Y-104365114D01*
X143040601Y-104365127D01*
X142980263Y-104510798D01*
X142980260Y-104510808D01*
X142949360Y-104666150D01*
X142940594Y-104682906D01*
X142936575Y-104701385D01*
X142917832Y-104726421D01*
X142916975Y-104728061D01*
X142915424Y-104729639D01*
X142865424Y-104779639D01*
X142804101Y-104813124D01*
X142801935Y-104813575D01*
X142646593Y-104844475D01*
X142646583Y-104844478D01*
X142500912Y-104904816D01*
X142500899Y-104904823D01*
X142369796Y-104992424D01*
X142369792Y-104992427D01*
X142258298Y-105103921D01*
X142258295Y-105103925D01*
X142170694Y-105235028D01*
X142170687Y-105235041D01*
X142110349Y-105380712D01*
X142110346Y-105380722D01*
X142086494Y-105500635D01*
X142054109Y-105562546D01*
X141993393Y-105597120D01*
X141923624Y-105593380D01*
X141895986Y-105579545D01*
X141829184Y-105534909D01*
X141829171Y-105534902D01*
X141683500Y-105474564D01*
X141683488Y-105474561D01*
X141528844Y-105443800D01*
X141528841Y-105443800D01*
X141371157Y-105443800D01*
X141371154Y-105443800D01*
X141216509Y-105474561D01*
X141216497Y-105474564D01*
X141070826Y-105534902D01*
X141070813Y-105534909D01*
X140939124Y-105622902D01*
X140921077Y-105628552D01*
X140905168Y-105638777D01*
X140874206Y-105643228D01*
X140872446Y-105643780D01*
X140870233Y-105643800D01*
X140729765Y-105643800D01*
X140662726Y-105624115D01*
X140660874Y-105622902D01*
X140529184Y-105534909D01*
X140529171Y-105534902D01*
X140383500Y-105474564D01*
X140383488Y-105474561D01*
X140228844Y-105443800D01*
X140228841Y-105443800D01*
X140071157Y-105443800D01*
X140071154Y-105443800D01*
X139916509Y-105474561D01*
X139916497Y-105474564D01*
X139770826Y-105534902D01*
X139770813Y-105534909D01*
X139639710Y-105622510D01*
X139639706Y-105622513D01*
X139528212Y-105734007D01*
X139528209Y-105734011D01*
X139440608Y-105865114D01*
X139440601Y-105865127D01*
X139380263Y-106010798D01*
X139380260Y-106010810D01*
X139349499Y-106165453D01*
X119066523Y-106165453D01*
X119079205Y-106160200D01*
X119193036Y-106084141D01*
X119193039Y-106084138D01*
X119205493Y-106071685D01*
X119289838Y-105987339D01*
X119289839Y-105987338D01*
X119289841Y-105987336D01*
X119365900Y-105873505D01*
X119418291Y-105747023D01*
X119444999Y-105612751D01*
X119444999Y-105475847D01*
X119418291Y-105341575D01*
X119365900Y-105215093D01*
X119289841Y-105101262D01*
X119289839Y-105101259D01*
X119193038Y-105004458D01*
X119092056Y-104936985D01*
X119079205Y-104928398D01*
X119025670Y-104906223D01*
X118952723Y-104876007D01*
X118952715Y-104876005D01*
X118818455Y-104849299D01*
X118818451Y-104849299D01*
X118681547Y-104849299D01*
X118681542Y-104849299D01*
X118547282Y-104876005D01*
X118547274Y-104876007D01*
X118420794Y-104928397D01*
X118306959Y-105004458D01*
X118210158Y-105101259D01*
X118134097Y-105215094D01*
X118081707Y-105341574D01*
X118081705Y-105341582D01*
X118054999Y-105475842D01*
X116400499Y-105475842D01*
X116400499Y-101075844D01*
X118054999Y-101075844D01*
X118054999Y-101212757D01*
X118081705Y-101347017D01*
X118081707Y-101347025D01*
X118134097Y-101473505D01*
X118210158Y-101587340D01*
X118306959Y-101684141D01*
X118306962Y-101684143D01*
X118420793Y-101760202D01*
X118547275Y-101812593D01*
X118681542Y-101839300D01*
X118681546Y-101839301D01*
X118681547Y-101839301D01*
X118818452Y-101839301D01*
X118818453Y-101839300D01*
X118952723Y-101812593D01*
X119079205Y-101760202D01*
X119193036Y-101684143D01*
X119289841Y-101587338D01*
X119365900Y-101473507D01*
X119418291Y-101347025D01*
X119444999Y-101212753D01*
X119444999Y-101075849D01*
X119418291Y-100941577D01*
X119365900Y-100815095D01*
X119289841Y-100701264D01*
X119289839Y-100701261D01*
X119193038Y-100604460D01*
X119136120Y-100566429D01*
X119079205Y-100528400D01*
X118952723Y-100476009D01*
X118952715Y-100476007D01*
X118818455Y-100449301D01*
X118818451Y-100449301D01*
X118681547Y-100449301D01*
X118681542Y-100449301D01*
X118547282Y-100476007D01*
X118547274Y-100476009D01*
X118420794Y-100528399D01*
X118306959Y-100604460D01*
X118210158Y-100701261D01*
X118134097Y-100815096D01*
X118081707Y-100941576D01*
X118081705Y-100941584D01*
X118054999Y-101075844D01*
X116400499Y-101075844D01*
X116400499Y-98165453D01*
X147449499Y-98165453D01*
X147449499Y-98323146D01*
X147480260Y-98477789D01*
X147480263Y-98477801D01*
X147540601Y-98623472D01*
X147540608Y-98623485D01*
X147628209Y-98754588D01*
X147628212Y-98754592D01*
X147739706Y-98866086D01*
X147739710Y-98866089D01*
X147870813Y-98953690D01*
X147870826Y-98953697D01*
X148016497Y-99014035D01*
X148016502Y-99014037D01*
X148171152Y-99044799D01*
X148171155Y-99044800D01*
X148171157Y-99044800D01*
X148328843Y-99044800D01*
X148328844Y-99044799D01*
X148483496Y-99014037D01*
X148629178Y-98953694D01*
X148708705Y-98900556D01*
X148760874Y-98865698D01*
X148778920Y-98860047D01*
X148794830Y-98849823D01*
X148825791Y-98845371D01*
X148827552Y-98844820D01*
X148829765Y-98844800D01*
X148885233Y-98844800D01*
X148952272Y-98864485D01*
X148954124Y-98865698D01*
X149085813Y-98953690D01*
X149085826Y-98953697D01*
X149231497Y-99014035D01*
X149231502Y-99014037D01*
X149386152Y-99044799D01*
X149386155Y-99044800D01*
X149386157Y-99044800D01*
X149543843Y-99044800D01*
X149543844Y-99044799D01*
X149698496Y-99014037D01*
X149844178Y-98953694D01*
X149975288Y-98866089D01*
X150086788Y-98754589D01*
X150174393Y-98623479D01*
X150234736Y-98477797D01*
X150265499Y-98323142D01*
X150265499Y-98165458D01*
X150265499Y-98165455D01*
X150265498Y-98165453D01*
X150258510Y-98130324D01*
X150234736Y-98010803D01*
X150195197Y-97915346D01*
X150174396Y-97865127D01*
X150174389Y-97865114D01*
X150086788Y-97734011D01*
X150086785Y-97734007D01*
X149975291Y-97622513D01*
X149975287Y-97622510D01*
X149853581Y-97541188D01*
X155625234Y-97541188D01*
X155625234Y-97698881D01*
X155655995Y-97853524D01*
X155655998Y-97853536D01*
X155716336Y-97999207D01*
X155716343Y-97999220D01*
X155804336Y-98130909D01*
X155809986Y-98148955D01*
X155820211Y-98164865D01*
X155824662Y-98195824D01*
X155825214Y-98197586D01*
X155825234Y-98199800D01*
X155825234Y-98333365D01*
X155825233Y-98333383D01*
X155825233Y-98499089D01*
X155825232Y-98499089D01*
X155866157Y-98651820D01*
X155870285Y-98658969D01*
X155870288Y-98658975D01*
X155945211Y-98788747D01*
X155945215Y-98788752D01*
X156064083Y-98907620D01*
X156064089Y-98907625D01*
X164113180Y-106956716D01*
X164146665Y-107018039D01*
X164149499Y-107044397D01*
X164149499Y-109757630D01*
X164149498Y-109757648D01*
X164149498Y-109923354D01*
X164149497Y-109923354D01*
X164167154Y-109989249D01*
X164190422Y-110076085D01*
X164206384Y-110103732D01*
X164212424Y-110114192D01*
X164212425Y-110114196D01*
X164269474Y-110213009D01*
X164269480Y-110213017D01*
X164388348Y-110331885D01*
X164388354Y-110331890D01*
X164689582Y-110633119D01*
X164723067Y-110694442D01*
X164718083Y-110764134D01*
X164676211Y-110820067D01*
X164610747Y-110844484D01*
X164601901Y-110844800D01*
X163021807Y-110844800D01*
X162954768Y-110825115D01*
X162934126Y-110808481D01*
X161295442Y-109169797D01*
X161261957Y-109108474D01*
X161265192Y-109043798D01*
X161292245Y-108960543D01*
X161325499Y-108750587D01*
X161325499Y-108538013D01*
X161292245Y-108328057D01*
X161226556Y-108125888D01*
X161130050Y-107936484D01*
X161130048Y-107936481D01*
X161130047Y-107936479D01*
X161005108Y-107764513D01*
X160866293Y-107625698D01*
X160832808Y-107564375D01*
X160837792Y-107494683D01*
X160879664Y-107438750D01*
X160888878Y-107432478D01*
X160894330Y-107429114D01*
X160894333Y-107429114D01*
X161043655Y-107337012D01*
X161167711Y-107212956D01*
X161259813Y-107063634D01*
X161314998Y-106897097D01*
X161325499Y-106794309D01*
X161325498Y-105494292D01*
X161323813Y-105477801D01*
X161314998Y-105391503D01*
X161314997Y-105391500D01*
X161311471Y-105380860D01*
X161259813Y-105224966D01*
X161167711Y-105075644D01*
X161043655Y-104951588D01*
X160894333Y-104859486D01*
X160727796Y-104804301D01*
X160727794Y-104804300D01*
X160625009Y-104793800D01*
X159074997Y-104793800D01*
X159074980Y-104793801D01*
X158972202Y-104804300D01*
X158972199Y-104804301D01*
X158805667Y-104859485D01*
X158805662Y-104859487D01*
X158656341Y-104951589D01*
X158532288Y-105075642D01*
X158440186Y-105224963D01*
X158440184Y-105224968D01*
X158436848Y-105235035D01*
X158385000Y-105391503D01*
X158385000Y-105391504D01*
X158384999Y-105391504D01*
X158374499Y-105494283D01*
X158374499Y-106794301D01*
X158374500Y-106794318D01*
X158384999Y-106897096D01*
X158385000Y-106897099D01*
X158423749Y-107014035D01*
X158440185Y-107063634D01*
X158503379Y-107166089D01*
X158532288Y-107212957D01*
X158656343Y-107337012D01*
X158811119Y-107432478D01*
X158857844Y-107484426D01*
X158869067Y-107553388D01*
X158841223Y-107617471D01*
X158833705Y-107625698D01*
X158694888Y-107764515D01*
X158569950Y-107936479D01*
X158473443Y-108125885D01*
X158407752Y-108328060D01*
X158374499Y-108538013D01*
X158374499Y-108750587D01*
X158378089Y-108773254D01*
X158407752Y-108960539D01*
X158407752Y-108960541D01*
X158407753Y-108960543D01*
X158450880Y-109093275D01*
X158473443Y-109162714D01*
X158569950Y-109352120D01*
X158694889Y-109524086D01*
X158845208Y-109674405D01*
X158845213Y-109674409D01*
X159009792Y-109793982D01*
X159052458Y-109849311D01*
X159058437Y-109918925D01*
X159025832Y-109980720D01*
X159009792Y-109994618D01*
X158845213Y-110114190D01*
X158845211Y-110114192D01*
X158694893Y-110264509D01*
X158694889Y-110264513D01*
X158569950Y-110436479D01*
X158473443Y-110625885D01*
X158473442Y-110625887D01*
X158473442Y-110625888D01*
X158460586Y-110665455D01*
X158407752Y-110828060D01*
X158384036Y-110977797D01*
X158374499Y-111038013D01*
X158374499Y-111250587D01*
X158407753Y-111460543D01*
X158461961Y-111627378D01*
X158473443Y-111662714D01*
X158569950Y-111852120D01*
X158694889Y-112024086D01*
X158845208Y-112174405D01*
X158845213Y-112174409D01*
X159009792Y-112293982D01*
X159052458Y-112349311D01*
X159058437Y-112418925D01*
X159025832Y-112480720D01*
X159009792Y-112494618D01*
X158845213Y-112614190D01*
X158845208Y-112614194D01*
X158694889Y-112764513D01*
X158569950Y-112936479D01*
X158473443Y-113125885D01*
X158407752Y-113328060D01*
X158374499Y-113538013D01*
X158374499Y-113750586D01*
X158390585Y-113852153D01*
X158407753Y-113960543D01*
X158418552Y-113993780D01*
X158473443Y-114162714D01*
X158569950Y-114352120D01*
X158694889Y-114524086D01*
X158845208Y-114674405D01*
X158845213Y-114674409D01*
X159010217Y-114794291D01*
X159052883Y-114849620D01*
X159058862Y-114919234D01*
X159026257Y-114981029D01*
X159010217Y-114994927D01*
X158845539Y-115114572D01*
X158845534Y-115114576D01*
X158695275Y-115264835D01*
X158695271Y-115264840D01*
X158570378Y-115436742D01*
X158473903Y-115626082D01*
X158408241Y-115828170D01*
X158408241Y-115828173D01*
X158397768Y-115894300D01*
X159445853Y-115894300D01*
X159407369Y-115960957D01*
X159374999Y-116081765D01*
X159374999Y-116206835D01*
X159407369Y-116327643D01*
X159445853Y-116394300D01*
X158397768Y-116394300D01*
X158408241Y-116460426D01*
X158408241Y-116460429D01*
X158473903Y-116662517D01*
X158570378Y-116851857D01*
X158695271Y-117023759D01*
X158695275Y-117023764D01*
X158845534Y-117174023D01*
X158845539Y-117174027D01*
X159010217Y-117293672D01*
X159052883Y-117349001D01*
X159058862Y-117418615D01*
X159026257Y-117480410D01*
X159010217Y-117494308D01*
X158845213Y-117614190D01*
X158845208Y-117614194D01*
X158694889Y-117764513D01*
X158569950Y-117936479D01*
X158473443Y-118125885D01*
X158407752Y-118328060D01*
X158374499Y-118538013D01*
X158374499Y-118750587D01*
X158407753Y-118960543D01*
X158473139Y-119161780D01*
X158473443Y-119162714D01*
X158569950Y-119352120D01*
X158694889Y-119524086D01*
X158845212Y-119674409D01*
X159017178Y-119799348D01*
X159017180Y-119799349D01*
X159017183Y-119799351D01*
X159206587Y-119895857D01*
X159408756Y-119961546D01*
X159618712Y-119994800D01*
X159618713Y-119994800D01*
X160081285Y-119994800D01*
X160081286Y-119994800D01*
X160291242Y-119961546D01*
X160493411Y-119895857D01*
X160682815Y-119799351D01*
X160704788Y-119783386D01*
X160854785Y-119674409D01*
X160854787Y-119674406D01*
X160854791Y-119674404D01*
X161005103Y-119524092D01*
X161005105Y-119524088D01*
X161005108Y-119524086D01*
X161130047Y-119352120D01*
X161130046Y-119352120D01*
X161130050Y-119352116D01*
X161226556Y-119162712D01*
X161292245Y-118960543D01*
X161325499Y-118750587D01*
X161325499Y-118538013D01*
X161292245Y-118328057D01*
X161226556Y-118125888D01*
X161130050Y-117936484D01*
X161130048Y-117936481D01*
X161130047Y-117936479D01*
X161005108Y-117764513D01*
X160854789Y-117614194D01*
X160854784Y-117614190D01*
X160689780Y-117494308D01*
X160647114Y-117438978D01*
X160641135Y-117369365D01*
X160673740Y-117307570D01*
X160689780Y-117293671D01*
X160854465Y-117174021D01*
X161004722Y-117023764D01*
X161004726Y-117023759D01*
X161129619Y-116851857D01*
X161226094Y-116662517D01*
X161291756Y-116460429D01*
X161291756Y-116460426D01*
X161302230Y-116394300D01*
X160254145Y-116394300D01*
X160292629Y-116327643D01*
X160324999Y-116206835D01*
X160324999Y-116081765D01*
X160292629Y-115960957D01*
X160254145Y-115894300D01*
X161302230Y-115894300D01*
X161291756Y-115828173D01*
X161291756Y-115828170D01*
X161226094Y-115626082D01*
X161129619Y-115436742D01*
X161004726Y-115264840D01*
X161004722Y-115264835D01*
X160854463Y-115114576D01*
X160854458Y-115114572D01*
X160689780Y-114994927D01*
X160647114Y-114939597D01*
X160641135Y-114869984D01*
X160673740Y-114808189D01*
X160689775Y-114794294D01*
X160854791Y-114674404D01*
X161005103Y-114524092D01*
X161005105Y-114524088D01*
X161005108Y-114524086D01*
X161130047Y-114352120D01*
X161130046Y-114352120D01*
X161130050Y-114352116D01*
X161226556Y-114162712D01*
X161292245Y-113960543D01*
X161325499Y-113750587D01*
X161325499Y-113538013D01*
X161292245Y-113328057D01*
X161226556Y-113125888D01*
X161130050Y-112936484D01*
X161130048Y-112936481D01*
X161130047Y-112936479D01*
X161005108Y-112764513D01*
X160854791Y-112614196D01*
X160854783Y-112614190D01*
X160690203Y-112494616D01*
X160647539Y-112439289D01*
X160641560Y-112369676D01*
X160674165Y-112307880D01*
X160690198Y-112293986D01*
X160854791Y-112174404D01*
X161005103Y-112024092D01*
X161005105Y-112024088D01*
X161005108Y-112024086D01*
X161130047Y-111852120D01*
X161130046Y-111852120D01*
X161130050Y-111852116D01*
X161226556Y-111662712D01*
X161292245Y-111460543D01*
X161316256Y-111308939D01*
X161346185Y-111245806D01*
X161405496Y-111208874D01*
X161475359Y-111209872D01*
X161526410Y-111240657D01*
X162286324Y-112000572D01*
X162286325Y-112000573D01*
X162286328Y-112000575D01*
X162286330Y-112000577D01*
X162392872Y-112071765D01*
X162511255Y-112120801D01*
X162511259Y-112120801D01*
X162511260Y-112120802D01*
X162636927Y-112145800D01*
X162636930Y-112145800D01*
X170563070Y-112145800D01*
X170647614Y-112128982D01*
X170688743Y-112120801D01*
X170807126Y-112071765D01*
X170913668Y-112000577D01*
X171252931Y-111661312D01*
X171314250Y-111627830D01*
X171316315Y-111627399D01*
X171383496Y-111614037D01*
X171529178Y-111553694D01*
X171660288Y-111466089D01*
X171771788Y-111354589D01*
X171859393Y-111223479D01*
X171919736Y-111077797D01*
X171939627Y-110977801D01*
X171950499Y-110923144D01*
X171950499Y-110765455D01*
X171950498Y-110765453D01*
X171919738Y-110610811D01*
X171919737Y-110610808D01*
X171919736Y-110610803D01*
X171909936Y-110587144D01*
X171900499Y-110539696D01*
X171900499Y-107849235D01*
X171920184Y-107782196D01*
X171921365Y-107780390D01*
X171959393Y-107723479D01*
X172019736Y-107577797D01*
X172050499Y-107423142D01*
X172050499Y-107265458D01*
X172050499Y-107265455D01*
X172050498Y-107265453D01*
X172040056Y-107212957D01*
X172019736Y-107110803D01*
X171992397Y-107044800D01*
X171959396Y-106965127D01*
X171959389Y-106965114D01*
X171871788Y-106834011D01*
X171871785Y-106834007D01*
X171760291Y-106722513D01*
X171760287Y-106722510D01*
X171629184Y-106634909D01*
X171629171Y-106634902D01*
X171483500Y-106574564D01*
X171483488Y-106574561D01*
X171328844Y-106543800D01*
X171328841Y-106543800D01*
X171171157Y-106543800D01*
X171171154Y-106543800D01*
X171016509Y-106574561D01*
X171016497Y-106574564D01*
X170870826Y-106634902D01*
X170870813Y-106634909D01*
X170739710Y-106722510D01*
X170739706Y-106722513D01*
X170628212Y-106834007D01*
X170628209Y-106834011D01*
X170540608Y-106965114D01*
X170540601Y-106965127D01*
X170480263Y-107110798D01*
X170480260Y-107110810D01*
X170449499Y-107265453D01*
X170449499Y-107423146D01*
X170480260Y-107577789D01*
X170480263Y-107577801D01*
X170540601Y-107723472D01*
X170540605Y-107723479D01*
X170578601Y-107780344D01*
X170599479Y-107847021D01*
X170599499Y-107849235D01*
X170599499Y-110211359D01*
X170579814Y-110278398D01*
X170563180Y-110299040D01*
X170528212Y-110334007D01*
X170528209Y-110334011D01*
X170440608Y-110465114D01*
X170440601Y-110465127D01*
X170380263Y-110610798D01*
X170380260Y-110610808D01*
X170366919Y-110677878D01*
X170358154Y-110694633D01*
X170354135Y-110713111D01*
X170335389Y-110738154D01*
X170334534Y-110739789D01*
X170332985Y-110741366D01*
X170265873Y-110808480D01*
X170204550Y-110841966D01*
X170178190Y-110844800D01*
X168668045Y-110844800D01*
X168601006Y-110825115D01*
X168555251Y-110772311D01*
X168546428Y-110744991D01*
X168533078Y-110677878D01*
X168519736Y-110610803D01*
X168512900Y-110594300D01*
X168459396Y-110465127D01*
X168459389Y-110465114D01*
X168371788Y-110334011D01*
X168371785Y-110334007D01*
X168260291Y-110222513D01*
X168260287Y-110222510D01*
X168129184Y-110134909D01*
X168129171Y-110134902D01*
X167983500Y-110074564D01*
X167983488Y-110074561D01*
X167828844Y-110043800D01*
X167828841Y-110043800D01*
X167671157Y-110043800D01*
X167671154Y-110043800D01*
X167516509Y-110074561D01*
X167516497Y-110074564D01*
X167370826Y-110134902D01*
X167370813Y-110134909D01*
X167239124Y-110222902D01*
X167172446Y-110243780D01*
X167170233Y-110243800D01*
X166050097Y-110243800D01*
X165983058Y-110224115D01*
X165962416Y-110207481D01*
X165386818Y-109631883D01*
X165353333Y-109570560D01*
X165350499Y-109544202D01*
X165350499Y-106665245D01*
X165350499Y-106665243D01*
X165309576Y-106512516D01*
X165290777Y-106479955D01*
X165230523Y-106375590D01*
X165230520Y-106375586D01*
X165230519Y-106375584D01*
X165118715Y-106263780D01*
X165118714Y-106263779D01*
X165114384Y-106259449D01*
X165114373Y-106259439D01*
X164946304Y-106091370D01*
X172624499Y-106091370D01*
X172624499Y-108597229D01*
X172664525Y-108849940D01*
X172743587Y-109093272D01*
X172743588Y-109093275D01*
X172822532Y-109248210D01*
X172857963Y-109317746D01*
X172859749Y-109321250D01*
X173010131Y-109528235D01*
X173010135Y-109528240D01*
X173191058Y-109709163D01*
X173191063Y-109709167D01*
X173361499Y-109832995D01*
X173398052Y-109859552D01*
X173514578Y-109918925D01*
X173626023Y-109975710D01*
X173626026Y-109975711D01*
X173684217Y-109994618D01*
X173869360Y-110054774D01*
X174122069Y-110094800D01*
X174122070Y-110094800D01*
X174377928Y-110094800D01*
X174377929Y-110094800D01*
X174630638Y-110054774D01*
X174777839Y-110006946D01*
X174847680Y-110004951D01*
X174907513Y-110041031D01*
X174938341Y-110103732D01*
X174930376Y-110173147D01*
X174925506Y-110182624D01*
X174925694Y-110182720D01*
X174833872Y-110362928D01*
X174772875Y-110550656D01*
X174772875Y-110550657D01*
X174765963Y-110594300D01*
X175816987Y-110594300D01*
X175784074Y-110651307D01*
X175749999Y-110778474D01*
X175749999Y-110910126D01*
X175784074Y-111037293D01*
X175816987Y-111094300D01*
X174765963Y-111094300D01*
X174772875Y-111137942D01*
X174772875Y-111137943D01*
X174833872Y-111325671D01*
X174923484Y-111501542D01*
X175039495Y-111661219D01*
X175039499Y-111661224D01*
X175179074Y-111800799D01*
X175179079Y-111800803D01*
X175338756Y-111916814D01*
X175514625Y-112006426D01*
X175702352Y-112067423D01*
X175897302Y-112098300D01*
X176499999Y-112098300D01*
X176499999Y-111344300D01*
X176999999Y-111344300D01*
X176999999Y-112098300D01*
X177602696Y-112098300D01*
X177797645Y-112067423D01*
X177985372Y-112006426D01*
X178161241Y-111916814D01*
X178320918Y-111800803D01*
X178320923Y-111800799D01*
X178460498Y-111661224D01*
X178460502Y-111661219D01*
X178576513Y-111501542D01*
X178666125Y-111325671D01*
X178727122Y-111137943D01*
X178727122Y-111137942D01*
X178734035Y-111094300D01*
X177683011Y-111094300D01*
X177715924Y-111037293D01*
X177749999Y-110910126D01*
X177749999Y-110778474D01*
X177715924Y-110651307D01*
X177683011Y-110594300D01*
X178734035Y-110594300D01*
X178727122Y-110550657D01*
X178727122Y-110550656D01*
X178666125Y-110362928D01*
X178576513Y-110187057D01*
X178460502Y-110027380D01*
X178460498Y-110027375D01*
X178320923Y-109887800D01*
X178320918Y-109887796D01*
X178161239Y-109771783D01*
X178138118Y-109760002D01*
X178138117Y-109760002D01*
X177985372Y-109682173D01*
X177903602Y-109655604D01*
X180349499Y-109655604D01*
X180349499Y-109832995D01*
X180384102Y-110006958D01*
X180384105Y-110006967D01*
X180451982Y-110170840D01*
X180451989Y-110170853D01*
X180550534Y-110318334D01*
X180550537Y-110318338D01*
X180675960Y-110443761D01*
X180675964Y-110443764D01*
X180823445Y-110542309D01*
X180823458Y-110542316D01*
X180931692Y-110587147D01*
X180987333Y-110610194D01*
X180987335Y-110610194D01*
X180987340Y-110610196D01*
X181161303Y-110644799D01*
X181161306Y-110644800D01*
X181161308Y-110644800D01*
X181338692Y-110644800D01*
X181338693Y-110644799D01*
X181397414Y-110633119D01*
X181512657Y-110610196D01*
X181512660Y-110610194D01*
X181512665Y-110610194D01*
X181676546Y-110542313D01*
X181824034Y-110443764D01*
X181949463Y-110318335D01*
X182048012Y-110170847D01*
X182115893Y-110006966D01*
X182118350Y-109994618D01*
X182150498Y-109832995D01*
X182150499Y-109832993D01*
X182150499Y-109655606D01*
X182150498Y-109655604D01*
X182115895Y-109481641D01*
X182115892Y-109481632D01*
X182048015Y-109317759D01*
X182048008Y-109317746D01*
X181949463Y-109170265D01*
X181949460Y-109170261D01*
X181824037Y-109044838D01*
X181824033Y-109044835D01*
X181676552Y-108946290D01*
X181676539Y-108946283D01*
X181512666Y-108878406D01*
X181512657Y-108878403D01*
X181338693Y-108843800D01*
X181338690Y-108843800D01*
X181161308Y-108843800D01*
X181161305Y-108843800D01*
X180987340Y-108878403D01*
X180987331Y-108878406D01*
X180823458Y-108946283D01*
X180823445Y-108946290D01*
X180675964Y-109044835D01*
X180675960Y-109044838D01*
X180550537Y-109170261D01*
X180550534Y-109170265D01*
X180451989Y-109317746D01*
X180451982Y-109317759D01*
X180384105Y-109481632D01*
X180384102Y-109481641D01*
X180349499Y-109655604D01*
X177903602Y-109655604D01*
X177797645Y-109621176D01*
X177602696Y-109590300D01*
X176999999Y-109590300D01*
X176999999Y-110344300D01*
X176499999Y-110344300D01*
X176499999Y-109590300D01*
X175897302Y-109590300D01*
X175702351Y-109621177D01*
X175702342Y-109621179D01*
X175698750Y-109622346D01*
X175628909Y-109624332D01*
X175569080Y-109588244D01*
X175538260Y-109525539D01*
X175546234Y-109456126D01*
X175560124Y-109431532D01*
X175640251Y-109321247D01*
X175756409Y-109093275D01*
X175835473Y-108849939D01*
X175875499Y-108597230D01*
X175875499Y-106091370D01*
X175835473Y-105838661D01*
X175795941Y-105716993D01*
X175756410Y-105595327D01*
X175756409Y-105595324D01*
X175714991Y-105514037D01*
X175640251Y-105367353D01*
X175581536Y-105286538D01*
X175560628Y-105257760D01*
X175537148Y-105191954D01*
X175552974Y-105123900D01*
X175603079Y-105075205D01*
X175671558Y-105061330D01*
X175699270Y-105066946D01*
X175702236Y-105067910D01*
X175734741Y-105073058D01*
X175897263Y-105098800D01*
X175897268Y-105098800D01*
X177602735Y-105098800D01*
X177797762Y-105067910D01*
X177818013Y-105061330D01*
X177985560Y-105006891D01*
X178161500Y-104917244D01*
X178246341Y-104855604D01*
X180349499Y-104855604D01*
X180349499Y-105032995D01*
X180384102Y-105206958D01*
X180384105Y-105206967D01*
X180451982Y-105370840D01*
X180451989Y-105370853D01*
X180550534Y-105518334D01*
X180550537Y-105518338D01*
X180675960Y-105643761D01*
X180675964Y-105643764D01*
X180823445Y-105742309D01*
X180823458Y-105742316D01*
X180886654Y-105768492D01*
X180987333Y-105810194D01*
X180987335Y-105810194D01*
X180987340Y-105810196D01*
X181161303Y-105844799D01*
X181161306Y-105844800D01*
X181161308Y-105844800D01*
X181338692Y-105844800D01*
X181338693Y-105844799D01*
X181396681Y-105833264D01*
X181512657Y-105810196D01*
X181512660Y-105810194D01*
X181512665Y-105810194D01*
X181676546Y-105742313D01*
X181824034Y-105643764D01*
X181949463Y-105518335D01*
X182048012Y-105370847D01*
X182115893Y-105206966D01*
X182125684Y-105157747D01*
X182150498Y-105032995D01*
X182150499Y-105032993D01*
X182150499Y-104855606D01*
X182150498Y-104855604D01*
X182115895Y-104681641D01*
X182115892Y-104681631D01*
X182048015Y-104517759D01*
X182048008Y-104517746D01*
X181949463Y-104370265D01*
X181949460Y-104370261D01*
X181824037Y-104244838D01*
X181824033Y-104244835D01*
X181676552Y-104146290D01*
X181676539Y-104146283D01*
X181512666Y-104078406D01*
X181512657Y-104078403D01*
X181338693Y-104043800D01*
X181338690Y-104043800D01*
X181161308Y-104043800D01*
X181161305Y-104043800D01*
X180987340Y-104078403D01*
X180987331Y-104078406D01*
X180823458Y-104146283D01*
X180823445Y-104146290D01*
X180675964Y-104244835D01*
X180675960Y-104244838D01*
X180550537Y-104370261D01*
X180550534Y-104370265D01*
X180451989Y-104517746D01*
X180451982Y-104517759D01*
X180384106Y-104681631D01*
X180384102Y-104681641D01*
X180349499Y-104855604D01*
X178246341Y-104855604D01*
X178282890Y-104829050D01*
X178321245Y-104801184D01*
X178321247Y-104801181D01*
X178321251Y-104801179D01*
X178460878Y-104661552D01*
X178460880Y-104661548D01*
X178460883Y-104661546D01*
X178511778Y-104591492D01*
X178576943Y-104501801D01*
X178666590Y-104325861D01*
X178727609Y-104138063D01*
X178738224Y-104071043D01*
X178758499Y-103943036D01*
X178758499Y-103745563D01*
X178727609Y-103550536D01*
X178707269Y-103487937D01*
X178666590Y-103362739D01*
X178576943Y-103186799D01*
X178569485Y-103176534D01*
X178460883Y-103027053D01*
X178321245Y-102887415D01*
X178161503Y-102771358D01*
X178161502Y-102771357D01*
X178161500Y-102771356D01*
X177985560Y-102681709D01*
X177985557Y-102681708D01*
X177797762Y-102620689D01*
X177602735Y-102589800D01*
X177602730Y-102589800D01*
X175897268Y-102589800D01*
X175897263Y-102589800D01*
X175702235Y-102620689D01*
X175514440Y-102681708D01*
X175338494Y-102771358D01*
X175178752Y-102887415D01*
X175039114Y-103027053D01*
X174923057Y-103186795D01*
X174833407Y-103362741D01*
X174772388Y-103550536D01*
X174741499Y-103745563D01*
X174741499Y-103943036D01*
X174772388Y-104138063D01*
X174803564Y-104234011D01*
X174833408Y-104325861D01*
X174923055Y-104501801D01*
X174925267Y-104506142D01*
X174923429Y-104507078D01*
X174939393Y-104566192D01*
X174918250Y-104632785D01*
X174864459Y-104677376D01*
X174795100Y-104685807D01*
X174777105Y-104681415D01*
X174630639Y-104633826D01*
X174504283Y-104613813D01*
X174377929Y-104593800D01*
X174122069Y-104593800D01*
X174037832Y-104607142D01*
X173869358Y-104633826D01*
X173626026Y-104712888D01*
X173626023Y-104712889D01*
X173398048Y-104829050D01*
X173191063Y-104979432D01*
X173191058Y-104979436D01*
X173010135Y-105160359D01*
X173010131Y-105160364D01*
X172859749Y-105367349D01*
X172743588Y-105595324D01*
X172743587Y-105595327D01*
X172664525Y-105838659D01*
X172624499Y-106091370D01*
X164946304Y-106091370D01*
X157094541Y-98239607D01*
X157061056Y-98178284D01*
X157066040Y-98108592D01*
X157079116Y-98083041D01*
X157135128Y-97999214D01*
X157195471Y-97853532D01*
X157226234Y-97698877D01*
X157226234Y-97541193D01*
X157226234Y-97541190D01*
X157226233Y-97541188D01*
X157224983Y-97534902D01*
X157195471Y-97386538D01*
X157168502Y-97321428D01*
X157135131Y-97240862D01*
X157135124Y-97240849D01*
X157062505Y-97132168D01*
X157062504Y-97132167D01*
X157047523Y-97109746D01*
X156936023Y-96998246D01*
X156913601Y-96983264D01*
X156913599Y-96983262D01*
X156804919Y-96910644D01*
X156804906Y-96910637D01*
X156659235Y-96850299D01*
X156659223Y-96850296D01*
X156504579Y-96819535D01*
X156504576Y-96819535D01*
X156346892Y-96819535D01*
X156346889Y-96819535D01*
X156192244Y-96850296D01*
X156192232Y-96850299D01*
X156046561Y-96910637D01*
X156046548Y-96910644D01*
X155915445Y-96998245D01*
X155915441Y-96998248D01*
X155803947Y-97109742D01*
X155803944Y-97109746D01*
X155716343Y-97240849D01*
X155716336Y-97240862D01*
X155655998Y-97386533D01*
X155655995Y-97386545D01*
X155625234Y-97541188D01*
X149853581Y-97541188D01*
X149844184Y-97534909D01*
X149844171Y-97534902D01*
X149698500Y-97474564D01*
X149698488Y-97474561D01*
X149543844Y-97443800D01*
X149543841Y-97443800D01*
X149386157Y-97443800D01*
X149386154Y-97443800D01*
X149231509Y-97474561D01*
X149231497Y-97474564D01*
X149085826Y-97534902D01*
X149085813Y-97534909D01*
X148954124Y-97622902D01*
X148936077Y-97628552D01*
X148920168Y-97638777D01*
X148889206Y-97643228D01*
X148887446Y-97643780D01*
X148885233Y-97643800D01*
X148829765Y-97643800D01*
X148762726Y-97624115D01*
X148760874Y-97622902D01*
X148629184Y-97534909D01*
X148629171Y-97534902D01*
X148483500Y-97474564D01*
X148483488Y-97474561D01*
X148328844Y-97443800D01*
X148328841Y-97443800D01*
X148171157Y-97443800D01*
X148171154Y-97443800D01*
X148016509Y-97474561D01*
X148016497Y-97474564D01*
X147870826Y-97534902D01*
X147870813Y-97534909D01*
X147739710Y-97622510D01*
X147739706Y-97622513D01*
X147628212Y-97734007D01*
X147628209Y-97734011D01*
X147540608Y-97865114D01*
X147540601Y-97865127D01*
X147480263Y-98010798D01*
X147480260Y-98010810D01*
X147449499Y-98165453D01*
X116400499Y-98165453D01*
X116400499Y-96249235D01*
X116402862Y-96241188D01*
X156925234Y-96241188D01*
X156925234Y-96398881D01*
X156955995Y-96553524D01*
X156955998Y-96553536D01*
X157016336Y-96699207D01*
X157016343Y-96699220D01*
X157088961Y-96807900D01*
X157088963Y-96807902D01*
X157103945Y-96830324D01*
X157215445Y-96941824D01*
X157237866Y-96956805D01*
X157237867Y-96956806D01*
X157346548Y-97029425D01*
X157346561Y-97029432D01*
X157492232Y-97089770D01*
X157492237Y-97089772D01*
X157556881Y-97102630D01*
X157647583Y-97120673D01*
X157709494Y-97153058D01*
X157711073Y-97154609D01*
X164265138Y-103708674D01*
X164265148Y-103708685D01*
X164269478Y-103713015D01*
X164269479Y-103713016D01*
X164381283Y-103824820D01*
X164432844Y-103854588D01*
X164468094Y-103874939D01*
X164468096Y-103874941D01*
X164497974Y-103892191D01*
X164518214Y-103903877D01*
X164670942Y-103944801D01*
X164670945Y-103944801D01*
X164836652Y-103944801D01*
X164836668Y-103944800D01*
X167560951Y-103944800D01*
X167627990Y-103964485D01*
X167629842Y-103965698D01*
X167761531Y-104053690D01*
X167761544Y-104053697D01*
X167906515Y-104113745D01*
X167907220Y-104114037D01*
X168028006Y-104138063D01*
X168061870Y-104144799D01*
X168061873Y-104144800D01*
X168061875Y-104144800D01*
X168219561Y-104144800D01*
X168219562Y-104144799D01*
X168374214Y-104114037D01*
X168519896Y-104053694D01*
X168651006Y-103966089D01*
X168762506Y-103854589D01*
X168850111Y-103723479D01*
X168910454Y-103577797D01*
X168941217Y-103423142D01*
X168941217Y-103265458D01*
X168941217Y-103265455D01*
X168941216Y-103265453D01*
X168930580Y-103211985D01*
X168910454Y-103110803D01*
X168900905Y-103087750D01*
X168850114Y-102965127D01*
X168850107Y-102965114D01*
X168762506Y-102834011D01*
X168762503Y-102834007D01*
X168651009Y-102722513D01*
X168651005Y-102722510D01*
X168519902Y-102634909D01*
X168519889Y-102634902D01*
X168374218Y-102574564D01*
X168374206Y-102574561D01*
X168219562Y-102543800D01*
X168219559Y-102543800D01*
X168061875Y-102543800D01*
X168061872Y-102543800D01*
X167907227Y-102574561D01*
X167907215Y-102574564D01*
X167761544Y-102634902D01*
X167761531Y-102634909D01*
X167629842Y-102722902D01*
X167563164Y-102743780D01*
X167560951Y-102743800D01*
X165050096Y-102743800D01*
X164983057Y-102724115D01*
X164962415Y-102707481D01*
X159576369Y-97321435D01*
X179274499Y-97321435D01*
X179274499Y-99367170D01*
X179274500Y-99367176D01*
X179280907Y-99426783D01*
X179331201Y-99561628D01*
X179331205Y-99561635D01*
X179417451Y-99676844D01*
X179417454Y-99676847D01*
X179532663Y-99763093D01*
X179532670Y-99763097D01*
X179667516Y-99813391D01*
X179667515Y-99813391D01*
X179674443Y-99814135D01*
X179727126Y-99819800D01*
X181772871Y-99819799D01*
X181832482Y-99813391D01*
X181967330Y-99763096D01*
X182082545Y-99676846D01*
X182168795Y-99561631D01*
X182219090Y-99426783D01*
X182225499Y-99367173D01*
X182225498Y-97321428D01*
X182219090Y-97261817D01*
X182211274Y-97240862D01*
X182168796Y-97126971D01*
X182168792Y-97126964D01*
X182082546Y-97011755D01*
X182082543Y-97011752D01*
X181967334Y-96925506D01*
X181967327Y-96925502D01*
X181832481Y-96875208D01*
X181832482Y-96875208D01*
X181772882Y-96868801D01*
X181772880Y-96868800D01*
X181772872Y-96868800D01*
X181772863Y-96868800D01*
X179727128Y-96868800D01*
X179727122Y-96868801D01*
X179667515Y-96875208D01*
X179532670Y-96925502D01*
X179532663Y-96925506D01*
X179417454Y-97011752D01*
X179417451Y-97011755D01*
X179331205Y-97126964D01*
X179331201Y-97126971D01*
X179280907Y-97261817D01*
X179274500Y-97321416D01*
X179274500Y-97321423D01*
X179274499Y-97321435D01*
X159576369Y-97321435D01*
X158560308Y-96305374D01*
X158526823Y-96244051D01*
X158526372Y-96241884D01*
X158495472Y-96086545D01*
X158495471Y-96086538D01*
X158450431Y-95977801D01*
X158435131Y-95940862D01*
X158435124Y-95940849D01*
X158347523Y-95809746D01*
X158347520Y-95809742D01*
X158236026Y-95698248D01*
X158236022Y-95698245D01*
X158104919Y-95610644D01*
X158104906Y-95610637D01*
X157959235Y-95550299D01*
X157959223Y-95550296D01*
X157804579Y-95519535D01*
X157804576Y-95519535D01*
X157646892Y-95519535D01*
X157646889Y-95519535D01*
X157492244Y-95550296D01*
X157492232Y-95550299D01*
X157346561Y-95610637D01*
X157346548Y-95610644D01*
X157215445Y-95698245D01*
X157215441Y-95698248D01*
X157103947Y-95809742D01*
X157103944Y-95809746D01*
X157016343Y-95940849D01*
X157016336Y-95940862D01*
X156955998Y-96086533D01*
X156955995Y-96086545D01*
X156925234Y-96241188D01*
X116402862Y-96241188D01*
X116420184Y-96182196D01*
X116421365Y-96180390D01*
X116459393Y-96123479D01*
X116519736Y-95977797D01*
X116550499Y-95823142D01*
X116550499Y-95665458D01*
X116550499Y-95665455D01*
X116550498Y-95665453D01*
X116527592Y-95550298D01*
X116519736Y-95510803D01*
X116519734Y-95510798D01*
X116459396Y-95365127D01*
X116459389Y-95365114D01*
X116371788Y-95234011D01*
X116371785Y-95234007D01*
X116260291Y-95122513D01*
X116260287Y-95122510D01*
X116129184Y-95034909D01*
X116129171Y-95034902D01*
X115983500Y-94974564D01*
X115983488Y-94974561D01*
X115828844Y-94943800D01*
X115828841Y-94943800D01*
X115671157Y-94943800D01*
X115671154Y-94943800D01*
X115516509Y-94974561D01*
X115516497Y-94974564D01*
X115370826Y-95034902D01*
X115370813Y-95034909D01*
X115239710Y-95122510D01*
X115239706Y-95122513D01*
X115128212Y-95234007D01*
X115128209Y-95234011D01*
X115040608Y-95365114D01*
X115040601Y-95365127D01*
X114980263Y-95510798D01*
X114980260Y-95510810D01*
X114949499Y-95665453D01*
X113558104Y-95665453D01*
X113584010Y-95535213D01*
X113584838Y-95531376D01*
X113858884Y-94356058D01*
X113859835Y-94352262D01*
X114161023Y-93228209D01*
X179274999Y-93228209D01*
X179274999Y-93460390D01*
X179311317Y-93689693D01*
X179383064Y-93910505D01*
X179488464Y-94117364D01*
X179545237Y-94195507D01*
X180148957Y-93591787D01*
X180173977Y-93652190D01*
X180245111Y-93758651D01*
X180335648Y-93849188D01*
X180442109Y-93920322D01*
X180502509Y-93945341D01*
X179898790Y-94549059D01*
X179898790Y-94549060D01*
X179976934Y-94605834D01*
X180183793Y-94711234D01*
X180404605Y-94782981D01*
X180633909Y-94819300D01*
X180866089Y-94819300D01*
X181095392Y-94782981D01*
X181316204Y-94711234D01*
X181523070Y-94605830D01*
X181601206Y-94549062D01*
X181601207Y-94549060D01*
X180997487Y-93945341D01*
X181057889Y-93920322D01*
X181164350Y-93849188D01*
X181254887Y-93758651D01*
X181326021Y-93652190D01*
X181351040Y-93591789D01*
X181954759Y-94195508D01*
X181954761Y-94195507D01*
X182011529Y-94117371D01*
X182116933Y-93910505D01*
X182188680Y-93689693D01*
X182224999Y-93460390D01*
X182224999Y-93228209D01*
X182188680Y-92998906D01*
X182116933Y-92778094D01*
X182011533Y-92571235D01*
X181954759Y-92493091D01*
X181954758Y-92493091D01*
X181351040Y-93096810D01*
X181326021Y-93036410D01*
X181254887Y-92929949D01*
X181164350Y-92839412D01*
X181057889Y-92768278D01*
X180997486Y-92743257D01*
X181601206Y-92139538D01*
X181523063Y-92082765D01*
X181316204Y-91977365D01*
X181095392Y-91905618D01*
X180866089Y-91869300D01*
X180633909Y-91869300D01*
X180404605Y-91905618D01*
X180183793Y-91977365D01*
X179976924Y-92082770D01*
X179898790Y-92139537D01*
X179898790Y-92139538D01*
X180502510Y-92743258D01*
X180442109Y-92768278D01*
X180335648Y-92839412D01*
X180245111Y-92929949D01*
X180173977Y-93036410D01*
X180148957Y-93096811D01*
X179545237Y-92493091D01*
X179545236Y-92493091D01*
X179488469Y-92571225D01*
X179383064Y-92778094D01*
X179311317Y-92998906D01*
X179274999Y-93228209D01*
X114161023Y-93228209D01*
X114172184Y-93186555D01*
X114173263Y-93182777D01*
X114481865Y-92165453D01*
X159049499Y-92165453D01*
X159049499Y-92323146D01*
X159080260Y-92477789D01*
X159080263Y-92477801D01*
X159140601Y-92623472D01*
X159140608Y-92623485D01*
X159228209Y-92754588D01*
X159228212Y-92754592D01*
X159339706Y-92866086D01*
X159339710Y-92866089D01*
X159470813Y-92953690D01*
X159470826Y-92953697D01*
X159560272Y-92990746D01*
X159616502Y-93014037D01*
X159728978Y-93036410D01*
X159771152Y-93044799D01*
X159771155Y-93044800D01*
X159771157Y-93044800D01*
X159928843Y-93044800D01*
X159928844Y-93044799D01*
X160083496Y-93014037D01*
X160229178Y-92953694D01*
X160360288Y-92866089D01*
X160471788Y-92754589D01*
X160559393Y-92623479D01*
X160577770Y-92579109D01*
X160604647Y-92538885D01*
X160988926Y-92154607D01*
X161003451Y-92146373D01*
X161013740Y-92135407D01*
X161041345Y-92124889D01*
X161046399Y-92122025D01*
X161052331Y-92120535D01*
X161053106Y-92120535D01*
X161207761Y-92089772D01*
X161353443Y-92029429D01*
X161484553Y-91941824D01*
X161596053Y-91830324D01*
X161683658Y-91699214D01*
X161744001Y-91553532D01*
X161774764Y-91398877D01*
X161774764Y-91241193D01*
X161774764Y-91241190D01*
X161774763Y-91241188D01*
X161744002Y-91086545D01*
X161744002Y-91086543D01*
X161744001Y-91086538D01*
X161722139Y-91033757D01*
X161683661Y-90940862D01*
X161683654Y-90940849D01*
X161596053Y-90809746D01*
X161596050Y-90809742D01*
X161484556Y-90698248D01*
X161484552Y-90698245D01*
X161353449Y-90610644D01*
X161353436Y-90610637D01*
X161207765Y-90550299D01*
X161207753Y-90550296D01*
X161053109Y-90519535D01*
X161053106Y-90519535D01*
X160895422Y-90519535D01*
X160895419Y-90519535D01*
X160740774Y-90550296D01*
X160740762Y-90550299D01*
X160595091Y-90610637D01*
X160595078Y-90610644D01*
X160463975Y-90698245D01*
X160463971Y-90698248D01*
X160352477Y-90809742D01*
X160352474Y-90809746D01*
X160264873Y-90940849D01*
X160264866Y-90940862D01*
X160204528Y-91086533D01*
X160204525Y-91086543D01*
X160173625Y-91241884D01*
X160164859Y-91258640D01*
X160160840Y-91277119D01*
X160142097Y-91302155D01*
X160141240Y-91303795D01*
X160139689Y-91305373D01*
X160036114Y-91408948D01*
X159974791Y-91442433D01*
X159935060Y-91442800D01*
X159934903Y-91444397D01*
X159928841Y-91443800D01*
X159771157Y-91443800D01*
X159771154Y-91443800D01*
X159616509Y-91474561D01*
X159616497Y-91474564D01*
X159470826Y-91534902D01*
X159470813Y-91534909D01*
X159339710Y-91622510D01*
X159339706Y-91622513D01*
X159228212Y-91734007D01*
X159228209Y-91734011D01*
X159140608Y-91865114D01*
X159140601Y-91865127D01*
X159080263Y-92010798D01*
X159080260Y-92010810D01*
X159049499Y-92165453D01*
X114481865Y-92165453D01*
X114523577Y-92027948D01*
X114524793Y-92024164D01*
X114912695Y-90881439D01*
X114914052Y-90877649D01*
X114939609Y-90809746D01*
X115339118Y-89748276D01*
X115340588Y-89744555D01*
X115802401Y-88629639D01*
X115803980Y-88625995D01*
X116302022Y-87526794D01*
X116303746Y-87523151D01*
X116416608Y-87294291D01*
X116837464Y-86440877D01*
X116839308Y-86437290D01*
X117408161Y-85373039D01*
X117410075Y-85369594D01*
X118013480Y-84324468D01*
X118015517Y-84321069D01*
X118652775Y-83296274D01*
X118654926Y-83292937D01*
X118958897Y-82838013D01*
X131374499Y-82838013D01*
X131374499Y-83050587D01*
X131407753Y-83260543D01*
X131418266Y-83292900D01*
X131473443Y-83462714D01*
X131569950Y-83652120D01*
X131694889Y-83824086D01*
X131845208Y-83974405D01*
X131845213Y-83974409D01*
X132009792Y-84093982D01*
X132052458Y-84149311D01*
X132058437Y-84218925D01*
X132025832Y-84280720D01*
X132009792Y-84294618D01*
X131845213Y-84414190D01*
X131845208Y-84414194D01*
X131694889Y-84564513D01*
X131569950Y-84736479D01*
X131473443Y-84925885D01*
X131407752Y-85128060D01*
X131374499Y-85338013D01*
X131374499Y-85550586D01*
X131407752Y-85760539D01*
X131473443Y-85962714D01*
X131569950Y-86152120D01*
X131694889Y-86324086D01*
X131833704Y-86462901D01*
X131867189Y-86524224D01*
X131862205Y-86593916D01*
X131820333Y-86649849D01*
X131811120Y-86656121D01*
X131656341Y-86751589D01*
X131532288Y-86875642D01*
X131440186Y-87024963D01*
X131440185Y-87024966D01*
X131385000Y-87191503D01*
X131385000Y-87191504D01*
X131384999Y-87191504D01*
X131374499Y-87294283D01*
X131374499Y-88594301D01*
X131374500Y-88594318D01*
X131384999Y-88697096D01*
X131385000Y-88697099D01*
X131440184Y-88863631D01*
X131440185Y-88863634D01*
X131532287Y-89012956D01*
X131656343Y-89137012D01*
X131805665Y-89229114D01*
X131972202Y-89284299D01*
X132074990Y-89294800D01*
X133625007Y-89294799D01*
X133727796Y-89284299D01*
X133894333Y-89229114D01*
X134043655Y-89137012D01*
X134167711Y-89012956D01*
X134259813Y-88863634D01*
X134314998Y-88697097D01*
X134325499Y-88594309D01*
X134325498Y-87294292D01*
X134314998Y-87191503D01*
X134259813Y-87024966D01*
X134167711Y-86875644D01*
X134043655Y-86751588D01*
X133894333Y-86659486D01*
X133894332Y-86659485D01*
X133888877Y-86656121D01*
X133842153Y-86604173D01*
X133830930Y-86535210D01*
X133858774Y-86471128D01*
X133866271Y-86462923D01*
X134005103Y-86324092D01*
X134130050Y-86152116D01*
X134226556Y-85962712D01*
X134292245Y-85760543D01*
X134325499Y-85550587D01*
X134325499Y-85338013D01*
X134292245Y-85128057D01*
X134226556Y-84925888D01*
X134130050Y-84736484D01*
X134130048Y-84736481D01*
X134130047Y-84736479D01*
X134005108Y-84564513D01*
X133854791Y-84414196D01*
X133756998Y-84343146D01*
X133690203Y-84294616D01*
X133647539Y-84239289D01*
X133641560Y-84169676D01*
X133674165Y-84107880D01*
X133690198Y-84093986D01*
X133854791Y-83974404D01*
X134005103Y-83824092D01*
X134005105Y-83824088D01*
X134005108Y-83824086D01*
X134130047Y-83652120D01*
X134130046Y-83652120D01*
X134130050Y-83652116D01*
X134226556Y-83462712D01*
X134292245Y-83260543D01*
X134325499Y-83050587D01*
X134325499Y-82838013D01*
X134317174Y-82785453D01*
X145799499Y-82785453D01*
X145799499Y-82943146D01*
X145830260Y-83097789D01*
X145830263Y-83097801D01*
X145890601Y-83243472D01*
X145890608Y-83243485D01*
X145978209Y-83374588D01*
X145978212Y-83374592D01*
X146080239Y-83476619D01*
X146113724Y-83537942D01*
X146108740Y-83607634D01*
X146080239Y-83651981D01*
X145978212Y-83754007D01*
X145978209Y-83754011D01*
X145890608Y-83885114D01*
X145890601Y-83885127D01*
X145830263Y-84030798D01*
X145830260Y-84030810D01*
X145799499Y-84185453D01*
X145799499Y-84343146D01*
X145830260Y-84497789D01*
X145830263Y-84497801D01*
X145890601Y-84643472D01*
X145890608Y-84643485D01*
X145978209Y-84774588D01*
X145978212Y-84774592D01*
X146089706Y-84886086D01*
X146089710Y-84886089D01*
X146220813Y-84973690D01*
X146220826Y-84973697D01*
X146330081Y-85018951D01*
X146366502Y-85034037D01*
X146421830Y-85045042D01*
X146483739Y-85077426D01*
X146518314Y-85138141D01*
X146519255Y-85142466D01*
X146530260Y-85197792D01*
X146530263Y-85197801D01*
X146590601Y-85343472D01*
X146590608Y-85343485D01*
X146678209Y-85474588D01*
X146678212Y-85474592D01*
X146789706Y-85586086D01*
X146789710Y-85586089D01*
X146920813Y-85673690D01*
X146920826Y-85673697D01*
X147066497Y-85734035D01*
X147066502Y-85734037D01*
X147199736Y-85760539D01*
X147221152Y-85764799D01*
X147221155Y-85764800D01*
X147221157Y-85764800D01*
X147378843Y-85764800D01*
X147378844Y-85764799D01*
X147533496Y-85734037D01*
X147679178Y-85673694D01*
X147810288Y-85586089D01*
X147845791Y-85550586D01*
X147912318Y-85484060D01*
X147973641Y-85450575D01*
X148043333Y-85455559D01*
X148087680Y-85484060D01*
X148189706Y-85586086D01*
X148189710Y-85586089D01*
X148320813Y-85673690D01*
X148320826Y-85673697D01*
X148466497Y-85734035D01*
X148466502Y-85734037D01*
X148599736Y-85760539D01*
X148621152Y-85764799D01*
X148621155Y-85764800D01*
X148621157Y-85764800D01*
X148778843Y-85764800D01*
X148778844Y-85764799D01*
X148933496Y-85734037D01*
X149079178Y-85673694D01*
X149210288Y-85586089D01*
X149321788Y-85474589D01*
X149409393Y-85343479D01*
X149469736Y-85197797D01*
X149480742Y-85142466D01*
X149513124Y-85080558D01*
X149573840Y-85045983D01*
X149578117Y-85045052D01*
X149633496Y-85034037D01*
X149779178Y-84973694D01*
X149910288Y-84886089D01*
X150021788Y-84774589D01*
X150109393Y-84643479D01*
X150169736Y-84497797D01*
X150200499Y-84343142D01*
X150200499Y-84185458D01*
X150200499Y-84185455D01*
X150200498Y-84185453D01*
X150193309Y-84149311D01*
X150169736Y-84030803D01*
X150146377Y-83974409D01*
X150109396Y-83885127D01*
X150109389Y-83885114D01*
X150021788Y-83754011D01*
X150021785Y-83754007D01*
X149919759Y-83651981D01*
X149886274Y-83590658D01*
X149891258Y-83520966D01*
X149919759Y-83476619D01*
X150021785Y-83374592D01*
X150021788Y-83374589D01*
X150109393Y-83243479D01*
X150169736Y-83097797D01*
X150200499Y-82943142D01*
X150200499Y-82785458D01*
X150200499Y-82785455D01*
X150200498Y-82785453D01*
X150169737Y-82630810D01*
X150169736Y-82630803D01*
X150168599Y-82628057D01*
X150109396Y-82485127D01*
X150109389Y-82485114D01*
X150021788Y-82354011D01*
X150021785Y-82354007D01*
X149910291Y-82242513D01*
X149910287Y-82242510D01*
X149779184Y-82154909D01*
X149779171Y-82154902D01*
X149633500Y-82094564D01*
X149633491Y-82094561D01*
X149578165Y-82083556D01*
X149516255Y-82051170D01*
X149481681Y-81990454D01*
X149480749Y-81986174D01*
X149469736Y-81930803D01*
X149454650Y-81894382D01*
X149409396Y-81785127D01*
X149409389Y-81785114D01*
X149321788Y-81654011D01*
X149321785Y-81654007D01*
X149210291Y-81542513D01*
X149210287Y-81542510D01*
X149079184Y-81454909D01*
X149079171Y-81454902D01*
X148933500Y-81394564D01*
X148933488Y-81394561D01*
X148778844Y-81363800D01*
X148778841Y-81363800D01*
X148621157Y-81363800D01*
X148621154Y-81363800D01*
X148466509Y-81394561D01*
X148466497Y-81394564D01*
X148320826Y-81454902D01*
X148320813Y-81454909D01*
X148189710Y-81542510D01*
X148189706Y-81542513D01*
X148087680Y-81644540D01*
X148026357Y-81678025D01*
X147956665Y-81673041D01*
X147912318Y-81644540D01*
X147810291Y-81542513D01*
X147810287Y-81542510D01*
X147679184Y-81454909D01*
X147679171Y-81454902D01*
X147533500Y-81394564D01*
X147533488Y-81394561D01*
X147378844Y-81363800D01*
X147378841Y-81363800D01*
X147221157Y-81363800D01*
X147221154Y-81363800D01*
X147066509Y-81394561D01*
X147066497Y-81394564D01*
X146920826Y-81454902D01*
X146920813Y-81454909D01*
X146789710Y-81542510D01*
X146789706Y-81542513D01*
X146678212Y-81654007D01*
X146678209Y-81654011D01*
X146590608Y-81785114D01*
X146590601Y-81785127D01*
X146530263Y-81930798D01*
X146530261Y-81930805D01*
X146519255Y-81986133D01*
X146486869Y-82048043D01*
X146426152Y-82082616D01*
X146421832Y-82083556D01*
X146366504Y-82094562D01*
X146366497Y-82094564D01*
X146220826Y-82154902D01*
X146220813Y-82154909D01*
X146089710Y-82242510D01*
X146089706Y-82242513D01*
X145978212Y-82354007D01*
X145978209Y-82354011D01*
X145890608Y-82485114D01*
X145890601Y-82485127D01*
X145830263Y-82630798D01*
X145830260Y-82630810D01*
X145799499Y-82785453D01*
X134317174Y-82785453D01*
X134292245Y-82628057D01*
X134226556Y-82425888D01*
X134130050Y-82236484D01*
X134130048Y-82236481D01*
X134130047Y-82236479D01*
X134005108Y-82064513D01*
X133854789Y-81914194D01*
X133854784Y-81914190D01*
X133689780Y-81794308D01*
X133647114Y-81738978D01*
X133641135Y-81669365D01*
X133673740Y-81607570D01*
X133689780Y-81593671D01*
X133854465Y-81474021D01*
X134004722Y-81323764D01*
X134004726Y-81323759D01*
X134129619Y-81151857D01*
X134226094Y-80962517D01*
X134291756Y-80760429D01*
X134291756Y-80760426D01*
X134302230Y-80694300D01*
X133254145Y-80694300D01*
X133292629Y-80627643D01*
X133324999Y-80506835D01*
X133324999Y-80381765D01*
X133292629Y-80260957D01*
X133254145Y-80194300D01*
X134302230Y-80194300D01*
X134291756Y-80128173D01*
X134291756Y-80128170D01*
X134226094Y-79926082D01*
X134129619Y-79736742D01*
X134004726Y-79564840D01*
X134004722Y-79564835D01*
X133854459Y-79414572D01*
X133689354Y-79294618D01*
X133646688Y-79239289D01*
X133640709Y-79169675D01*
X133673314Y-79107880D01*
X133689354Y-79093982D01*
X133854459Y-78974027D01*
X134004722Y-78823764D01*
X134004726Y-78823759D01*
X134129619Y-78651857D01*
X134226094Y-78462517D01*
X134291756Y-78260429D01*
X134291756Y-78260426D01*
X134302230Y-78194300D01*
X133254145Y-78194300D01*
X133292629Y-78127643D01*
X133324999Y-78006835D01*
X133324999Y-77881765D01*
X133292629Y-77760957D01*
X133254145Y-77694300D01*
X134302230Y-77694300D01*
X134291756Y-77628173D01*
X134291756Y-77628170D01*
X134226094Y-77426082D01*
X134129619Y-77236742D01*
X134004726Y-77064840D01*
X134004722Y-77064835D01*
X133854463Y-76914576D01*
X133854458Y-76914572D01*
X133682556Y-76789679D01*
X133493216Y-76693204D01*
X133291127Y-76627542D01*
X133099999Y-76597269D01*
X133099999Y-77540154D01*
X133033342Y-77501670D01*
X132912534Y-77469300D01*
X132787464Y-77469300D01*
X132666656Y-77501670D01*
X132599999Y-77540154D01*
X132599999Y-76597269D01*
X132408871Y-76627542D01*
X132408868Y-76627542D01*
X132206781Y-76693204D01*
X132017441Y-76789679D01*
X131845539Y-76914572D01*
X131845534Y-76914576D01*
X131695275Y-77064835D01*
X131695271Y-77064840D01*
X131570378Y-77236742D01*
X131473903Y-77426082D01*
X131408241Y-77628170D01*
X131408241Y-77628173D01*
X131397768Y-77694300D01*
X132445853Y-77694300D01*
X132407369Y-77760957D01*
X132374999Y-77881765D01*
X132374999Y-78006835D01*
X132407369Y-78127643D01*
X132445853Y-78194300D01*
X131397768Y-78194300D01*
X131408241Y-78260426D01*
X131408241Y-78260429D01*
X131473903Y-78462517D01*
X131570378Y-78651857D01*
X131695271Y-78823759D01*
X131695275Y-78823764D01*
X131845534Y-78974023D01*
X131845539Y-78974027D01*
X132010643Y-79093982D01*
X132053309Y-79149312D01*
X132059288Y-79218925D01*
X132026683Y-79280720D01*
X132010643Y-79294618D01*
X131845539Y-79414572D01*
X131845534Y-79414576D01*
X131695275Y-79564835D01*
X131695271Y-79564840D01*
X131570378Y-79736742D01*
X131473903Y-79926082D01*
X131408241Y-80128170D01*
X131408241Y-80128173D01*
X131397768Y-80194300D01*
X132445853Y-80194300D01*
X132407369Y-80260957D01*
X132374999Y-80381765D01*
X132374999Y-80506835D01*
X132407369Y-80627643D01*
X132445853Y-80694300D01*
X131397768Y-80694300D01*
X131408241Y-80760426D01*
X131408241Y-80760429D01*
X131473903Y-80962517D01*
X131570378Y-81151857D01*
X131695271Y-81323759D01*
X131695275Y-81323764D01*
X131845534Y-81474023D01*
X131845539Y-81474027D01*
X132010217Y-81593672D01*
X132052883Y-81649001D01*
X132058862Y-81718615D01*
X132026257Y-81780410D01*
X132010217Y-81794308D01*
X131845213Y-81914190D01*
X131845208Y-81914194D01*
X131694889Y-82064513D01*
X131569950Y-82236479D01*
X131473443Y-82425885D01*
X131407752Y-82628060D01*
X131386182Y-82764250D01*
X131374499Y-82838013D01*
X118958897Y-82838013D01*
X119325382Y-82289530D01*
X119327646Y-82286260D01*
X120030557Y-81305349D01*
X120032937Y-81302139D01*
X120767563Y-80344757D01*
X120770049Y-80341624D01*
X121535626Y-79408766D01*
X121538168Y-79405769D01*
X122333863Y-78498452D01*
X122336556Y-78495481D01*
X123161478Y-77614721D01*
X123164240Y-77611867D01*
X124017566Y-76758541D01*
X124020420Y-76755779D01*
X124901180Y-75930857D01*
X124904151Y-75928164D01*
X125811468Y-75132469D01*
X125814465Y-75129927D01*
X126586973Y-74495947D01*
X126725273Y-74382447D01*
X126789583Y-74355134D01*
X126803938Y-74354300D01*
X136708558Y-74354300D01*
X136775597Y-74373985D01*
G37*
%TD.AperFunction*%
%TD*%
M02*
